<svg xmlns="http://www.w3.org/2000/svg" xmlns:xlink="http://www.w3.org/1999/xlink" width="1920" zoomAndPan="magnify" viewBox="0 0 1440 449.999984" height="600" preserveAspectRatio="xMidYMid meet" version="1.2"><defs><clipPath id="44a6b32959"><path d="M 346 14.675781 L 419 14.675781 L 419 91 L 346 91 Z M 346 14.675781 "/></clipPath><clipPath id="d5f82ea7f8"><path d="M 135 321 L 382 321 L 382 435.226562 L 135 435.226562 Z M 135 321 "/></clipPath><clipPath id="095a633eea"><path d="M 70.503906 265 L 369 265 L 369 374 L 70.503906 374 Z M 70.503906 265 "/></clipPath><clipPath id="75e4570baa"><path d="M 382 321 L 629 321 L 629 435.226562 L 382 435.226562 Z M 382 321 "/></clipPath><clipPath id="c0ca3dfdaf"><path d="M 395 265 L 693.316406 265 L 693.316406 374 L 395 374 Z M 395 265 "/></clipPath></defs><g id="537c702de5"><g clip-rule="nonzero" clip-path="url(#44a6b32959)"><path style=" stroke:none;fill-rule:nonzero;fill:#ffffff;fill-opacity:1;" d="M 381.414062 14.675781 C 378.113281 16.234375 371.390625 20.03125 366.722656 27.746094 C 361.183594 36.835938 358.941406 50.964844 366.722656 62.605469 C 373.878906 73.25 386.390625 77.355469 397.160156 76.113281 C 408.988281 74.742188 416.269531 67.210938 418.199219 65.03125 C 411.164062 82.648438 393.859375 92.980469 377.117188 90.613281 C 364.171875 88.746094 353.277344 79.597656 348.546875 67.769531 C 340.457031 47.667969 354.273438 30.175781 355.207031 29.054688 C 364.792969 17.289062 378.050781 15.113281 381.414062 14.675781 Z M 381.414062 14.675781 "/></g><path style=" stroke:none;fill-rule:nonzero;fill:#ffffff;fill-opacity:1;" d="M 392.179688 25.941406 L 396.476562 39.136719 L 410.355469 39.136719 L 399.089844 47.355469 L 403.382812 60.550781 L 392.179688 52.398438 L 380.914062 60.550781 L 385.210938 47.355469 L 374.003906 39.136719 L 387.886719 39.136719 Z M 392.179688 25.941406 "/><path style=" stroke:none;fill-rule:nonzero;fill:#ffffff;fill-opacity:1;" d="M 283.253906 296.085938 L 253.996094 281.894531 L 253.996094 191.203125 L 381.722656 96.464844 L 510.257812 191.699219 L 510.257812 281.894531 L 480.445312 296.085938 L 481.253906 209.6875 L 382.097656 135.929688 L 283.253906 208.878906 Z M 283.253906 296.085938 "/><path style=" stroke:none;fill-rule:nonzero;fill:#ffffff;fill-opacity:1;" d="M 420.875 333.679688 L 420.875 243.800781 L 382.097656 214.542969 L 343.070312 244.046875 L 343.070312 333.679688 L 312.507812 311.957031 L 312.507812 226.621094 L 382.097656 174.582031 L 451.1875 225.25 L 451.1875 312.453125 Z M 420.875 333.679688 "/><g clip-rule="nonzero" clip-path="url(#d5f82ea7f8)"><path style=" stroke:none;fill-rule:nonzero;fill:#ffffff;fill-opacity:1;" d="M 381.722656 401.277344 L 366.472656 435.078125 C 343.628906 418.148438 309.832031 396.921875 265.324219 381.171875 C 227.667969 367.789062 193.929688 362.375 168.222656 360.257812 C 164.363281 354.96875 160.195312 349.492188 155.652344 343.949219 C 148.929688 335.734375 142.207031 328.265625 135.734375 321.605469 C 146.375 321.542969 160.878906 321.917969 177.996094 323.597656 C 213.972656 327.207031 240.550781 334.738281 261.714844 340.902344 C 268.5625 342.894531 297.632812 351.421875 328.503906 365.550781 C 336.347656 369.160156 344.375 373.144531 353.652344 379.058594 C 366.039062 387.085938 375.4375 395.242188 381.722656 401.277344 Z M 381.722656 401.277344 "/></g><g clip-rule="nonzero" clip-path="url(#095a633eea)"><path style=" stroke:none;fill-rule:nonzero;fill:#ffffff;fill-opacity:1;" d="M 118.179688 302.871094 L 70.6875 266.457031 C 103.738281 263.964844 158.515625 264.027344 221.382812 284.695312 C 294.644531 308.78125 343.566406 349.117188 368.652344 373.144531 C 327.820312 347 264.082031 314.757812 181.730469 305.359375 C 158.949219 302.683594 137.601562 302.121094 118.179688 302.871094 Z M 118.179688 302.871094 "/></g><g clip-rule="nonzero" clip-path="url(#75e4570baa)"><path style=" stroke:none;fill-rule:nonzero;fill:#ffffff;fill-opacity:1;" d="M 382.097656 401.277344 L 397.347656 435.078125 C 420.191406 418.148438 453.988281 396.921875 498.496094 381.171875 C 536.152344 367.789062 569.890625 362.375 595.597656 360.257812 C 599.457031 354.96875 603.625 349.492188 608.167969 343.949219 C 614.890625 335.734375 621.613281 328.265625 628.089844 321.605469 C 617.445312 321.542969 602.941406 321.917969 585.824219 323.597656 C 549.847656 327.207031 523.269531 334.738281 502.105469 340.902344 C 495.257812 342.894531 466.191406 351.421875 435.316406 365.550781 C 427.472656 369.160156 419.445312 373.144531 410.167969 379.058594 C 397.78125 387.085938 388.382812 395.242188 382.097656 401.277344 Z M 382.097656 401.277344 "/></g><g clip-rule="nonzero" clip-path="url(#c0ca3dfdaf)"><path style=" stroke:none;fill-rule:nonzero;fill:#ffffff;fill-opacity:1;" d="M 645.640625 302.871094 L 693.132812 266.457031 C 660.082031 263.964844 605.304688 264.027344 542.4375 284.695312 C 469.175781 308.78125 420.253906 349.117188 395.167969 373.144531 C 436 347 499.738281 314.757812 582.089844 305.359375 C 604.871094 302.683594 626.21875 302.121094 645.640625 302.871094 Z M 645.640625 302.871094 "/></g><g style="fill:#ffffff;fill-opacity:1;"><g transform="translate(895.733332, 376.103521)"><path style="stroke:none" d="M 48.984375 0 L 4.484375 0 L 4.484375 -4.984375 C 7.304688 -5.066406 9.566406 -5.335938 11.265625 -5.796875 C 12.972656 -6.253906 14.285156 -7.101562 15.203125 -8.34375 C 16.117188 -9.59375 16.742188 -11.359375 17.078125 -13.640625 C 17.410156 -15.929688 17.578125 -19.03125 17.578125 -22.9375 L 17.578125 -73.046875 C 17.578125 -76.535156 17.429688 -79.421875 17.140625 -81.703125 C 16.847656 -83.984375 16.285156 -85.789062 15.453125 -87.125 C 14.617188 -88.457031 13.429688 -89.390625 11.890625 -89.921875 C 10.359375 -90.460938 8.304688 -90.816406 5.734375 -90.984375 L 5.734375 -95.96875 L 47.734375 -95.96875 L 47.734375 -90.984375 C 45.160156 -90.816406 43.101562 -90.460938 41.5625 -89.921875 C 40.03125 -89.390625 38.847656 -88.457031 38.015625 -87.125 C 37.179688 -85.789062 36.617188 -83.984375 36.328125 -81.703125 C 36.035156 -79.421875 35.890625 -76.535156 35.890625 -73.046875 L 35.890625 -22.9375 C 35.890625 -19.03125 36.035156 -15.929688 36.328125 -13.640625 C 36.617188 -11.359375 37.242188 -9.59375 38.203125 -8.34375 C 39.160156 -7.101562 40.488281 -6.253906 42.1875 -5.796875 C 43.894531 -5.335938 46.160156 -5.066406 48.984375 -4.984375 Z M 48.984375 0 "/></g></g><g style="fill:#ffffff;fill-opacity:1;"><g transform="translate(949.202202, 376.103521)"><path style="stroke:none" d="M 6.734375 -31.78125 L 11.59375 -31.78125 C 12.757812 -23.882812 15.914062 -17.671875 21.0625 -13.140625 C 26.21875 -8.617188 32.578125 -6.359375 40.140625 -6.359375 C 43.210938 -6.359375 46.035156 -6.726562 48.609375 -7.46875 C 51.179688 -8.21875 53.378906 -9.28125 55.203125 -10.65625 C 57.035156 -12.03125 58.453125 -13.648438 59.453125 -15.515625 C 60.453125 -17.390625 60.953125 -19.488281 60.953125 -21.8125 C 60.953125 -23.800781 60.640625 -25.523438 60.015625 -26.984375 C 59.390625 -28.441406 58.203125 -29.851562 56.453125 -31.21875 C 54.710938 -32.59375 52.328125 -33.984375 49.296875 -35.390625 C 46.265625 -36.804688 42.335938 -38.429688 37.515625 -40.265625 C 27.796875 -44.003906 20.609375 -48.34375 15.953125 -53.28125 C 11.296875 -58.226562 8.96875 -64.066406 8.96875 -70.796875 C 8.96875 -74.703125 9.71875 -78.273438 11.21875 -81.515625 C 12.71875 -84.753906 14.816406 -87.535156 17.515625 -89.859375 C 20.210938 -92.191406 23.453125 -94 27.234375 -95.28125 C 31.015625 -96.570312 35.191406 -97.21875 39.765625 -97.21875 C 43.992188 -97.21875 47.976562 -96.550781 51.71875 -95.21875 C 55.457031 -93.894531 59.15625 -91.90625 62.8125 -89.25 L 65.0625 -95.46875 L 68.046875 -95.46875 L 69.421875 -68.546875 L 64.5625 -68.546875 C 62.570312 -75.359375 59.457031 -80.570312 55.21875 -84.1875 C 50.976562 -87.800781 46.078125 -89.609375 40.515625 -89.609375 C 35.359375 -89.609375 31.179688 -88.34375 27.984375 -85.8125 C 24.785156 -83.28125 23.1875 -80.019531 23.1875 -76.03125 C 23.1875 -74.28125 23.472656 -72.71875 24.046875 -71.34375 C 24.628906 -69.976562 25.710938 -68.671875 27.296875 -67.421875 C 28.878906 -66.179688 31.039062 -64.914062 33.78125 -63.625 C 36.519531 -62.34375 40.050781 -60.910156 44.375 -59.328125 C 50.1875 -57.085938 55.148438 -54.820312 59.265625 -52.53125 C 63.378906 -50.25 66.742188 -47.796875 69.359375 -45.171875 C 71.972656 -42.554688 73.90625 -39.796875 75.15625 -36.890625 C 76.40625 -33.984375 77.03125 -30.785156 77.03125 -27.296875 C 77.03125 -23.054688 76.113281 -19.191406 74.28125 -15.703125 C 72.457031 -12.210938 69.90625 -9.21875 66.625 -6.71875 C 63.34375 -4.226562 59.4375 -2.273438 54.90625 -0.859375 C 50.375 0.546875 45.367188 1.25 39.890625 1.25 C 34.898438 1.25 30.410156 0.566406 26.421875 -0.796875 C 22.429688 -2.171875 18.316406 -4.398438 14.078125 -7.484375 L 11.59375 0 L 8.59375 0 Z M 6.734375 -31.78125 "/></g></g><g style="fill:#ffffff;fill-opacity:1;"><g transform="translate(1031.835887, 376.103521)"><path style="stroke:none" d="M 90.234375 0 L 4.359375 0 L 4.359375 -4.984375 C 7.097656 -5.066406 9.335938 -5.316406 11.078125 -5.734375 C 12.828125 -6.148438 14.160156 -6.851562 15.078125 -7.84375 C 15.992188 -8.84375 16.617188 -10.253906 16.953125 -12.078125 C 17.285156 -13.910156 17.453125 -16.28125 17.453125 -19.1875 L 17.453125 -76.78125 C 17.453125 -79.6875 17.304688 -82.03125 17.015625 -83.8125 C 16.722656 -85.601562 16.160156 -87.015625 15.328125 -88.046875 C 14.492188 -89.085938 13.304688 -89.796875 11.765625 -90.171875 C 10.234375 -90.546875 8.222656 -90.816406 5.734375 -90.984375 L 5.734375 -95.96875 L 48.734375 -95.96875 L 48.734375 -90.984375 C 45.910156 -90.898438 43.644531 -90.648438 41.9375 -90.234375 C 40.238281 -89.816406 38.929688 -89.066406 38.015625 -87.984375 C 37.097656 -86.910156 36.492188 -85.414062 36.203125 -83.5 C 35.910156 -81.59375 35.765625 -79.0625 35.765625 -75.90625 L 35.765625 -23.6875 C 35.765625 -20.195312 36.117188 -17.347656 36.828125 -15.140625 C 37.535156 -12.941406 38.757812 -11.238281 40.5 -10.03125 C 42.25 -8.820312 44.578125 -7.988281 47.484375 -7.53125 C 50.390625 -7.082031 54.003906 -6.859375 58.328125 -6.859375 C 63.148438 -6.859375 67.179688 -7.144531 70.421875 -7.71875 C 73.660156 -8.300781 76.378906 -9.40625 78.578125 -11.03125 C 80.785156 -12.65625 82.550781 -14.835938 83.875 -17.578125 C 85.207031 -20.316406 86.332031 -23.890625 87.25 -28.296875 L 92.234375 -28.296875 Z M 90.234375 0 "/></g></g><g style="fill:#ffffff;fill-opacity:1;"><g transform="translate(1125.936072, 376.103521)"><path style="stroke:none" d="M 62.4375 -29.046875 L 27.171875 -29.046875 C 23.265625 -20.234375 21.3125 -14.125 21.3125 -10.71875 C 21.3125 -8.226562 22.242188 -6.648438 24.109375 -5.984375 C 25.984375 -5.316406 28.789062 -4.984375 32.53125 -4.984375 L 32.53125 0 L -1.625 0 L -1.625 -4.984375 C 0.375 -5.234375 2.097656 -5.566406 3.546875 -5.984375 C 5.003906 -6.398438 6.289062 -6.976562 7.40625 -7.71875 C 8.53125 -8.46875 9.507812 -9.445312 10.34375 -10.65625 C 11.175781 -11.863281 11.96875 -13.335938 12.71875 -15.078125 L 45.5 -97.21875 L 54.71875 -97.21875 L 84.5 -24.421875 C 86.25 -20.191406 87.722656 -16.867188 88.921875 -14.453125 C 90.128906 -12.046875 91.421875 -10.195312 92.796875 -8.90625 C 94.171875 -7.625 95.75 -6.734375 97.53125 -6.234375 C 99.320312 -5.734375 101.628906 -5.359375 104.453125 -5.109375 L 104.453125 0 L 57.328125 0 L 57.328125 -5.109375 C 61.316406 -5.273438 64.179688 -5.691406 65.921875 -6.359375 C 67.671875 -7.023438 68.546875 -8.351562 68.546875 -10.34375 C 68.546875 -11.507812 68.253906 -13.003906 67.671875 -14.828125 C 67.097656 -16.660156 66.3125 -18.90625 65.3125 -21.5625 Z M 30.03125 -36.515625 L 59.703125 -36.515625 L 45.375 -74.28125 L 44.875 -74.28125 Z M 30.03125 -36.515625 "/></g></g><g style="fill:#ffffff;fill-opacity:1;"><g transform="translate(1226.766621, 376.103521)"><path style="stroke:none" d="M 72.421875 -23.3125 L 101.203125 -95.96875 L 137.609375 -95.96875 L 137.609375 -90.984375 C 134.859375 -90.984375 132.628906 -90.710938 130.921875 -90.171875 C 129.222656 -89.640625 127.914062 -88.664062 127 -87.25 C 126.09375 -85.832031 125.492188 -83.898438 125.203125 -81.453125 C 124.910156 -79.003906 124.765625 -75.910156 124.765625 -72.171875 L 124.765625 -23.8125 C 124.765625 -19.65625 124.929688 -16.367188 125.265625 -13.953125 C 125.597656 -11.546875 126.257812 -9.675781 127.25 -8.34375 C 128.25 -7.019531 129.679688 -6.148438 131.546875 -5.734375 C 133.421875 -5.316406 135.894531 -5.066406 138.96875 -4.984375 L 138.96875 0 L 92.109375 0 L 92.109375 -4.984375 C 95.179688 -5.066406 97.648438 -5.335938 99.515625 -5.796875 C 101.390625 -6.253906 102.847656 -7.101562 103.890625 -8.34375 C 104.929688 -9.59375 105.613281 -11.359375 105.9375 -13.640625 C 106.269531 -15.929688 106.4375 -19.03125 106.4375 -22.9375 L 106.4375 -81.265625 L 105.8125 -81.265625 L 72.296875 1.25 L 63.0625 1.25 L 28.421875 -81.265625 L 27.921875 -81.265625 L 27.921875 -23.8125 C 27.921875 -19.65625 28.085938 -16.367188 28.421875 -13.953125 C 28.753906 -11.546875 29.414062 -9.675781 30.40625 -8.34375 C 31.40625 -7.019531 32.835938 -6.148438 34.703125 -5.734375 C 36.578125 -5.316406 39.050781 -5.066406 42.125 -4.984375 L 42.125 0 L 3.734375 0 L 3.734375 -4.984375 C 6.804688 -5.066406 9.296875 -5.335938 11.203125 -5.796875 C 13.117188 -6.253906 14.597656 -7.101562 15.640625 -8.34375 C 16.679688 -9.59375 17.367188 -11.359375 17.703125 -13.640625 C 18.035156 -15.929688 18.203125 -19.03125 18.203125 -22.9375 L 18.203125 -73.046875 C 18.203125 -76.535156 18.035156 -79.441406 17.703125 -81.765625 C 17.367188 -84.085938 16.742188 -85.9375 15.828125 -87.3125 C 14.910156 -88.6875 13.597656 -89.640625 11.890625 -90.171875 C 10.191406 -90.710938 7.929688 -90.984375 5.109375 -90.984375 L 5.109375 -95.96875 L 42.875 -95.96875 L 71.921875 -23.3125 Z M 72.421875 -23.3125 "/></g></g><g style="fill:#ffffff;fill-opacity:1;"><g transform="translate(591.884034, 202.150043)"><path style="stroke:none" d="M 32.640625 0 L 2.984375 0 L 2.984375 -3.328125 C 4.867188 -3.378906 6.378906 -3.554688 7.515625 -3.859375 C 8.648438 -4.160156 9.519531 -4.726562 10.125 -5.5625 C 10.738281 -6.394531 11.15625 -7.570312 11.375 -9.09375 C 11.601562 -10.613281 11.71875 -12.675781 11.71875 -15.28125 L 11.71875 -48.671875 C 11.71875 -50.992188 11.617188 -52.914062 11.421875 -54.4375 C 11.222656 -55.96875 10.847656 -57.175781 10.296875 -58.0625 C 9.742188 -58.945312 8.953125 -59.566406 7.921875 -59.921875 C 6.898438 -60.285156 5.535156 -60.523438 3.828125 -60.640625 L 3.828125 -63.953125 L 31.8125 -63.953125 L 31.8125 -60.640625 C 30.09375 -60.523438 28.722656 -60.285156 27.703125 -59.921875 C 26.679688 -59.566406 25.890625 -58.945312 25.328125 -58.0625 C 24.773438 -57.175781 24.398438 -55.96875 24.203125 -54.4375 C 24.015625 -52.914062 23.921875 -50.992188 23.921875 -48.671875 L 23.921875 -15.28125 C 23.921875 -12.675781 24.015625 -10.613281 24.203125 -9.09375 C 24.398438 -7.570312 24.816406 -6.394531 25.453125 -5.5625 C 26.085938 -4.726562 26.972656 -4.160156 28.109375 -3.859375 C 29.242188 -3.554688 30.753906 -3.378906 32.640625 -3.328125 Z M 32.640625 0 "/></g></g><g style="fill:#ffffff;fill-opacity:1;"><g transform="translate(627.515906, 202.150043)"><path style="stroke:none" d="M 20.515625 -13.625 C 20.515625 -11.40625 20.597656 -9.628906 20.765625 -8.296875 C 20.929688 -6.972656 21.265625 -5.953125 21.765625 -5.234375 C 22.265625 -4.515625 22.984375 -4.03125 23.921875 -3.78125 C 24.859375 -3.53125 26.132812 -3.378906 27.75 -3.328125 L 27.75 0 L 1.578125 0 L 1.578125 -3.328125 C 3.128906 -3.378906 4.390625 -3.554688 5.359375 -3.859375 C 6.328125 -4.160156 7.070312 -4.65625 7.59375 -5.34375 C 8.125 -6.039062 8.484375 -7.015625 8.671875 -8.265625 C 8.867188 -9.515625 8.96875 -11.109375 8.96875 -13.046875 L 8.96875 -47.34375 C 8.96875 -50.550781 8.910156 -53.191406 8.796875 -55.265625 C 8.691406 -57.347656 8.554688 -58.78125 8.390625 -59.5625 C 8.109375 -60.9375 7.484375 -61.847656 6.515625 -62.296875 C 5.546875 -62.742188 3.789062 -62.96875 1.25 -62.96875 L 1.25 -65.78125 L 20.515625 -68.9375 Z M 20.515625 -13.625 "/></g></g><g style="fill:#ffffff;fill-opacity:1;"><g transform="translate(657.001505, 202.150043)"><path style="stroke:none" d="M 21.4375 -13.703125 C 21.4375 -11.378906 21.488281 -9.550781 21.59375 -8.21875 C 21.707031 -6.894531 22.007812 -5.882812 22.5 -5.1875 C 23 -4.5 23.71875 -4.039062 24.65625 -3.8125 C 25.601562 -3.59375 26.910156 -3.429688 28.578125 -3.328125 L 28.578125 0 L 2.328125 0 L 2.328125 -3.328125 C 3.984375 -3.429688 5.3125 -3.59375 6.3125 -3.8125 C 7.3125 -4.039062 8.054688 -4.484375 8.546875 -5.140625 C 9.046875 -5.804688 9.378906 -6.765625 9.546875 -8.015625 C 9.710938 -9.265625 9.796875 -10.941406 9.796875 -13.046875 L 9.796875 -23.34375 C 9.796875 -26.5 9.753906 -29.128906 9.671875 -31.234375 C 9.585938 -33.335938 9.4375 -34.773438 9.21875 -35.546875 C 9.050781 -36.265625 8.84375 -36.832031 8.59375 -37.25 C 8.34375 -37.664062 7.953125 -38 7.421875 -38.25 C 6.898438 -38.5 6.222656 -38.664062 5.390625 -38.75 C 4.566406 -38.832031 3.488281 -38.875 2.15625 -38.875 L 2.15625 -41.703125 L 18.1875 -44.859375 L 19.1875 -37.625 L 19.6875 -37.625 C 22.007812 -40.226562 24.347656 -42.082031 26.703125 -43.1875 C 29.054688 -44.300781 31.785156 -44.859375 34.890625 -44.859375 C 38.546875 -44.859375 41.5625 -44.21875 43.9375 -42.9375 C 46.320312 -41.664062 48.125 -39.84375 49.34375 -37.46875 L 49.671875 -37.46875 C 51.660156 -39.789062 54.039062 -41.601562 56.8125 -42.90625 C 59.582031 -44.207031 62.546875 -44.859375 65.703125 -44.859375 C 69.023438 -44.859375 71.914062 -44.441406 74.375 -43.609375 C 76.84375 -42.773438 78.769531 -41.582031 80.15625 -40.03125 C 81.257812 -38.757812 82.070312 -37.097656 82.59375 -35.046875 C 83.125 -33.003906 83.390625 -30.15625 83.390625 -26.5 L 83.390625 -13.703125 C 83.390625 -11.429688 83.457031 -9.628906 83.59375 -8.296875 C 83.738281 -6.972656 84.0625 -5.953125 84.5625 -5.234375 C 85.0625 -4.515625 85.78125 -4.039062 86.71875 -3.8125 C 87.65625 -3.59375 88.957031 -3.429688 90.625 -3.328125 L 90.625 0 L 64.375 0 L 64.375 -3.328125 C 66.03125 -3.378906 67.34375 -3.53125 68.3125 -3.78125 C 69.28125 -4.03125 70.023438 -4.5 70.546875 -5.1875 C 71.078125 -5.882812 71.410156 -6.84375 71.546875 -8.0625 C 71.691406 -9.28125 71.765625 -10.941406 71.765625 -13.046875 L 71.765625 -23.921875 C 71.765625 -26.796875 71.597656 -29.226562 71.265625 -31.21875 C 70.929688 -33.21875 70.40625 -34.828125 69.6875 -36.046875 C 68.96875 -37.265625 68.007812 -38.132812 66.8125 -38.65625 C 65.625 -39.1875 64.175781 -39.453125 62.46875 -39.453125 C 60.53125 -39.453125 58.9375 -38.976562 57.6875 -38.03125 C 56.4375 -37.09375 55.398438 -35.878906 54.578125 -34.390625 C 53.128906 -31.785156 52.40625 -28.546875 52.40625 -24.671875 L 52.40625 -13.703125 C 52.40625 -11.429688 52.460938 -9.628906 52.578125 -8.296875 C 52.691406 -6.972656 52.992188 -5.953125 53.484375 -5.234375 C 53.984375 -4.515625 54.71875 -4.039062 55.6875 -3.8125 C 56.65625 -3.59375 58 -3.429688 59.71875 -3.328125 L 59.71875 0 L 33.390625 0 L 33.390625 -3.328125 C 35.054688 -3.429688 36.375 -3.59375 37.34375 -3.8125 C 38.3125 -4.039062 39.054688 -4.484375 39.578125 -5.140625 C 40.109375 -5.804688 40.441406 -6.765625 40.578125 -8.015625 C 40.710938 -9.265625 40.78125 -10.941406 40.78125 -13.046875 L 40.78125 -23.921875 C 40.78125 -26.796875 40.613281 -29.226562 40.28125 -31.21875 C 39.945312 -33.21875 39.40625 -34.828125 38.65625 -36.046875 C 37.914062 -37.265625 36.9375 -38.132812 35.71875 -38.65625 C 34.5 -39.1875 32.972656 -39.453125 31.140625 -39.453125 C 29.316406 -39.453125 27.804688 -39.007812 26.609375 -38.125 C 25.421875 -37.238281 24.441406 -36.046875 23.671875 -34.546875 C 22.953125 -33.222656 22.398438 -31.703125 22.015625 -29.984375 C 21.628906 -28.265625 21.4375 -26.492188 21.4375 -24.671875 Z M 21.4375 -13.703125 "/></g></g><g style="fill:#ffffff;fill-opacity:1;"><g transform="translate(748.863658, 202.150043)"><path style="stroke:none" d="M 38.625 -30.40625 C 38.625 -32.613281 38.566406 -34.367188 38.453125 -35.671875 C 38.347656 -36.972656 38.046875 -37.96875 37.546875 -38.65625 C 37.046875 -39.351562 36.3125 -39.828125 35.34375 -40.078125 C 34.375 -40.328125 33.054688 -40.535156 31.390625 -40.703125 L 31.390625 -44.015625 L 50.171875 -44.015625 L 50.171875 -18.859375 C 50.171875 -15.472656 50.210938 -12.828125 50.296875 -10.921875 C 50.378906 -9.015625 50.53125 -7.585938 50.75 -6.640625 C 50.914062 -5.921875 51.109375 -5.351562 51.328125 -4.9375 C 51.554688 -4.519531 51.914062 -4.1875 52.40625 -3.9375 C 52.90625 -3.695312 53.582031 -3.535156 54.4375 -3.453125 C 55.300781 -3.367188 56.425781 -3.328125 57.8125 -3.328125 L 57.8125 -0.078125 L 41.28125 0.90625 L 40.375 -6.484375 L 40.03125 -6.484375 C 38.59375 -4.148438 36.570312 -2.347656 33.96875 -1.078125 C 31.363281 0.191406 28.457031 0.828125 25.25 0.828125 C 19.320312 0.828125 14.8125 -1.273438 11.71875 -5.484375 C 9.332031 -8.691406 8.140625 -13.257812 8.140625 -19.1875 L 8.140625 -30.40625 C 8.140625 -32.675781 8.082031 -34.457031 7.96875 -35.75 C 7.863281 -37.050781 7.570312 -38.035156 7.09375 -38.703125 C 6.625 -39.367188 5.921875 -39.828125 4.984375 -40.078125 C 4.046875 -40.328125 2.742188 -40.535156 1.078125 -40.703125 L 1.078125 -44.015625 L 19.6875 -44.015625 L 19.6875 -20.515625 C 19.6875 -14.921875 20.378906 -10.863281 21.765625 -8.34375 C 23.148438 -5.820312 25.363281 -4.5625 28.40625 -4.5625 C 31.675781 -4.5625 34.195312 -6.054688 35.96875 -9.046875 C 37.738281 -11.929688 38.625 -16.171875 38.625 -21.765625 Z M 38.625 -30.40625 "/></g></g><g style="fill:#ffffff;fill-opacity:1;"><g transform="translate(807.751794, 202.150043)"><path style="stroke:none" d=""/></g></g><g style="fill:#ffffff;fill-opacity:1;"><g transform="translate(829.845204, 202.150043)"><path style="stroke:none" d="M 29.5625 -39.28125 C 31.945312 -41.113281 33.675781 -43 34.75 -44.9375 C 35.832031 -46.875 36.375 -48.976562 36.375 -51.25 C 36.375 -53.570312 35.804688 -55.425781 34.671875 -56.8125 C 33.535156 -58.195312 32 -58.890625 30.0625 -58.890625 C 26.519531 -58.890625 24.75 -56.367188 24.75 -51.328125 C 24.75 -49.171875 25.164062 -47.066406 26 -45.015625 C 26.832031 -42.972656 28.019531 -41.0625 29.5625 -39.28125 Z M 23.421875 -29.40625 C 20.597656 -27.519531 18.4375 -25.300781 16.9375 -22.75 C 15.445312 -20.207031 14.703125 -17.582031 14.703125 -14.875 C 14.703125 -12.039062 15.585938 -9.722656 17.359375 -7.921875 C 19.128906 -6.128906 21.375 -5.234375 24.09375 -5.234375 C 26.25 -5.234375 28.570312 -5.742188 31.0625 -6.765625 C 33.550781 -7.796875 35.929688 -9.222656 38.203125 -11.046875 Z M 45.765625 -18.609375 C 47.097656 -20.097656 48.332031 -21.585938 49.46875 -23.078125 C 50.601562 -24.578125 51.582031 -25.976562 52.40625 -27.28125 C 53.238281 -28.582031 53.875 -29.757812 54.3125 -30.8125 C 54.757812 -31.863281 54.984375 -32.722656 54.984375 -33.390625 C 54.984375 -34.273438 54.582031 -34.910156 53.78125 -35.296875 C 52.976562 -35.691406 51.609375 -35.890625 49.671875 -35.890625 L 49.671875 -39.203125 L 69.765625 -39.203125 L 69.765625 -35.890625 C 68.492188 -35.890625 67.398438 -35.773438 66.484375 -35.546875 C 65.578125 -35.328125 64.75 -35.007812 64 -34.59375 C 63.25 -34.175781 62.566406 -33.648438 61.953125 -33.015625 C 61.347656 -32.378906 60.742188 -31.617188 60.140625 -30.734375 L 48.59375 -14.703125 C 50.863281 -11.816406 53.300781 -9.546875 55.90625 -7.890625 C 58.507812 -6.234375 61.023438 -5.40625 63.453125 -5.40625 C 65.003906 -5.40625 66.222656 -5.664062 67.109375 -6.1875 C 67.992188 -6.71875 68.910156 -7.753906 69.859375 -9.296875 L 72.015625 -8.71875 C 71.398438 -5.613281 69.984375 -3.242188 67.765625 -1.609375 C 65.554688 0.015625 62.679688 0.828125 59.140625 0.828125 C 57.703125 0.828125 56.332031 0.660156 55.03125 0.328125 C 53.726562 -0.00390625 52.394531 -0.53125 51.03125 -1.25 C 49.675781 -1.96875 48.25 -2.894531 46.75 -4.03125 C 45.257812 -5.164062 43.601562 -6.507812 41.78125 -8.0625 C 38.957031 -5.394531 35.617188 -3.242188 31.765625 -1.609375 C 27.921875 0.015625 24.003906 0.828125 20.015625 0.828125 C 17.359375 0.828125 14.90625 0.457031 12.65625 -0.28125 C 10.414062 -1.03125 8.476562 -2.054688 6.84375 -3.359375 C 5.21875 -4.660156 3.945312 -6.210938 3.03125 -8.015625 C 2.113281 -9.816406 1.65625 -11.769531 1.65625 -13.875 C 1.65625 -17.582031 3.164062 -21.023438 6.1875 -24.203125 C 9.207031 -27.390625 14.007812 -30.617188 20.59375 -33.890625 C 18.769531 -36.492188 17.425781 -38.929688 16.5625 -41.203125 C 15.707031 -43.472656 15.28125 -45.851562 15.28125 -48.34375 C 15.28125 -50.78125 15.664062 -53.007812 16.4375 -55.03125 C 17.21875 -57.050781 18.3125 -58.78125 19.71875 -60.21875 C 21.132812 -61.65625 22.828125 -62.773438 24.796875 -63.578125 C 26.765625 -64.378906 28.9375 -64.78125 31.3125 -64.78125 C 33.414062 -64.78125 35.351562 -64.476562 37.125 -63.875 C 38.894531 -63.269531 40.414062 -62.410156 41.6875 -61.296875 C 42.96875 -60.191406 43.96875 -58.890625 44.6875 -57.390625 C 45.40625 -55.898438 45.765625 -54.238281 45.765625 -52.40625 C 45.765625 -49.414062 44.710938 -46.578125 42.609375 -43.890625 C 40.503906 -41.210938 37.128906 -38.347656 32.484375 -35.296875 Z M 45.765625 -18.609375 "/></g></g><g style="fill:#ffffff;fill-opacity:1;"><g transform="translate(903.849867, 202.150043)"><path style="stroke:none" d=""/></g></g><g style="fill:#ffffff;fill-opacity:1;"><g transform="translate(923.534271, 202.150043)"><path style="stroke:none" d="M 67.703125 -45.6875 L 64.125 -45.6875 C 63.957031 -48.394531 63.554688 -50.648438 62.921875 -52.453125 C 62.285156 -54.253906 61.382812 -55.691406 60.21875 -56.765625 C 59.050781 -57.847656 57.640625 -58.597656 55.984375 -59.015625 C 54.328125 -59.429688 52.390625 -59.640625 50.171875 -59.640625 C 48.015625 -59.640625 46.285156 -59.597656 44.984375 -59.515625 C 43.679688 -59.429688 42.679688 -59.289062 41.984375 -59.09375 C 41.296875 -58.90625 40.835938 -58.644531 40.609375 -58.3125 C 40.390625 -57.976562 40.28125 -57.5625 40.28125 -57.0625 L 40.28125 -13.546875 C 40.28125 -11.765625 40.40625 -10.238281 40.65625 -8.96875 C 40.90625 -7.695312 41.414062 -6.660156 42.1875 -5.859375 C 42.96875 -5.054688 44.101562 -4.445312 45.59375 -4.03125 C 47.09375 -3.613281 49.0625 -3.378906 51.5 -3.328125 L 51.5 0 L 16.703125 0 L 16.703125 -3.328125 C 19.191406 -3.378906 21.179688 -3.613281 22.671875 -4.03125 C 24.171875 -4.445312 25.320312 -5.054688 26.125 -5.859375 C 26.925781 -6.660156 27.453125 -7.695312 27.703125 -8.96875 C 27.953125 -10.238281 28.078125 -11.765625 28.078125 -13.546875 L 28.078125 -57.0625 C 28.078125 -57.5625 27.976562 -57.976562 27.78125 -58.3125 C 27.59375 -58.644531 27.191406 -58.90625 26.578125 -59.09375 C 25.972656 -59.289062 25.101562 -59.429688 23.96875 -59.515625 C 22.832031 -59.597656 21.347656 -59.640625 19.515625 -59.640625 C 17.523438 -59.640625 15.613281 -59.539062 13.78125 -59.34375 C 11.957031 -59.15625 10.351562 -58.601562 8.96875 -57.6875 C 7.582031 -56.769531 6.457031 -55.382812 5.59375 -53.53125 C 4.738281 -51.675781 4.285156 -49.0625 4.234375 -45.6875 L 1 -45.6875 L 1.828125 -63.953125 L 66.859375 -63.953125 Z M 67.703125 -45.6875 "/></g></g><g style="fill:#ffffff;fill-opacity:1;"><g transform="translate(985.49457, 202.150043)"><path style="stroke:none" d="M 44.859375 -7.71875 C 39.816406 -2.019531 33.53125 0.828125 26 0.828125 C 22.5625 0.828125 19.441406 0.289062 16.640625 -0.78125 C 13.847656 -1.863281 11.457031 -3.390625 9.46875 -5.359375 C 7.476562 -7.328125 5.925781 -9.664062 4.8125 -12.375 C 3.707031 -15.09375 3.15625 -18.113281 3.15625 -21.4375 C 3.15625 -24.863281 3.734375 -28.003906 4.890625 -30.859375 C 6.054688 -33.710938 7.707031 -36.175781 9.84375 -38.25 C 11.976562 -40.320312 14.5 -41.941406 17.40625 -43.109375 C 20.3125 -44.273438 23.507812 -44.859375 27 -44.859375 C 32.863281 -44.859375 37.425781 -43.28125 40.6875 -40.125 C 43.957031 -36.96875 45.59375 -32.535156 45.59375 -26.828125 C 45.59375 -25.941406 45.453125 -25.398438 45.171875 -25.203125 C 44.898438 -25.015625 44.128906 -24.921875 42.859375 -24.921875 L 16.109375 -24.921875 C 15.890625 -24.421875 15.78125 -23.503906 15.78125 -22.171875 C 15.78125 -16.742188 16.957031 -12.453125 19.3125 -9.296875 C 21.664062 -6.140625 24.863281 -4.5625 28.90625 -4.5625 C 31.226562 -4.5625 33.535156 -5.085938 35.828125 -6.140625 C 38.128906 -7.191406 40.363281 -8.6875 42.53125 -10.625 Z M 28.734375 -29.5625 C 30.953125 -29.5625 32.378906 -29.6875 33.015625 -29.9375 C 33.648438 -30.1875 33.96875 -30.785156 33.96875 -31.734375 C 33.96875 -34.171875 33.273438 -36.160156 31.890625 -37.703125 C 30.503906 -39.253906 28.757812 -40.03125 26.65625 -40.03125 C 24.28125 -40.03125 22.164062 -39.046875 20.3125 -37.078125 C 18.457031 -35.117188 17.253906 -32.613281 16.703125 -29.5625 Z M 28.734375 -29.5625 "/></g></g><g style="fill:#ffffff;fill-opacity:1;"><g transform="translate(1034.083478, 202.150043)"><path style="stroke:none" d="M 29.734375 -3.328125 C 31.503906 -3.328125 32.75 -3.394531 33.46875 -3.53125 C 34.1875 -3.664062 34.546875 -3.957031 34.546875 -4.40625 C 34.546875 -4.738281 34.171875 -5.550781 33.421875 -6.84375 C 32.679688 -8.144531 31.726562 -9.65625 30.5625 -11.375 L 24.25 -20.84375 L 20.09375 -16.859375 L 20.09375 -13.625 C 20.09375 -11.457031 20.175781 -9.707031 20.34375 -8.375 C 20.507812 -7.050781 20.800781 -6.015625 21.21875 -5.265625 C 21.632812 -4.523438 22.21875 -4.015625 22.96875 -3.734375 C 23.71875 -3.460938 24.671875 -3.328125 25.828125 -3.328125 L 25.828125 0 L 1.328125 0 L 1.328125 -3.328125 C 2.878906 -3.378906 4.125 -3.539062 5.0625 -3.8125 C 6.007812 -4.09375 6.757812 -4.578125 7.3125 -5.265625 C 7.863281 -5.960938 8.234375 -6.929688 8.421875 -8.171875 C 8.617188 -9.421875 8.71875 -11.046875 8.71875 -13.046875 L 8.71875 -48.265625 C 8.71875 -51.640625 8.660156 -54.296875 8.546875 -56.234375 C 8.441406 -58.171875 8.15625 -59.625 7.6875 -60.59375 C 7.21875 -61.5625 6.492188 -62.15625 5.515625 -62.375 C 4.546875 -62.601562 3.234375 -62.71875 1.578125 -62.71875 L 1.578125 -65.78125 L 20.09375 -68.9375 L 20.09375 -22.765625 L 28.078125 -30.3125 C 30.953125 -33.03125 33 -35.066406 34.21875 -36.421875 C 35.4375 -37.773438 36.046875 -38.757812 36.046875 -39.375 C 36.046875 -39.875 35.53125 -40.21875 34.5 -40.40625 C 33.476562 -40.601562 31.585938 -40.703125 28.828125 -40.703125 L 28.828125 -44.015625 L 51.5 -44.015625 L 51.5 -40.703125 C 49.394531 -40.703125 47.539062 -40.34375 45.9375 -39.625 C 44.332031 -38.90625 42.585938 -37.660156 40.703125 -35.890625 L 32.640625 -28.328125 L 47.015625 -7.96875 C 48.285156 -6.195312 49.53125 -4.976562 50.75 -4.3125 C 51.96875 -3.65625 53.570312 -3.328125 55.5625 -3.328125 L 55.5625 0 L 29.734375 0 Z M 29.734375 -3.328125 "/></g></g><g style="fill:#ffffff;fill-opacity:1;"><g transform="translate(1089.234014, 202.150043)"><path style="stroke:none" d="M 21.34375 -13.546875 C 21.34375 -11.273438 21.410156 -9.488281 21.546875 -8.1875 C 21.691406 -6.882812 22 -5.882812 22.46875 -5.1875 C 22.9375 -4.5 23.65625 -4.039062 24.625 -3.8125 C 25.59375 -3.59375 26.910156 -3.429688 28.578125 -3.328125 L 28.578125 0 L 2.40625 0 L 2.40625 -3.328125 C 4.007812 -3.429688 5.296875 -3.59375 6.265625 -3.8125 C 7.234375 -4.039062 7.976562 -4.484375 8.5 -5.140625 C 9.03125 -5.804688 9.378906 -6.75 9.546875 -7.96875 C 9.710938 -9.1875 9.796875 -10.847656 9.796875 -12.953125 L 9.796875 -23.34375 C 9.796875 -26.601562 9.738281 -29.242188 9.625 -31.265625 C 9.519531 -33.296875 9.382812 -34.671875 9.21875 -35.390625 C 9.050781 -36.109375 8.828125 -36.703125 8.546875 -37.171875 C 8.273438 -37.640625 7.863281 -38 7.3125 -38.25 C 6.757812 -38.5 6.066406 -38.664062 5.234375 -38.75 C 4.398438 -38.832031 3.347656 -38.875 2.078125 -38.875 L 2.078125 -41.703125 L 18.109375 -44.859375 L 19.1875 -37.546875 L 19.515625 -37.546875 C 21.347656 -39.867188 23.507812 -41.664062 26 -42.9375 C 28.488281 -44.21875 31.226562 -44.859375 34.21875 -44.859375 C 37.757812 -44.859375 40.625 -44.375 42.8125 -43.40625 C 45 -42.4375 46.953125 -40.816406 48.671875 -38.546875 C 49.617188 -37.265625 50.453125 -35.613281 51.171875 -33.59375 C 51.890625 -31.570312 52.25 -28.789062 52.25 -25.25 L 52.25 -13.546875 C 52.25 -11.273438 52.316406 -9.488281 52.453125 -8.1875 C 52.585938 -6.882812 52.890625 -5.882812 53.359375 -5.1875 C 53.835938 -4.5 54.546875 -4.039062 55.484375 -3.8125 C 56.421875 -3.59375 57.695312 -3.429688 59.3125 -3.328125 L 59.3125 0 L 33.3125 0 L 33.3125 -3.328125 C 34.96875 -3.378906 36.28125 -3.53125 37.25 -3.78125 C 38.21875 -4.03125 38.953125 -4.484375 39.453125 -5.140625 C 39.953125 -5.804688 40.285156 -6.765625 40.453125 -8.015625 C 40.617188 -9.265625 40.703125 -10.910156 40.703125 -12.953125 L 40.703125 -24.25 C 40.703125 -27.070312 40.535156 -29.453125 40.203125 -31.390625 C 39.867188 -33.335938 39.328125 -34.90625 38.578125 -36.09375 C 37.835938 -37.28125 36.859375 -38.132812 35.640625 -38.65625 C 34.421875 -39.1875 32.894531 -39.453125 31.0625 -39.453125 C 29.289062 -39.453125 27.769531 -38.953125 26.5 -37.953125 C 25.226562 -36.960938 24.117188 -35.582031 23.171875 -33.8125 C 22.671875 -32.8125 22.238281 -31.519531 21.875 -29.9375 C 21.519531 -28.363281 21.34375 -26.71875 21.34375 -25 Z M 21.34375 -13.546875 "/></g></g><g style="fill:#ffffff;fill-opacity:1;"><g transform="translate(1149.617198, 202.150043)"><path style="stroke:none" d="M 27.25 -44.859375 C 30.570312 -44.859375 33.710938 -44.289062 36.671875 -43.15625 C 39.628906 -42.019531 42.226562 -40.453125 44.46875 -38.453125 C 46.71875 -36.460938 48.492188 -34.097656 49.796875 -31.359375 C 51.097656 -28.617188 51.75 -25.613281 51.75 -22.34375 C 51.75 -18.96875 51.097656 -15.863281 49.796875 -13.03125 C 48.492188 -10.207031 46.71875 -7.769531 44.46875 -5.71875 C 42.226562 -3.675781 39.628906 -2.070312 36.671875 -0.90625 C 33.710938 0.25 30.570312 0.828125 27.25 0.828125 C 23.976562 0.828125 20.875 0.257812 17.9375 -0.875 C 15.007812 -2.007812 12.4375 -3.597656 10.21875 -5.640625 C 8 -7.691406 6.253906 -10.144531 4.984375 -13 C 3.710938 -15.851562 3.078125 -18.96875 3.078125 -22.34375 C 3.078125 -25.613281 3.710938 -28.628906 4.984375 -31.390625 C 6.253906 -34.160156 8 -36.539062 10.21875 -38.53125 C 12.4375 -40.53125 15.007812 -42.082031 17.9375 -43.1875 C 20.875 -44.300781 23.976562 -44.859375 27.25 -44.859375 Z M 27.25 -40.03125 C 25.582031 -40.03125 24.054688 -39.601562 22.671875 -38.75 C 21.285156 -37.894531 20.109375 -36.691406 19.140625 -35.140625 C 18.171875 -33.585938 17.421875 -31.71875 16.890625 -29.53125 C 16.367188 -27.34375 16.109375 -24.921875 16.109375 -22.265625 C 16.109375 -19.492188 16.367188 -17 16.890625 -14.78125 C 17.421875 -12.570312 18.171875 -10.691406 19.140625 -9.140625 C 20.109375 -7.585938 21.269531 -6.378906 22.625 -5.515625 C 23.988281 -4.660156 25.53125 -4.234375 27.25 -4.234375 C 28.957031 -4.234375 30.519531 -4.660156 31.9375 -5.515625 C 33.351562 -6.378906 34.554688 -7.597656 35.546875 -9.171875 C 36.546875 -10.753906 37.320312 -12.648438 37.875 -14.859375 C 38.425781 -17.078125 38.703125 -19.546875 38.703125 -22.265625 C 38.703125 -24.921875 38.425781 -27.328125 37.875 -29.484375 C 37.320312 -31.648438 36.546875 -33.519531 35.546875 -35.09375 C 34.554688 -36.675781 33.351562 -37.894531 31.9375 -38.75 C 30.519531 -39.601562 28.957031 -40.03125 27.25 -40.03125 Z M 27.25 -40.03125 "/></g></g><g style="fill:#ffffff;fill-opacity:1;"><g transform="translate(1204.435488, 202.150043)"><path style="stroke:none" d="M 20.515625 -13.625 C 20.515625 -11.40625 20.597656 -9.628906 20.765625 -8.296875 C 20.929688 -6.972656 21.265625 -5.953125 21.765625 -5.234375 C 22.265625 -4.515625 22.984375 -4.03125 23.921875 -3.78125 C 24.859375 -3.53125 26.132812 -3.378906 27.75 -3.328125 L 27.75 0 L 1.578125 0 L 1.578125 -3.328125 C 3.128906 -3.378906 4.390625 -3.554688 5.359375 -3.859375 C 6.328125 -4.160156 7.070312 -4.65625 7.59375 -5.34375 C 8.125 -6.039062 8.484375 -7.015625 8.671875 -8.265625 C 8.867188 -9.515625 8.96875 -11.109375 8.96875 -13.046875 L 8.96875 -47.34375 C 8.96875 -50.550781 8.910156 -53.191406 8.796875 -55.265625 C 8.691406 -57.347656 8.554688 -58.78125 8.390625 -59.5625 C 8.109375 -60.9375 7.484375 -61.847656 6.515625 -62.296875 C 5.546875 -62.742188 3.789062 -62.96875 1.25 -62.96875 L 1.25 -65.78125 L 20.515625 -68.9375 Z M 20.515625 -13.625 "/></g></g><g style="fill:#ffffff;fill-opacity:1;"><g transform="translate(1233.921086, 202.150043)"><path style="stroke:none" d="M 27.25 -44.859375 C 30.570312 -44.859375 33.710938 -44.289062 36.671875 -43.15625 C 39.628906 -42.019531 42.226562 -40.453125 44.46875 -38.453125 C 46.71875 -36.460938 48.492188 -34.097656 49.796875 -31.359375 C 51.097656 -28.617188 51.75 -25.613281 51.75 -22.34375 C 51.75 -18.96875 51.097656 -15.863281 49.796875 -13.03125 C 48.492188 -10.207031 46.71875 -7.769531 44.46875 -5.71875 C 42.226562 -3.675781 39.628906 -2.070312 36.671875 -0.90625 C 33.710938 0.25 30.570312 0.828125 27.25 0.828125 C 23.976562 0.828125 20.875 0.257812 17.9375 -0.875 C 15.007812 -2.007812 12.4375 -3.597656 10.21875 -5.640625 C 8 -7.691406 6.253906 -10.144531 4.984375 -13 C 3.710938 -15.851562 3.078125 -18.96875 3.078125 -22.34375 C 3.078125 -25.613281 3.710938 -28.628906 4.984375 -31.390625 C 6.253906 -34.160156 8 -36.539062 10.21875 -38.53125 C 12.4375 -40.53125 15.007812 -42.082031 17.9375 -43.1875 C 20.875 -44.300781 23.976562 -44.859375 27.25 -44.859375 Z M 27.25 -40.03125 C 25.582031 -40.03125 24.054688 -39.601562 22.671875 -38.75 C 21.285156 -37.894531 20.109375 -36.691406 19.140625 -35.140625 C 18.171875 -33.585938 17.421875 -31.71875 16.890625 -29.53125 C 16.367188 -27.34375 16.109375 -24.921875 16.109375 -22.265625 C 16.109375 -19.492188 16.367188 -17 16.890625 -14.78125 C 17.421875 -12.570312 18.171875 -10.691406 19.140625 -9.140625 C 20.109375 -7.585938 21.269531 -6.378906 22.625 -5.515625 C 23.988281 -4.660156 25.53125 -4.234375 27.25 -4.234375 C 28.957031 -4.234375 30.519531 -4.660156 31.9375 -5.515625 C 33.351562 -6.378906 34.554688 -7.597656 35.546875 -9.171875 C 36.546875 -10.753906 37.320312 -12.648438 37.875 -14.859375 C 38.425781 -17.078125 38.703125 -19.546875 38.703125 -22.265625 C 38.703125 -24.921875 38.425781 -27.328125 37.875 -29.484375 C 37.320312 -31.648438 36.546875 -33.519531 35.546875 -35.09375 C 34.554688 -36.675781 33.351562 -37.894531 31.9375 -38.75 C 30.519531 -39.601562 28.957031 -40.03125 27.25 -40.03125 Z M 27.25 -40.03125 "/></g></g><g style="fill:#ffffff;fill-opacity:1;"><g transform="translate(1288.739376, 202.150043)"><path style="stroke:none" d="M 18.9375 -8.96875 C 20.4375 -8.851562 21.753906 -8.738281 22.890625 -8.625 C 24.023438 -8.519531 25.101562 -8.398438 26.125 -8.265625 C 27.144531 -8.128906 28.164062 -7.988281 29.1875 -7.84375 C 30.21875 -7.707031 31.316406 -7.554688 32.484375 -7.390625 C 36.796875 -6.785156 40.179688 -5.164062 42.640625 -2.53125 C 45.109375 0.09375 46.34375 3.34375 46.34375 7.21875 C 46.34375 11.925781 44.40625 15.5 40.53125 17.9375 C 36.65625 20.375 30.953125 21.59375 23.421875 21.59375 C 16.503906 21.59375 11.175781 20.582031 7.4375 18.5625 C 3.695312 16.539062 1.828125 13.675781 1.828125 9.96875 C 1.828125 7.082031 2.570312 4.90625 4.0625 3.4375 C 5.5625 1.976562 7.445312 1.25 9.71875 1.25 C 11.15625 1.25 12.550781 1.535156 13.90625 2.109375 C 15.269531 2.691406 16.421875 3.539062 17.359375 4.65625 C 15.921875 4.925781 14.742188 5.570312 13.828125 6.59375 C 12.910156 7.625 12.453125 8.832031 12.453125 10.21875 C 12.453125 12.4375 13.4375 14.140625 15.40625 15.328125 C 17.375 16.515625 20.269531 17.109375 24.09375 17.109375 C 32.394531 17.109375 36.546875 14.476562 36.546875 9.21875 C 36.546875 7.332031 35.921875 5.710938 34.671875 4.359375 C 33.429688 3.003906 31.648438 2.1875 29.328125 1.90625 L 14.78125 -0.078125 C 8.632812 -0.910156 5.5625 -3.65625 5.5625 -8.3125 C 5.5625 -10.582031 6.296875 -12.4375 7.765625 -13.875 C 9.234375 -15.3125 11.320312 -16.304688 14.03125 -16.859375 L 14.03125 -17.1875 C 12.757812 -17.6875 11.609375 -18.378906 10.578125 -19.265625 C 9.554688 -20.148438 8.660156 -21.175781 7.890625 -22.34375 C 7.117188 -23.507812 6.523438 -24.769531 6.109375 -26.125 C 5.691406 -27.476562 5.484375 -28.875 5.484375 -30.3125 C 5.484375 -32.363281 5.910156 -34.289062 6.765625 -36.09375 C 7.628906 -37.894531 8.820312 -39.429688 10.34375 -40.703125 C 11.863281 -41.972656 13.660156 -42.984375 15.734375 -43.734375 C 17.816406 -44.484375 20.078125 -44.859375 22.515625 -44.859375 C 24.890625 -44.859375 27.210938 -44.492188 29.484375 -43.765625 C 31.753906 -43.046875 33.691406 -42.050781 35.296875 -40.78125 C 36.578125 -41.5625 37.6875 -42.210938 38.625 -42.734375 C 39.5625 -43.265625 40.429688 -43.679688 41.234375 -43.984375 C 42.035156 -44.285156 42.769531 -44.503906 43.4375 -44.640625 C 44.101562 -44.785156 44.769531 -44.859375 45.4375 -44.859375 C 47.539062 -44.859375 49.242188 -44.382812 50.546875 -43.4375 C 51.847656 -42.5 52.5 -41.253906 52.5 -39.703125 C 52.5 -38.535156 52.132812 -37.578125 51.40625 -36.828125 C 50.6875 -36.085938 49.75 -35.71875 48.59375 -35.71875 C 47.757812 -35.71875 47.09375 -35.894531 46.59375 -36.25 C 46.09375 -36.613281 45.609375 -37.03125 45.140625 -37.5 C 44.671875 -37.96875 44.1875 -38.378906 43.6875 -38.734375 C 43.1875 -39.097656 42.523438 -39.28125 41.703125 -39.28125 C 40.535156 -39.28125 39.425781 -38.535156 38.375 -37.046875 C 38.925781 -36.109375 39.3125 -35.097656 39.53125 -34.015625 C 39.757812 -32.929688 39.875 -31.671875 39.875 -30.234375 C 39.875 -28.128906 39.539062 -26.191406 38.875 -24.421875 C 38.207031 -22.648438 37.164062 -21.082031 35.75 -19.71875 C 34.34375 -18.363281 32.53125 -17.21875 30.3125 -16.28125 C 28.101562 -15.34375 25.421875 -14.707031 22.265625 -14.375 C 19.609375 -14.09375 17.765625 -13.726562 16.734375 -13.28125 C 15.710938 -12.84375 15.203125 -12.179688 15.203125 -11.296875 C 15.203125 -9.960938 16.445312 -9.1875 18.9375 -8.96875 Z M 22.921875 -19.109375 C 24.691406 -19.109375 26.078125 -20.046875 27.078125 -21.921875 C 28.078125 -23.804688 28.578125 -26.4375 28.578125 -29.8125 C 28.578125 -33.25 28.078125 -35.894531 27.078125 -37.75 C 26.078125 -39.601562 24.664062 -40.53125 22.84375 -40.53125 C 20.957031 -40.53125 19.460938 -39.585938 18.359375 -37.703125 C 17.253906 -35.828125 16.703125 -33.253906 16.703125 -29.984375 C 16.703125 -26.660156 17.265625 -24.015625 18.390625 -22.046875 C 19.523438 -20.085938 21.035156 -19.109375 22.921875 -19.109375 Z M 22.921875 -19.109375 "/></g></g><g style="fill:#ffffff;fill-opacity:1;"><g transform="translate(1339.404761, 202.150043)"><path style="stroke:none" d="M 21.34375 -13.625 C 21.34375 -11.40625 21.425781 -9.628906 21.59375 -8.296875 C 21.757812 -6.972656 22.09375 -5.953125 22.59375 -5.234375 C 23.09375 -4.515625 23.8125 -4.03125 24.75 -3.78125 C 25.695312 -3.53125 26.972656 -3.378906 28.578125 -3.328125 L 28.578125 0 L 2.40625 0 L 2.40625 -3.328125 C 3.957031 -3.378906 5.21875 -3.554688 6.1875 -3.859375 C 7.15625 -4.160156 7.898438 -4.65625 8.421875 -5.34375 C 8.953125 -6.039062 9.3125 -7.015625 9.5 -8.265625 C 9.695312 -9.515625 9.796875 -11.109375 9.796875 -13.046875 L 9.796875 -23.25 C 9.796875 -26.46875 9.738281 -29.113281 9.625 -31.1875 C 9.519531 -33.269531 9.382812 -34.695312 9.21875 -35.46875 C 8.9375 -36.851562 8.3125 -37.765625 7.34375 -38.203125 C 6.375 -38.648438 4.617188 -38.875 2.078125 -38.875 L 2.078125 -41.703125 L 21.34375 -44.859375 Z M 9.140625 -62.46875 C 9.140625 -64.289062 9.757812 -65.820312 11 -67.0625 C 12.25 -68.3125 13.757812 -68.9375 15.53125 -68.9375 C 17.363281 -68.9375 18.898438 -68.3125 20.140625 -67.0625 C 21.390625 -65.820312 22.015625 -64.289062 22.015625 -62.46875 C 22.015625 -60.695312 21.390625 -59.1875 20.140625 -57.9375 C 18.898438 -56.6875 17.363281 -56.0625 15.53125 -56.0625 C 13.757812 -56.0625 12.25 -56.6875 11 -57.9375 C 9.757812 -59.1875 9.140625 -60.695312 9.140625 -62.46875 Z M 9.140625 -62.46875 "/></g></g></g></svg>