<svg xmlns="http://www.w3.org/2000/svg" xmlns:xlink="http://www.w3.org/1999/xlink" width="1800" zoomAndPan="magnify" viewBox="0 0 1350 974.999993" height="1300" preserveAspectRatio="xMidYMid meet" version="1.2"><defs><clipPath id="eb895fa9f3"><path d="M 596 43.9375 L 750 43.9375 L 750 205 L 596 205 Z M 596 43.9375 "/></clipPath><clipPath id="364e989448"><path d="M 153 691 L 673 691 L 673 931.1875 L 153 931.1875 Z M 153 691 "/></clipPath><clipPath id="09359bc00a"><path d="M 15.554688 572 L 645 572 L 645 801 L 15.554688 801 Z M 15.554688 572 "/></clipPath><clipPath id="e26f134854"><path d="M 672 691 L 1192 691 L 1192 931.1875 L 672 931.1875 Z M 672 691 "/></clipPath><clipPath id="5701d5d194"><path d="M 700 572 L 1329.554688 572 L 1329.554688 801 L 700 801 Z M 700 572 "/></clipPath></defs><g id="ce970f1fb9"><g clip-rule="nonzero" clip-path="url(#eb895fa9f3)"><path style=" stroke:none;fill-rule:nonzero;fill:#dda32e;fill-opacity:1;" d="M 671.507812 43.9375 C 664.546875 47.21875 650.363281 55.234375 640.515625 71.523438 C 628.828125 90.703125 624.097656 120.523438 640.515625 145.089844 C 655.617188 167.550781 682.011719 176.222656 704.730469 173.59375 C 729.679688 170.703125 745.046875 154.808594 749.117188 150.210938 C 734.277344 187.386719 697.769531 209.195312 662.445312 204.203125 C 635.128906 200.261719 612.148438 180.953125 602.167969 155.992188 C 585.097656 113.558594 614.25 76.644531 616.21875 74.28125 C 636.441406 49.453125 664.414062 44.855469 671.507812 43.9375 Z M 671.507812 43.9375 "/></g><path style=" stroke:none;fill-rule:nonzero;fill:#dda32e;fill-opacity:1;" d="M 694.222656 67.714844 L 703.285156 95.5625 L 732.570312 95.5625 L 708.800781 112.902344 L 717.863281 140.753906 L 694.222656 123.542969 L 670.457031 140.753906 L 679.515625 112.902344 L 655.878906 95.5625 L 685.164062 95.5625 Z M 694.222656 67.714844 "/><path style=" stroke:none;fill-rule:nonzero;fill:#dda32e;fill-opacity:1;" d="M 464.410156 637.84375 L 402.691406 607.894531 L 402.691406 416.492188 L 672.164062 216.550781 L 943.34375 417.542969 L 943.34375 607.894531 L 880.4375 637.84375 L 882.144531 455.507812 L 672.949219 299.839844 L 464.410156 453.800781 Z M 464.410156 637.84375 "/><path style=" stroke:none;fill-rule:nonzero;fill:#dda32e;fill-opacity:1;" d="M 754.765625 717.191406 L 754.765625 527.496094 L 672.949219 465.753906 L 590.613281 528.023438 L 590.613281 717.191406 L 526.132812 671.34375 L 526.132812 491.238281 L 672.949219 381.417969 L 818.71875 488.347656 L 818.71875 672.394531 Z M 754.765625 717.191406 "/><g clip-rule="nonzero" clip-path="url(#364e989448)"><path style=" stroke:none;fill-rule:nonzero;fill:#dda32e;fill-opacity:1;" d="M 672.164062 859.855469 L 639.988281 931.1875 C 591.792969 895.453125 520.484375 850.660156 426.589844 817.421875 C 347.140625 789.179688 275.964844 777.75 221.730469 773.285156 C 213.585938 762.117188 204.789062 750.558594 195.203125 738.867188 C 181.019531 721.523438 166.835938 705.761719 153.179688 691.703125 C 175.636719 691.574219 206.234375 692.363281 242.347656 695.910156 C 318.25 703.527344 374.324219 719.421875 418.972656 732.429688 C 433.417969 736.632812 494.746094 754.628906 559.882812 784.449219 C 576.429688 792.070312 593.371094 800.476562 612.9375 812.957031 C 639.070312 829.902344 658.898438 847.113281 672.164062 859.855469 Z M 672.164062 859.855469 "/></g><g clip-rule="nonzero" clip-path="url(#09359bc00a)"><path style=" stroke:none;fill-rule:nonzero;fill:#dda32e;fill-opacity:1;" d="M 116.144531 652.164062 L 15.949219 575.3125 C 85.679688 570.058594 201.242188 570.191406 333.878906 613.804688 C 488.445312 664.644531 591.664062 749.769531 644.585938 800.476562 C 558.4375 745.300781 423.964844 677.253906 250.226562 657.417969 C 202.160156 651.769531 157.117188 650.585938 116.144531 652.164062 Z M 116.144531 652.164062 "/></g><g clip-rule="nonzero" clip-path="url(#e26f134854)"><path style=" stroke:none;fill-rule:nonzero;fill:#dda32e;fill-opacity:1;" d="M 672.949219 859.855469 L 705.125 931.1875 C 753.320312 895.453125 824.628906 850.660156 918.523438 817.421875 C 997.972656 789.179688 1069.148438 777.75 1123.382812 773.285156 C 1131.527344 762.117188 1140.324219 750.558594 1149.910156 738.867188 C 1164.09375 721.523438 1178.277344 705.761719 1191.933594 691.703125 C 1169.476562 691.574219 1138.878906 692.363281 1102.765625 695.910156 C 1026.863281 703.527344 970.789062 719.421875 926.140625 732.429688 C 911.691406 736.632812 850.367188 754.628906 785.230469 784.449219 C 768.683594 792.070312 751.742188 800.476562 732.175781 812.957031 C 706.042969 829.902344 686.214844 847.113281 672.949219 859.855469 Z M 672.949219 859.855469 "/></g><g clip-rule="nonzero" clip-path="url(#5701d5d194)"><path style=" stroke:none;fill-rule:nonzero;fill:#dda32e;fill-opacity:1;" d="M 1228.964844 652.164062 L 1329.164062 575.3125 C 1259.433594 570.058594 1143.871094 570.191406 1011.234375 613.804688 C 856.667969 664.644531 753.449219 749.769531 700.527344 800.476562 C 786.675781 745.300781 921.148438 677.253906 1094.886719 657.417969 C 1142.949219 651.769531 1187.996094 650.585938 1228.964844 652.164062 Z M 1228.964844 652.164062 "/></g></g></svg>