<svg width="603" height="434" viewBox="0 0 603 434" fill="none" xmlns="http://www.w3.org/2000/svg">
<path opacity="0.22" d="M620.959 58.4113C624.599 111.891 608.069 166.501 575.369 208.971C552.249 239.011 519.899 263.581 482.539 270.011C445.989 276.291 408.769 264.871 374.499 250.681C340.239 236.491 306.679 219.221 270.129 212.951C233.579 206.671 192.159 213.541 167.359 241.121C145.349 265.591 140.729 302.861 151.749 333.881C162.769 364.901 187.669 389.721 216.639 405.361C245.609 421.001 278.459 428.161 311.209 431.441C403.719 440.721 499.039 419.581 578.949 372.061C623.079 345.821 663.019 311.191 690.049 267.541C717.079 223.891 730.409 170.721 721.109 120.231C716.029 92.6713 703.729 66.4313 685.939 44.7813C676.579 33.3813 665.779 24.0113 653.979 15.2613C643.189 7.27132 634.319 -4.83866 619.049 2.03134C615.389 3.68134 612.019 6.54134 610.919 10.4013C609.529 15.2613 615.049 22.6813 616.579 27.4813C619.649 37.0913 620.279 48.3913 620.959 58.4113Z" fill="#D6CFE1"/>
<circle opacity="0.21" cx="116.5" cy="373.5" r="35.5" fill="#D6CFE1"/>
<circle opacity="0.21" cx="46" cy="374" r="18" fill="#D6CFE1"/>
<circle opacity="0.21" cx="56" cy="282" r="56" fill="#D6CFE1"/>
</svg>
