<svg width="422" height="454" viewBox="0 0 422 454" fill="none" xmlns="http://www.w3.org/2000/svg">
<path opacity="0.22" d="M-107.901 385.168C-111.541 331.688 -95.0106 277.078 -62.3106 234.608C-39.1906 204.568 -6.84064 179.998 30.5193 173.568C67.0693 167.288 104.289 178.708 138.559 192.898C172.819 207.088 206.379 224.358 242.929 230.628C279.479 236.908 320.899 230.038 345.699 202.458C367.709 177.988 372.329 140.718 361.309 109.698C350.289 78.6778 325.389 53.8578 296.419 38.2177C267.449 22.5777 234.599 15.4178 201.849 12.1378C109.339 2.85779 14.0193 23.9978 -65.8907 71.5178C-110.021 97.7578 -149.961 132.388 -176.991 176.038C-204.021 219.688 -217.351 272.858 -208.051 323.348C-202.971 350.908 -190.671 377.148 -172.881 398.798C-163.521 410.198 -152.721 419.568 -140.921 428.318C-130.131 436.308 -121.261 448.418 -105.991 441.548C-102.331 439.898 -98.9607 437.038 -97.8607 433.178C-96.4706 428.318 -101.991 420.898 -103.521 416.098C-106.591 406.488 -107.221 395.188 -107.901 385.168Z" fill="#D6CFE1"/>
<circle opacity="0.21" cx="386.5" cy="45.5" r="35.5" fill="#D6CFE1"/>
<circle opacity="0.21" cx="395" cy="117" r="18" fill="#D6CFE1"/>
</svg>
