<svg width="467" height="454" viewBox="0 0 467 454" fill="none" xmlns="http://www.w3.org/2000/svg">
<path opacity="0.22" d="M-62.9009 385.168C-66.541 331.688 -50.011 277.078 -17.311 234.608C5.80902 204.568 38.159 179.998 75.519 173.568C112.069 167.288 149.289 178.708 183.559 192.898C217.819 207.088 251.379 224.358 287.929 230.628C324.479 236.908 365.899 230.038 390.699 202.458C412.709 177.988 417.329 140.718 406.309 109.698C395.289 78.6778 370.389 53.8578 341.419 38.2177C312.449 22.5777 279.599 15.4178 246.849 12.1378C154.339 2.85779 59.019 23.9978 -20.8911 71.5178C-65.0211 97.7578 -104.961 132.388 -131.991 176.038C-159.021 219.688 -172.351 272.858 -163.051 323.348C-157.971 350.908 -145.671 377.148 -127.881 398.798C-118.521 410.198 -107.721 419.568 -95.921 428.318C-85.131 436.308 -76.261 448.418 -60.991 441.548C-57.331 439.898 -53.961 437.038 -52.861 433.178C-51.471 428.318 -56.9909 420.898 -58.5209 416.098C-61.5909 406.488 -62.2209 395.188 -62.9009 385.168Z" fill="#D6CFE1"/>
<circle opacity="0.21" cx="431.5" cy="45.5" r="35.5" fill="#D6CFE1"/>
<circle opacity="0.21" cx="440" cy="117" r="18" fill="#D6CFE1"/>
</svg>
