<?xml version="1.0" encoding="UTF-8" standalone="no"?>
<svg
   width="1800"
   zoomAndPan="magnify"
   viewBox="0 0 1350 599.999999"
   height="800"
   preserveAspectRatio="xMidYMid meet"
   version="1.2"
   id="svg12"
   sodipodi:docname="pattern-masjid.svg"
   inkscape:version="1.3.2 (091e20e, 2023-11-25, custom)"
   xmlns:inkscape="http://www.inkscape.org/namespaces/inkscape"
   xmlns:sodipodi="http://sodipodi.sourceforge.net/DTD/sodipodi-0.dtd"
   xmlns="http://www.w3.org/2000/svg"
   xmlns:svg="http://www.w3.org/2000/svg">
  <sodipodi:namedview
     id="namedview12"
     pagecolor="#ffffff"
     bordercolor="#000000"
     borderopacity="0.25"
     inkscape:showpageshadow="2"
     inkscape:pageopacity="0.0"
     inkscape:pagecheckerboard="0"
     inkscape:deskcolor="#d1d1d1"
     inkscape:zoom="0.34611111"
     inkscape:cx="900"
     inkscape:cy="400.16051"
     inkscape:window-width="1366"
     inkscape:window-height="745"
     inkscape:window-x="-8"
     inkscape:window-y="-8"
     inkscape:window-maximized="1"
     inkscape:current-layer="svg12" />
  <defs
     id="defs2">
    <clipPath
       id="730db75358">
      <path
         d="M 0 0 L 1350 0 L 1350 533.953125 L 0 533.953125 Z M 0 0 "
         id="path1" />
    </clipPath>
    <clipPath
       id="202ad916a8">
      <path
         d="M 0 55 L 1350 55 L 1350 533.953125 L 0 533.953125 Z M 0 55 "
         id="path2" />
    </clipPath>
  </defs>
  <g
     id="d17bd4baac"
     transform="scale(1,0.7767943)">
    <g
       clip-rule="nonzero"
       clip-path="url(#730db75358)"
       id="g3">
      <path
         style="fill:#f4cb1e;fill-opacity:1;fill-rule:nonzero;stroke:none"
         d="M 1301.8164,-96.796875 H 0.820312 V 533.60937 h 95.628907 c 0.08594,-0.55859 0.257812,-1.15625 0.472656,-1.71484 6.367185,-17.78125 20.199215,-26.86328 33.195315,-31.51953 v 0.004 c 0.8164,-0.34375 1.67578,-0.60157 2.44922,-0.81641 l -0.004,-0.004 c 11.50781,-3.67968 21.92578,-4.04687 25.25781,-4.04687 0.71875,0 1.10938,0.0117 1.10938,0.0117 v -59.03516 h 71.80078 c 0,0 0.46875,-3.01172 1.85937,-8.39844 0.32032,-1.23828 0.66797,-2.55468 1.10157,-4.01172 l -0.0117,-0.008 c 2.85937,-10.01562 8.27343,-25.58984 18.0039,-44.69531 0.5,-0.97656 0.97657,-1.92969 1.51172,-2.94141 3.1875,-6.09765 6.8086,-12.52734 10.92188,-19.24218 0.30859,-0.51172 0.6289,-1.02735 0.95703,-1.54688 1.39453,-2.25 2.83594,-4.52734 4.34375,-6.83594 0.0117,-0.0156 0.0234,-0.0351 0.0351,-0.0547 6.13672,-9.39063 13.25782,-19.26172 21.42188,-29.4336 0.37891,-0.46094 0.74609,-0.92187 1.12891,-1.38281 h -0.0312 c 8.17578,-10.08984 17.46484,-20.48047 27.90625,-31.01953 0.55468,2.87109 0.85546,5.86719 0.85546,8.94922 0,0.64453 0.51563,1.16015 1.16016,1.16015 0.64453,0 1.16016,-0.51562 1.16016,-1.16015 0,-5.05469 0.8125,-9.89844 2.35156,-14.44141 10.17187,-9.91406 21.43359,-19.9375 33.86719,-29.96094 2.91406,-0.59765 5.95703,-0.89843 9.08203,-0.89843 0.64453,0 1.16015,-0.51563 1.16015,-1.15625 0,-0.64454 -0.51562,-1.16016 -1.16015,-1.16016 -1.625,0 -3.20703,-0.0859 -4.79297,-0.21484 50.65234,-39.65235 139.36719,-71.39844 189.91406,-84.88672 1.60938,-0.4336 3.09375,-0.90235 4.65235,-1.34766 l -0.10157,0.10156 c 2.19141,-0.64453 4.33594,-1.28906 6.44141,-1.93359 h -0.0156 c 5.08985,-1.58203 9.85157,-3.28906 14.45313,-5.05469 l 0.0352,0.0312 c 0.76953,-0.25781 1.54296,-0.55859 2.3164,-0.90234 l -0.0391,-0.0391 c 1.44531,-0.57422 2.93359,-1.12891 4.33594,-1.72657 v 0.008 c 0.76953,-0.34375 1.58593,-0.6875 2.35937,-1.03125 v -0.0469 c 4.91797,-2.17187 9.60938,-4.45312 14.02344,-6.89062 l -0.0664,0.0664 c 0.19922,-0.11328 0.39063,-0.23047 0.58985,-0.34375 0.35937,-0.19922 0.70312,-0.40625 1.05468,-0.60937 1.1875,-0.67578 2.37891,-1.34766 3.55079,-2.05078 h -0.1211 c 6.57813,-3.95313 12.70313,-8.20704 18.41406,-12.88282 8.19922,-6.71093 15.64454,-14.23046 22.84375,-22.57031 v 0.0703 c 0.77344,-0.89843 1.54688,-1.80078 2.32032,-2.70312 v -0.0391 c 3.83984,-4.578129 7.625,-9.425785 11.41797,-14.523441 0,0.0039 0.004,0.0039 0.004,0.0078 0.19141,-0.242187 0.3711,-0.496093 0.55078,-0.742187 0.21094,-0.285156 0.42188,-0.566406 0.63282,-0.851563 0.0664,-0.08594 0.125,-0.164062 0.1914,-0.253906 0,0 0,-0.0039 -0.004,-0.0039 0.62109,-0.84375 1.24609,-1.734375 1.87109,-2.59375 l 9.8125,-9.8125 9.80078,9.800781 c 0.625,0.863281 1.25391,1.757812 1.87891,2.609375 0.008,0.0078 0.0117,0.01172 0.0156,0.01953 4.26563,5.800782 8.50781,11.261719 12.82422,16.406254 v 0.0195 c 0.77344,0.90234 1.54688,1.80078 2.32031,2.70312 v -0.0508 c 12.20313,14.125 25.20313,25.77734 41.19532,35.39063 h -0.10157 c 0.91016,0.54296 1.85938,1.07031 2.79297,1.60937 0.71094,0.41016 1.40625,0.82813 2.12891,1.23047 0.12109,0.0664 0.23437,0.14062 0.35937,0.20703 l -0.0391,-0.0391 c 4.39453,2.42187 9.05859,4.69531 13.95313,6.85156 v 0.0156 c 0.54296,0.26953 1.08593,0.49218 1.6289,0.72265 1.625,0.69922 3.32813,1.36719 5.01563,2.03516 l -0.0312,0.0312 c 0.77343,0.34375 1.58984,0.64453 2.35937,0.90234 l 0.0156,-0.0117 c 4.6289,1.77735 9.42578,3.48828 14.55078,5.07813 2.0625,0.6289 4.16015,1.25781 6.34765,1.89062 l -0.082,-0.082 c 1.53907,0.4375 3.00391,0.90235 4.58985,1.32813 50.54687,13.48828 139.26172,45.23437 189.91406,84.88672 -1.58594,0.1289 -3.16797,0.21484 -4.75,0.21484 -0.64453,0 -1.16016,0.51562 -1.16016,1.16016 0,0.64062 0.51563,1.15625 1.16016,1.15625 3.10937,0 6.13281,0.30078 9.02734,0.89062 12.48046,10.05859 23.77736,20.11719 33.98046,30.06641 1.4844,4.52734 2.2969,9.35156 2.2969,14.34375 0,0.64453 0.5117,1.16015 1.1562,1.16015 0.6446,0 1.1602,-0.51562 1.1602,-1.16015 0,-3.03907 0.3008,-6.03516 0.8555,-8.90625 10.4257,10.52734 19.6992,20.90234 27.8632,30.97656 h -0.031 c 0.3828,0.46094 0.75,0.92187 1.1289,1.38281 7.9297,9.87891 14.8555,19.46485 20.8711,28.61328 0.1992,0.30469 0.4102,0.625 0.5859,0.91797 l 0.016,-0.0195 c 1.5039,2.30469 2.9375,4.57031 4.332,6.81641 0.3203,0.51172 0.6406,1.02734 0.9453,1.53125 4.1016,6.6914 7.707,13.09375 10.8867,19.17187 0.8399,1.5586 1.5938,3.07422 2.3399,4.58203 9.2422,18.41407 14.4492,33.42969 17.2265,43.17188 l -0.019,0.0156 c 0.2344,0.78516 0.4453,1.52735 0.6406,2.23438 0.01,0.0273 0.02,0.0625 0.027,0.0898 0.086,0.30469 0.1562,0.57813 0.2343,0.8711 1.5586,5.89843 2.0586,9.17187 2.0586,9.17187 h 71.7578 v 59.03516 c 0,0 0.3907,-0.0117 1.1094,-0.0117 7.2969,0 48.4336,1.5625 60.9414,36.38281 0.2149,0.55859 0.3438,1.15625 0.4297,1.71484 h 95.6719 V -96.796875 Z m -1.1601,2.148437 9.746,9.746094 v 24.132813 l -17.4335,17.429687 -17.3907,-17.429687 v -24.132813 l 9.7461,-9.746094 z m -4.8516,607.691408 5.625,-5.66797 10.6055,-10.5625 h 23.0156 l -13.6563,13.65625 -2.6172,2.57422 z m 39.0742,18.42187 h -23.0156 l -16.0586,-16.10156 h 22.9726 z m -40.75,-20.05468 v -23.01172 l 16.2734,-16.23047 v 22.97265 l -11.7656,11.80469 z m 16.2734,-42.55079 -17.4335,17.4336 -17.3907,-17.4336 v -24.1289 l 17.1328,-17.13281 0.2579,0.25781 0.3007,-0.25781 17.1328,17.13281 z m -55.3046,62.3086 c -0.3282,-0.91406 -0.7461,-1.71875 -1.1133,-2.58985 l 13.1758,-13.17187 h 23.0195 l -7.3438,7.29687 -8.7617,8.76172 h -18.8711 c -0.035,-0.10156 -0.07,-0.20312 -0.1054,-0.29687 z m 12.0625,-18.125 -16.2305,-16.23047 h 22.9726 l 6.5274,6.52734 9.75,9.70313 z m -18.5508,-18.54688 -17.0899,-17.08984 v -24.64844 h 24.6485 l 17.0468,17.08985 v 24.64843 z m 35.9453,9.66016 -8.9766,-9.01563 v -22.97265 l 16.2305,16.23047 v 23.01172 z m 8.4141,-80.12109 -0.2579,0.25781 -17.1328,-17.13281 v -24.12891 l 17.3907,-17.43359 17.4335,17.43359 v 24.12891 l -17.1328,17.13281 z m -89.918,-86.08985 -17.1328,17.13281 h -24.1328 l -17.4375,-17.39062 17.4375,-17.43359 h 24.1328 l 17.1328,17.13281 -0.2578,0.30078 z m -101.6758,42.71094 15.0625,-15.05859 17.3906,17.43359 v 24.12891 l -15.6289,15.6289 c -2.8086,-9.71875 -7.9023,-24.2539 -16.8242,-42.13281 z m -4.6914,-8.92188 c -2.6289,-4.86718 -5.3438,-9.64062 -8.1719,-14.29687 h 8.1719 z m 2.5937,4.77344 c -0.09,-0.17187 -0.1835,-0.33594 -0.2734,-0.5039 V 356.75 l 16.2305,-16.27344 v 23.01563 l -14.9688,14.96875 c -0.3359,-0.65625 -0.6445,-1.28907 -0.9883,-1.95313 z m -10.7929,-38.82031 -7.6563,7.61719 c -5.8437,-8.78125 -11.9922,-17.10938 -18.289,-25.05078 h 8.5078 z m -33.5391,-36.83984 v -24.64844 h 24.6485 l 17.0898,17.08984 v 24.64844 h -24.6484 z m 19.4102,19.40625 h 22.9726 l 16.2735,16.27343 h -22.9727 z m -47.8789,-158.82422 -17.1368,17.13281 h -24.13277 l -17.43359,-17.43359 17.43359,-17.4336 h 24.13277 l 17.1368,17.17578 -0.2578,0.25782 z m -199.72269,-35.8086 0.34375,-0.34375 V 97.367188 H 799.14453 L 783.03906,113.46875 V 90.667969 L 765.21875,72.851562 783.03906,55.03125 V 32.273438 L 799.14453,48.375 h 27.95313 V 20.421875 L 810.95312,4.320312 h 22.80079 l 17.82031,-17.816406 17.82031,17.816406 h 22.80078 L 876.09375,20.421875 V 48.375 h 27.91406 L 920.10937,32.273438 V 55.03125 l 17.82032,17.820312 -17.82032,17.816407 V 113.46875 L 904.00781,97.367188 h -27.95703 v 27.910152 l 16.14453,16.10157 h -22.80078 l -17.82031,17.8164 -17.82031,-17.8164 H 810.95312 Z M 807.6875,141.37891 H 783.03906 V 116.73047 L 800.13281,99.6875 h 24.60547 v 24.64453 z M 676.67578,-15.6875 693.80859,-32.820312 h 24.13282 L 735.375,-15.429688 717.94141,2.003906 h -24.13282 l -17.13281,-17.132812 0.25781,-0.300782 z m 83.82031,-0.902344 h -23.01562 l -16.23438,-16.230468 h 22.97657 z m -14.64453,-17.902344 v -22.972656 l 16.27735,16.230469 v 23.015625 z m 16.27735,21.898438 V 10.375 L 745.85156,26.648438 V 3.632812 Z m -18.59375,-22.585938 h -24.60547 l -17.08985,-17.046874 v -24.644532 h 24.64844 l 17.04688,17.085938 z m -24.60547,39.5 h 24.60547 V 28.96875 L 726.48828,46.058594 H 701.83984 V 21.410156 Z m 2.3164,-2.316406 16.23438,-16.273437 h 23.01562 L 744.22266,2.003906 Z m 24.60547,27.910156 17.4375,-17.390624 17.4336,17.433593 V 54.085938 L 763.58984,71.21875 763.28906,70.917969 763.03125,71.21875 745.85156,54.085938 Z M 849.94141,-15.128906 832.80859,2.003906 h -24.17578 l -17.39062,-17.433594 17.39062,-17.390624 h 24.17578 l 17.13282,17.132812 -0.29688,0.257812 z M 783.03906,4.320312 h 24.64844 l 17.05078,17.089844 V 46.058594 H 800.13281 L 783.03906,28.96875 Z m -0.6875,-2.316406 -16.23047,-16.273437 h 22.97266 l 16.27734,16.273437 z m 25.33594,-37.183594 h -24.64844 v -24.605468 l 17.09375,-17.085938 h 24.60547 v 24.644532 z m -2.31641,2.359376 -16.27734,16.230468 h -22.97266 l 16.23047,-16.230468 z m -24.64843,-1.671876 -16.27735,16.273438 v -23.015625 l 16.27735,-16.230469 z m 0,38.125 V 26.648438 L 764.44531,10.375 v -22.96875 z m -17.4336,71.148438 0.30078,-0.300781 17.13282,17.175781 v 24.13281 l -17.4336,17.42969 -17.4375,-17.42969 V 91.65625 l 17.17969,-17.132812 z m 89.91797,-90.46875 17.17578,-17.132812 h 24.13281 l 17.4336,17.390624 -17.4336,17.433594 h -24.13281 l -17.17578,-17.132812 0.30078,-0.300782 z m 173.26957,0.558594 -17.1368,17.132812 h -24.13277 l -17.43359,-17.433594 17.43359,-17.390624 h 24.13277 l 17.1368,17.132812 -0.2578,0.257812 z M 959.61719,4.320312 h 24.64843 l 17.04688,17.089844 V 46.058594 H 976.66406 L 959.61719,28.96875 Z m -0.6875,-2.316406 -16.27735,-16.273437 h 23.01953 l 16.23047,16.273437 z m 25.33593,-37.183594 h -24.64843 v -24.605468 l 17.04687,-17.085938 h 24.64844 v 24.644532 z m -2.36328,2.359376 -16.23047,16.230468 h -23.01953 l 16.27735,-16.230468 z m -24.60547,-1.671876 -16.27343,16.273438 v -23.015625 l 16.27343,-16.230469 z m 0,38.125 V 26.648438 L 941.02344,10.375 v -22.96875 z m 0,26.28125 V 54.085938 L 940.12109,71.21875 939.86328,70.917969 939.5625,71.21875 922.42969,54.085938 V 29.957031 l 17.43359,-17.433593 z m 24.60547,113.781248 -16.23047,16.27344 h -23.01953 l 16.27735,-16.27344 z m -22.28515,-2.3164 V 116.73047 L 976.66406,99.6875 h 24.64844 v 24.64453 l -17.04688,17.04688 z m -18.59375,16.96093 v -23.01562 l 16.27343,-16.27344 v 23.01563 z m 16.27343,-42.55078 -17.43359,17.42969 -17.43359,-17.42969 V 91.65625 l 17.13281,-17.175781 0.30078,0.300781 0.25781,-0.300781 17.17578,17.175781 z m 0,64.40235 v 23.01562 l -16.27343,-16.27344 v -22.97265 z m -104.08984,-19.36329 17.17578,-17.13281 h 24.13281 l 17.4336,17.4336 -17.4336,17.43359 h -24.13281 l -17.17578,-17.13281 0.30078,-0.30078 z m 66.90234,-19.44921 H 895.46094 L 878.41406,124.33203 V 99.6875 h 24.60547 l 17.08984,17.04297 z m 0.6875,2.3164 16.23047,16.27344 h -22.97265 l -16.27344,-16.27344 z m -6.74218,18.59375 h 22.97265 l -7.04297,7.08203 -9.1875,9.19141 h -23.01562 z m 8.375,17.90235 16.27343,-16.23047 v 22.97265 l -16.27343,16.27344 z m 0,-38.125 v -22.97266 l 16.27343,16.23047 v 23.01562 z M 897.78125,2.003906 914.05469,-14.269531 h 23.01562 L 920.79687,2.003906 Z m 22.32812,2.316406 V 28.96875 L 903.01953,46.058594 H 878.41406 V 21.410156 L 895.46094,4.320312 Z M 938.70312,-12.59375 V 10.375 L 922.42969,26.648438 V 3.632812 Z m 0,-5.625 -16.27343,-16.273438 v -22.972656 l 16.27343,16.230469 z m -1.63281,1.628906 h -23.01562 l -16.27344,-16.230468 h 23.01562 z m -16.96094,-18.546875 h -24.64843 l -17.04688,-17.089843 v -24.644532 h 24.60547 l 17.08984,17.085938 z M 869.39453,180.87891 h 22.80078 l -9.18359,9.14843 c -14.7461,-5.92578 -29.21875,-11.20703 -42.65625,-15.75 l 11.21875,-11.21484 z m 26.06641,0 h 24.64843 v 24.64843 l -0.46875,0.46875 c -11.32031,-5.35937 -22.86328,-10.38281 -34.28125,-15.01562 z m 26.96875,25.59375 17.43359,-17.4336 17.43359,17.4336 v 19.34375 C 946.26172,219.30078 934.5,213.11719 922.42969,207.32422 Z m 20.22265,-44.1836 h 23.01953 l 16.23047,16.27344 h -22.97265 z m 16.96485,18.58985 h 24.64843 l 17.04688,17.04687 v 24.64844 h -24.64844 l -17.04687,-17.04688 z m 50.71091,-39.5 h -22.80076 l 16.10156,-16.10157 V 97.367188 H 975.71875 L 959.61719,113.46875 V 90.667969 L 941.79297,72.851562 959.61719,55.03125 V 32.273438 L 975.71875,48.375 h 27.91015 V 20.421875 L 987.52734,4.320312 h 22.80076 l 17.8203,-17.773437 17.8204,17.773437 h 22.7617 l -15.7617,15.800782 -0.3438,0.300781 V 48.375 h 27.957 l 16.1016,-16.101562 V 55.03125 l 17.8203,17.820312 -17.8203,17.816407 v 22.800781 l -16.1445,-16.101562 h -27.9141 v 27.910152 l 16.1055,16.10157 h -22.7617 l -17.8204,17.8164 z m 19.4961,-157.06641 17.0899,-17.132812 h 24.1328 l 17.4375,17.390624 -17.3946,17.433594 h -24.1757 l -17.1328,-17.132812 0.3007,-0.300782 z m 176.5313,0 17.1367,-17.132812 h 24.1289 l 17.4375,17.390624 -17.4375,17.433594 h -24.1289 l -17.1367,-17.132812 0.2578,-0.300782 z m 44.5742,17.691406 16.2305,-16.273437 h 23.0195 l -16.2774,16.273437 z m 22.2851,2.316406 V 28.96875 l -17.0468,17.089844 h -24.6485 V 21.410156 l 17.0899,-17.089844 z m 2.3633,-0.6875 16.2305,-16.226562 V 10.375 l -16.2305,16.273438 z m 14.6016,-20.222656 h -23.0195 l -16.2305,-16.230468 h 22.9726 z m -14.6016,-17.902344 v -22.972656 l 16.2305,16.230469 v 23.015625 z m -2.3633,-0.644531 h -24.6054 l -17.0899,-17.089843 v -24.644532 h 24.6485 l 17.0468,17.085938 z m -50.7109,39.457031 h 22.8008 l -15.7617,15.800782 -0.3438,0.34375 V 48.375 h 27.9141 l 16.1015,-16.101562 V 55.03125 l 17.8243,17.820312 -17.8243,17.816407 v 22.800781 l -16.1015,-16.101562 h -27.9141 v 27.910152 l 16.1055,16.10157 h -22.8008 l -17.8242,17.8164 -17.8203,-17.8164 h -22.7578 l 16.1054,-16.10157 V 97.367188 h -27.914 l -16.1446,16.101562 V 90.667969 L 1118.3281,72.851562 1136.1484,55.03125 V 32.230469 L 1152.293,48.375 h 27.914 V 20.421875 L 1164.1016,4.320312 h 22.7578 l 17.8203,-17.816406 z m -16.1484,156.507808 17.1367,-17.13281 h 24.1289 l 17.4375,17.4336 -17.4375,17.43359 h -24.1289 l -17.1367,-17.13281 0.2578,-0.30078 z m 66.8593,-19.44921 h -24.6054 l -17.0899,-17.04688 V 99.6875 h 24.6485 l 17.0468,17.04297 z m 0.6875,2.3164 9.1915,9.19141 7.0859,7.08203 h -23.0195 l -16.2305,-16.27344 z m -25.2929,37.1836 h 24.6054 v 24.64843 l -17.0468,17.04688 h -24.6485 v -24.64844 z m 2.3203,-2.31641 16.2305,-16.27344 h 23.0195 l -16.2774,16.27344 z m 24.6484,1.62891 16.2305,-16.27344 v 23.01562 l -16.2305,16.27344 z m 0,-38.125 v -23.01563 l 16.2305,16.27344 v 23.01562 z m -72.5273,19.36328 -17.1328,17.13281 h -24.1328 l -17.4375,-17.43359 17.4375,-17.4336 h 24.1328 l 17.1328,17.13281 -0.2578,0.30079 z m -105.6797,-17.73438 16.2305,16.27344 h -22.9727 l -16.2734,-16.27344 z m -25.3359,-2.3164 -17.0899,-17.04688 V 99.6875 h 24.6485 l 17.0898,17.04297 v 24.64844 z m 26.9687,0.6875 v -23.01563 l 16.2305,16.27344 v 23.01562 z m 16.2305,21.85156 v 23.01562 l -16.2305,16.27344 v -23.01562 z m -16.2305,-48.12891 V 91.65625 l 17.1328,-17.175781 0.3008,0.300781 0.2578,-0.300781 17.1328,17.175781 v 24.13281 l -17.3906,17.42969 z m 59.4727,27.90625 -16.2735,16.27344 h -22.9726 l 16.2734,-16.27344 z m -22.3282,-2.3164 v -24.64844 l 17.0899,-17.04297 h 24.6484 v 24.64453 l -17.0898,17.04688 z m -18.5507,16.96093 v -23.01562 l 16.2304,-16.27344 v 23.01563 z m 0,5.57813 16.2304,16.27344 v 22.97265 l -16.2304,-16.23047 z m 1.6328,-1.62891 h 23.0156 l 16.2305,16.27344 h -22.9727 z m 16.9179,18.58985 h 24.6485 l 17.0898,17.04687 v 24.64844 h -24.6484 l -17.0899,-17.04688 z m -0.6445,-178.875004 -16.2734,-16.273437 h 23.0156 l 16.2305,16.273437 z m 25.293,2.316406 17.0898,17.089844 v 24.648438 h -24.6484 L 1136.1484,28.96875 V 4.320312 Z m 42.2539,-19.449218 -17.1328,17.132812 h -24.1328 l -17.4375,-17.433594 17.4375,-17.390624 h 24.1328 l 17.1328,17.132812 -0.2578,0.257812 z m -42.2539,-20.050782 h -24.6485 v -24.605468 l 17.0899,-17.085938 h 24.6484 v 24.644532 z m -2.3203,2.359376 -16.2735,16.230468 h -22.9726 l 16.2734,-16.230468 z m -24.6485,-1.671876 -16.2304,16.273438 v -23.015625 l 16.2304,-16.230469 z m 0,38.125 V 26.648438 L 1117.5977,10.375 v -22.96875 z m 0,26.28125 v 24.171876 l -17.1328,17.132812 -0.2578,-0.300781 -0.3008,0.300781 -17.1328,-17.132812 V 29.957031 l 17.4336,-17.433593 z m -59.4726,-27.910156 16.2734,-16.273437 h 22.9727 l -16.2305,16.273437 z m 22.3281,2.316406 V 28.96875 l -17.0898,17.089844 h -24.6485 V 21.410156 l 17.0899,-17.089844 z m 18.5508,-16.914062 V 10.375 l -16.2305,16.273438 V 3.632812 Z m 0,-5.625 -16.2305,-16.273438 v -22.972656 l 16.2305,16.230469 z m -1.6328,1.628906 h -22.9727 l -16.2734,-16.230468 h 23.0156 z m -16.918,-18.589844 h -24.6484 l -17.0899,-17.046874 v -24.644532 h 24.6485 l 17.0898,17.085938 z m -66.9023,196.007808 17.1328,-17.13281 h 24.1328 l 17.4375,17.4336 -17.4375,17.43359 h -24.1328 l -17.1328,-17.13281 0.3007,-0.30078 z m 42.2539,20.05079 h 24.6484 v 24.64843 l -17.0898,17.04688 h -24.6485 v -24.64844 z m 2.3203,-2.31641 16.2734,-16.27344 h 22.9727 l -16.2735,16.27344 z m 24.6484,27.91016 17.4336,-17.4336 17.3906,17.4336 v 24.1289 l -17.1328,17.17578 -0.2578,-0.30078 -0.3008,0.30078 -17.1328,-17.17578 z m 17.4336,44.86718 0.2578,-0.30078 17.1328,17.13281 v 24.17188 l -17.4336,17.39062 -17.3906,-17.39062 v -24.17188 l 17.1328,-17.13281 z m 42.0391,68.91407 -16.2735,16.27343 h -22.9297 l 16.2305,-16.27343 z m -22.3282,-2.31641 v -24.64844 l 17.0899,-17.08984 h 24.6484 v 24.64844 l -17.0898,17.08984 z m -18.5507,16.91406 v -22.96875 l 16.2304,-16.27344 V 318.625 Z m -2.3633,-22.96875 v 22.96875 L 1099.0039,318.625 v -23.01563 z m 2.3633,51.60938 v -23.01563 l 16.2304,16.27344 v 22.97266 z m 1.6757,-24.64453 h 22.9297 l 16.2735,16.23046 h -22.9727 z m 16.875,18.58984 h 24.6485 l 17.0898,17.04687 v 24.64454 h -24.6484 l -17.0899,-17.08594 z m 50.711,-39.5 h -22.7578 l 16.1054,-16.10156 v -27.95313 h -27.914 l -16.1446,16.10156 v -22.75781 l -17.8203,-17.8164 17.8203,-17.82032 v -22.80078 l 16.1446,16.10156 h 27.914 v -27.91015 l -16.1054,-16.10156 h 22.7578 l 17.8203,-17.81641 17.8242,17.81641 h 22.8008 l -16.1055,16.10156 v 27.91015 h 27.9141 l 16.1015,-16.10156 v 22.80078 l 17.8243,17.82032 -17.8243,17.8164 v 22.75781 l -16.1015,-16.10156 h -27.9141 v 27.95313 l 16.1055,16.10156 h -22.8008 l -17.8242,17.81641 z m 87.0429,2.31641 16.2774,16.27343 h -23.0195 l -16.2305,-16.27343 z m -25.2929,-2.31641 -17.0899,-17.08984 v -24.64844 h 24.6485 l 17.0468,17.08984 v 24.64844 z m 26.9687,0.6875 v -23.01563 l 16.2305,16.27344 v 22.96875 z m 16.2305,21.85156 v 23.01563 l -16.2305,16.23047 V 356.75 l 8.9336,-8.92969 z m -85.4531,-3.08984 17.1367,-17.13281 h 24.1289 l 17.4375,17.43359 -17.4375,17.39062 h -24.1289 l -17.1367,-17.13281 0.2578,-0.25781 z m 42.2539,20.05078 h 24.6054 v 24.60547 l -17.0468,17.08594 h -24.6485 v -24.64454 z m 2.3203,-2.35938 16.2305,-16.23046 h 23.0195 l -16.2774,16.23046 z m 43.1992,8.41407 v -23.01563 l 16.2734,16.27344 v 22.97266 z m 1.6758,-24.64453 h 22.9726 l 16.2735,16.23046 h -23.0156 z m -1.6758,-3.9961 v -22.96875 l 16.2734,-16.27344 V 318.625 Z m 1.6758,1.67578 16.2305,-16.27343 h 23.0156 l -16.2735,16.27343 z m 14.5976,-44.18359 -17.4335,17.39062 -17.3907,-17.39062 v -24.17188 l 17.1328,-17.08984 0.2579,0.25781 0.3007,-0.30078 17.1328,17.13281 z m -17.4335,-44.86719 -0.2579,0.30078 -17.1328,-17.17578 v -24.1289 l 17.3907,-17.4336 17.4335,17.4336 v 24.1289 l -17.1328,17.17578 z m 1.1601,-60.54297 v -23.01562 l 16.2734,16.27344 v 23.01562 z m 1.6758,-24.64453 h 22.9726 l 16.2735,16.27344 h -23.0156 z m -1.6758,-3.94922 v -23.01562 l 16.2734,-16.27344 v 23.01563 z m 1.6758,1.62891 16.2305,-16.27344 h 23.0156 l -16.2735,16.27344 z m 14.5976,-44.17969 -17.4335,17.42969 -17.3907,-17.42969 V 91.65625 l 17.1328,-17.175781 0.2579,0.300781 0.3007,-0.300781 17.1328,17.175781 z m -17.4335,-44.871091 -0.2579,0.300781 -17.1328,-17.132812 V 29.957031 l 17.3907,-17.433593 17.4335,17.433593 V 54.085938 L 1293.2695,71.21875 Z M 1294.1289,10.375 v -22.96875 l 16.2734,16.226562 v 23.015626 z m 1.6758,-24.644531 h 22.9726 l 16.2735,16.273437 h -23.0156 z m -1.6758,-3.949219 v -23.015625 l 16.2734,-16.230469 v 22.972656 z m 1.6758,1.628906 16.2305,-16.230468 h 23.0156 l -16.2735,16.230468 z m -73.9688,-78.058594 c -1.1992,0.933594 -2.3593,1.914063 -3.457,2.960938 l -2.9609,-2.960938 z m -9.7695,0 4.6406,4.636719 c -5.8398,6.140625 -10.0937,13.867188 -12.0273,22.457031 -1.8867,-8.589843 -6.1367,-16.316406 -12.0234,-22.457031 l 4.6406,-4.636719 z m -18.0781,0 -2.961,2.960938 c -1.0976,-1.046875 -2.2578,-2.027344 -3.457,-2.960938 z m -10.4219,0 c 12.0039,8.140626 19.957,21.851563 19.957,37.398438 0,0.644531 0.5157,1.203125 1.1563,1.203125 0.6445,0 1.1601,-0.558594 1.1601,-1.203125 0,-15.546875 7.9532,-29.257812 19.9883,-37.398438 h 56.1914 l -8.8047,8.800782 v 22.757812 l -16.1015,-16.101562 h -27.9141 v 27.910156 l 16.1055,16.144531 h -22.8008 l -17.8242,17.816407 -17.8203,-17.859376 h -22.7578 l 16.1054,-16.101562 v -27.910156 h -27.914 l -16.1446,16.101562 v -22.757812 l -8.7695,-8.800782 z m -59.4844,0 9.7461,9.746094 v 24.132813 l -17.4336,17.429687 -17.3906,-17.429687 v -24.132813 l 9.7461,-9.746094 z m -78.8203,0 c -1.1992,0.933594 -2.3594,1.914063 -3.457,2.960938 l -2.9609,-2.960938 z m -9.7265,0 4.6367,4.636719 c -5.8828,6.140625 -10.1328,13.867188 -12.0235,22.457031 -1.9296,-8.589843 -6.1836,-16.316406 -12.0234,-22.457031 l 4.6406,-4.636719 z m -18.1211,0 -2.9649,2.960938 c -1.0937,-1.046875 -2.2539,-2.027344 -3.4531,-2.960938 z m -10.4141,0 c 12.0352,8.140626 19.9922,21.851563 19.9922,37.398438 0,0.644531 0.5117,1.203125 1.1562,1.203125 0.6446,0 1.1602,-0.558594 1.1602,-1.203125 0,-15.546875 7.9531,-29.257812 19.957,-37.398438 h 56.1875 l -8.7695,8.800782 v 22.757812 l -16.1445,-16.101562 h -27.9141 v 27.910156 l 16.1055,16.101562 h -22.7617 l -17.8204,17.816407 -17.8203,-17.816407 h -22.80076 l 16.10156,-16.101562 v -27.910156 h -27.91015 l -16.10156,16.101562 v -22.757812 l -8.76953,-8.800782 z m -59.44922,0 9.74609,9.746094 v 24.132813 l -17.43359,17.429687 -17.43359,-17.429687 v -24.132813 l 9.74609,-9.746094 z m -78.84766,0 c -1.20703,0.933594 -2.3789,1.914063 -3.47265,2.960938 l -2.96485,-2.960938 z m -9.74218,0 4.63672,4.636719 c -5.88282,6.140625 -10.08985,13.867188 -12.02344,22.457031 -1.88672,-8.589843 -6.14063,-16.316406 -12.02344,-22.457031 l 4.63672,-4.636719 z m -18.07813,0 -2.96484,2.960938 c -1.09375,-1.046875 -2.26563,-2.027344 -3.46875,-2.960938 z m -10.42187,0 c 12,8.140626 19.95312,21.851563 19.95312,37.398438 0,0.644531 0.51563,1.203125 1.16016,1.203125 0.64453,0 1.16015,-0.558594 1.16015,-1.203125 0,-15.546875 7.95313,-29.257812 19.95704,-37.398438 h 56.1875 l -8.76954,8.800782 v 22.757812 l -16.10156,-16.101562 h -27.95703 v 27.910156 l 16.14453,16.144531 h -22.80078 l -17.82031,17.816407 v -0.04297 l -17.82031,-17.816407 h -22.80079 l 15.80079,-15.757812 0.34375,-0.34375 v -27.910156 h -27.95313 l -16.10547,16.101562 v -22.757812 l -8.76562,-8.800782 z m -59.48828,0 9.75,9.746094 v 24.132813 l -17.4336,17.429687 -17.4375,-17.429687 v -24.132813 l 9.78516,-9.746094 z m -78.81641,0 c -1.20313,0.933594 -2.36328,1.914063 -3.45703,2.960938 l -2.96485,-2.960938 z m -9.76953,0 4.63672,4.636719 c -5.83985,6.140625 -10.08985,13.867188 -12.02344,22.457031 -1.89063,-8.589843 -6.14063,-16.316406 -12.02344,-22.457031 l 4.63672,-4.636719 z m -18.07813,0 -2.96484,2.960938 c -1.09375,-1.046875 -2.25391,-2.027344 -3.45703,-2.960938 z m -10.42187,0 c 12,8.140626 19.95312,21.851563 19.95312,37.398438 0,0.644531 0.51563,1.203125 1.16016,1.203125 0.64453,0 1.16016,-0.558594 1.16016,-1.203125 0,-15.546875 7.95312,-29.257812 19.98828,-37.398438 h 56.1875 l -8.80078,8.800782 v 22.757812 l -16.10157,-16.101562 h -27.91406 v 27.910156 l 16.10156,16.101562 H 692.82031 L 675,-17.363281 657.17969,-35.179688 h -22.75782 l 16.10157,-16.101562 v -27.910156 h -27.91407 l -16.14453,16.101562 v -22.757812 l -8.76953,-8.800782 z m 19.48047,79.519532 -17.13282,17.132812 h -24.13281 l -17.43359,-17.433594 17.43359,-17.390624 h 24.13281 l 17.13282,17.132812 -0.25782,0.257812 z m -69.21875,130.917966 -17.4375,17.42969 -17.39063,-17.42969 V 91.65625 l 17.13281,-17.175781 0.25782,0.300781 0.30078,-0.300781 17.13672,17.175781 z m -53.25,-18.421872 h -27.95313 v 27.910152 l 16.10156,16.10157 h -22.75781 l -17.82031,17.8164 -17.82031,-17.8164 h -22.80078 l 16.10156,-16.10157 V 97.367188 H 446.03516 L 429.93359,113.46875 V 90.667969 L 412.11328,72.851562 429.93359,55.03125 V 32.273438 L 446.03516,48.375 h 27.91406 V 20.421875 L 457.84766,4.320312 h 22.80078 l 17.82031,-17.773437 17.82031,17.773437 h 22.75781 L 522.94531,20.421875 V 48.375 h 27.95313 L 567.00391,32.273438 V 55.03125 l 17.82031,17.820312 -17.82031,17.816407 v 22.800781 z m 16.10547,19.363282 v 24.64844 H 542.35547 L 525.26172,124.33203 V 99.6875 h 24.64844 z m -246.74219,44.69922 -17.13281,17.13281 h -24.17579 l -17.39062,-17.43359 17.39062,-17.4336 h 24.17579 l 17.13281,17.13281 -0.30078,0.30079 z M 278.00781,317.9375 h -24.64844 v -24.64844 l 17.08985,-17.08984 h 24.60547 v 24.64844 z m 0.94531,2.31641 h 8.51563 c -6.90625,8.73046 -12.96094,17.125 -18.25781,25.08203 l -7.64844,-7.64844 z m -3.26562,0 -16.27344,16.27343 h -22.97265 l 7.03906,-7.08203 9.1914,-9.1914 z m -24.64844,55.66015 c -0.10156,0.19141 -0.21484,0.40235 -0.3164,0.59375 -0.33985,0.65625 -0.64454,1.28125 -0.97266,1.92578 l -14.98438,-14.9414 V 340.47656 L 251.03906,356.75 Z m -19.23047,46.84375 -15.63672,-15.59765 v -24.12891 l 17.4336,-17.43359 15.03515,15.03125 c -8.92187,17.87109 -14.01953,32.40625 -16.83203,42.1289 z m -88.12109,-84.8125 -17.13281,17.13281 H 102.42188 L 84.984375,337.6875 102.42188,320.25391 h 24.13281 l 17.13281,17.13281 -0.25781,0.30078 z m -44.574219,158.86719 -6.527343,6.52734 -9.746094,9.70313 H 59.863281 l 4.46875,-4.46485 11.808594,-11.76562 z M 76.785156,494.49609 V 469.84766 L 93.875,452.75781 h 24.64844 v 24.64844 l -17.08985,17.08984 z m 18.007813,36.96875 H 75.96875 L 59.863281,515.36328 h 22.976563 l 13.183594,13.18359 c -0.363282,0.86329 -0.777344,1.66407 -1.105469,2.57422 -0.04297,0.11328 -0.08203,0.22657 -0.125,0.34375 z M 58.234375,511.41016 v -23.01172 l 16.230469,-16.23047 v 22.97265 l -14.042969,14.08204 z m 16.230469,-42.55079 -17.433594,17.4336 -17.390625,-17.4336 v -24.1289 l 17.132813,-17.13281 0.257812,0.25781 0.300781,-0.25781 17.132813,17.13281 z m -43.199219,44.1836 -0.257813,-0.25781 -16.015624,-15.97266 h 22.972656 l 13.65625,13.65625 2.617187,2.57422 z m 22.972656,2.36328 -16.101562,16.05859 H 15.164062 L 31.265625,515.40625 Z M 39.640625,495.14062 v -22.97265 l 16.230469,16.23047 v 23.01172 l -1.289063,-1.32813 z m 17.390625,-71.10546 -0.257812,0.25781 -17.132813,-17.13281 v -24.12891 l 17.433594,-17.43359 17.390625,17.43359 v 24.12891 L 57.332031,424.29297 Z M 54.238281,-16.589844 H 31.265625 L 14.992188,-32.820312 H 38.007812 Z M 39.640625,-34.492188 v -22.972656 l 16.230469,16.230469 V -18.21875 Z M 55.871094,-12.59375 V 10.375 L 39.640625,26.648438 V 3.632812 Z M 54.238281,-14.269531 37.964844,2.003906 H 14.992188 L 31.265625,-14.269531 Z M 39.640625,29.957031 57.074219,12.523438 74.464844,29.914062 V 54.085938 L 57.332031,71.21875 57.03125,70.917969 56.773438,71.21875 39.640625,54.085938 Z M 146.99219,-15.6875 164.125,-32.820312 h 24.13281 l 17.4375,17.390624 -17.4375,17.433594 H 164.125 l -17.13281,-17.132812 0.25781,-0.300782 z m 173.26953,0.558594 -17.13281,17.132812 h -24.17579 l -17.43359,-17.433594 17.43359,-17.390624 h 24.17579 l 17.13281,17.132812 -0.30078,0.257812 z M 253.35937,4.320312 h 24.64844 l 17.04688,17.089844 V 46.058594 H 270.44922 L 253.35937,28.96875 Z m -0.6875,-2.316406 -16.27343,-16.273437 h 23.01562 L 275.6875,2.003906 Z m 25.33594,-37.183594 h -24.64844 v -24.605468 l 17.08985,-17.085938 h 24.60547 v 24.644532 z m -2.32031,2.359376 -16.27344,16.230468 h -23.01562 l 16.27343,-16.230468 z m -24.64844,-1.671876 -16.27344,16.273438 v -23.015625 l 16.27344,-16.230469 z m 0,38.125 V 26.648438 L 234.76562,10.375 v -22.96875 z m 0,26.324219 V 54.085938 L 233.90625,71.21875 233.60547,70.917969 233.34766,71.21875 216.17187,54.085938 V 29.914062 l 17.4336,-17.390624 z m 24.64844,113.738279 -16.27344,16.27344 h -22.97265 l 16.23046,-16.27344 z m -22.32813,-2.3164 V 116.73047 L 270.44922,99.6875 h 24.60547 v 24.64453 l -17.04688,17.04688 z m -18.59375,16.96093 v -23.01562 l 16.27344,-16.27344 v 23.01563 z m 16.27344,-42.55078 -17.43359,17.42969 -17.4336,-17.42969 V 91.65625 l 17.17579,-17.132812 0.25781,0.257812 0.30078,-0.300781 17.13281,17.175781 z M 146.99219,160.82812 164.125,143.69531 h 24.13281 l 17.4375,17.4336 -17.4375,17.43359 H 164.125 l -17.13281,-17.13281 0.25781,-0.30078 z m 66.85937,-19.44921 H 189.20312 L 172.15625,124.33203 V 99.6875 h 24.64844 l 17.04687,17.04297 z m 0.6875,2.3164 16.27344,16.27344 h -23.01563 l -16.23046,-16.27344 z m -25.29297,37.1836 h 24.60547 v 24.64843 l -17.04687,17.04688 h -24.64844 v -24.64844 z m 2.32032,-2.31641 16.23046,-16.27344 h 23.01563 l -16.27344,16.27344 z m 24.60546,1.62891 16.27344,-16.27344 v 23.01562 l -16.27344,16.27344 z m 0,-38.125 v -23.01563 l 16.27344,16.27344 v 23.01562 z M 191.56641,2.003906 207.79687,-14.269531 H 230.8125 L 214.53906,2.003906 Z m 22.28515,2.316406 V 28.96875 L 196.80469,46.058594 H 172.15625 V 21.410156 L 189.20312,4.320312 Z M 232.44531,-12.59375 V 10.375 L 216.17187,26.648438 V 3.632812 Z m 0,-5.625 -16.27344,-16.273438 v -22.972656 l 16.27344,16.230469 z m -1.63281,1.628906 h -23.01563 l -16.23046,-16.230468 h 22.97265 z m -16.96094,-18.589844 h -24.64844 l -17.04687,-17.046874 v -24.644532 h 24.64844 l 17.04687,17.085938 z m -50.71484,39.5 h 22.80469 L 169.83594,20.421875 V 48.375 H 197.75 L 213.85156,32.230469 V 55.03125 l 17.82031,17.820312 -17.82031,17.816407 V 113.46875 L 197.75,97.367188 h -27.91406 v 27.910152 l 16.10547,16.10157 h -22.80469 l -17.81641,17.8164 -17.82422,-17.8164 h -22.75781 l 16.10547,-16.10157 V 97.367188 H 92.929688 L 76.785156,113.46875 V 90.667969 L 58.964844,72.851562 76.785156,55.03125 V 32.230469 L 92.929688,48.375 H 120.84375 V 20.421875 L 104.73828,4.320312 h 22.75781 l 17.82422,-17.816406 z M 143.6875,161.42969 126.55469,178.5625 h -24.13281 l -17.437505,-17.43359 17.437505,-17.4336 h 24.13281 l 17.13281,17.13281 -0.25781,0.30079 z M 99.113281,143.69531 82.839844,159.96875 H 59.863281 l 16.234375,-16.27344 z m -22.328125,-2.3164 V 116.73047 L 93.875,99.6875 h 24.64844 v 24.64453 l -17.08985,17.04688 z m -2.320312,0.6875 -16.230469,16.27343 V 135.32422 L 74.464844,119.05078 Z M 59.863281,162.28906 H 82.839844 L 99.113281,178.5625 H 76.140625 Z m 14.601563,17.90235 v 23.01562 L 58.234375,186.93359 v -23.01562 z m 2.320312,0.6875 h 24.648434 l 17.08985,17.04687 v 24.64844 H 93.875 L 76.785156,205.52734 Z M 76.140625,2.003906 59.863281,-14.269531 H 82.839844 L 99.113281,2.003906 Z m 25.292965,2.316406 17.08985,17.089844 V 46.058594 H 93.875 L 76.785156,28.96875 V 4.320312 Z M 143.6875,-15.128906 126.55469,2.003906 H 102.42188 L 84.984375,-15.429688 102.42188,-32.820312 h 24.13281 l 17.13281,17.132812 -0.25781,0.257812 z M 101.43359,-35.179688 H 76.785156 V -59.785156 L 93.875,-76.871094 h 24.64844 v 24.644532 z m -2.320309,2.359376 -16.273437,16.230468 H 59.863281 L 76.140625,-32.820312 Z M 74.464844,-34.492188 58.234375,-18.21875 v -23.015625 l 16.230469,-16.230469 z m 0,38.125 V 26.648438 L 58.234375,10.375 V -12.59375 Z M 57.03125,74.78125 57.332031,74.480469 74.464844,91.65625 v 24.13281 L 57.03125,133.21875 39.640625,115.78906 V 91.65625 L 56.773438,74.480469 Z m -1.160156,60.54297 v 23.01562 L 39.640625,142.06641 v -23.01563 z m -1.632813,24.64453 H 31.265625 L 14.992188,143.69531 h 22.972656 z m 1.632813,3.94922 v 23.01562 L 39.640625,203.20703 V 180.19141 Z M 54.238281,162.28906 37.964844,178.5625 H 14.992188 l 16.273437,-16.27344 z m -14.597656,44.1836 17.433594,-17.4336 17.390625,17.4336 v 24.1289 l -17.132813,17.17578 -0.300781,-0.30078 -0.257812,0.30078 -17.132813,-17.17578 z m 17.390625,44.86718 0.300781,-0.30078 17.132813,17.13281 v 24.17188 L 57.03125,309.73437 39.640625,292.34375 v -24.17188 l 17.132813,-17.13281 z m 42.082031,68.91407 -16.273437,16.27343 H 59.863281 L 76.097656,320.25391 Z M 76.785156,317.9375 V 293.28906 L 93.875,276.19922 h 24.64844 v 24.64844 L 101.43359,317.9375 Z M 58.234375,334.85156 V 311.88281 L 74.464844,295.60937 V 318.625 Z m -2.363281,-22.96875 v 22.96875 L 39.640625,318.625 v -23.01563 z m -1.632813,24.64453 H 31.265625 L 14.992188,320.25391 h 22.972656 z m 1.632813,3.94922 v 23.01563 L 39.640625,379.72266 V 356.75 Z m -1.632813,-1.6289 -16.273437,16.23046 H 14.992188 l 16.273437,-16.23046 z m 3.996094,24.64453 V 340.47656 L 74.464844,356.75 v 22.97266 z m 1.628906,-24.64453 h 23.019531 l 16.230469,16.23046 H 76.140625 Z m 16.921875,18.58984 h 24.648434 l 17.08985,17.04687 v 24.64454 H 93.875 L 76.785156,382.04297 Z m 50.710934,-39.5 h -22.75781 l 16.10547,-16.10156 V 273.88281 H 92.929688 l -16.144532,16.10156 v -22.75781 l -17.820312,-17.8164 17.820312,-17.82032 v -22.80078 l 15.800782,15.75781 0.34375,0.34375 h 27.914062 v -27.91015 l -16.10547,-16.10156 h 22.75781 l 17.82422,-17.81641 17.81641,17.81641 h 22.80469 l -15.76172,15.75781 -0.34375,0.34375 v 27.91015 H 197.75 l 16.10156,-16.10156 v 22.80078 l 17.82031,17.82032 -17.82031,17.8164 v 22.80078 L 198.09375,274.22656 197.75,273.88281 h -27.91406 v 27.95313 l 16.10547,16.10156 h -22.80469 l -17.81641,17.81641 z m 87.04297,2.31641 16.27344,16.27343 h -23.01563 l -16.23046,-16.27343 z m -25.33594,-2.31641 -17.04687,-17.08984 v -24.64844 h 24.64844 l 17.04687,17.08984 v 24.64844 z m 36.19922,9.875 -9.23047,-9.1875 v -23.01563 l 16.27344,16.27344 v 22.96875 z m 7.04297,12.66406 v 23.01563 l -16.27344,16.23047 V 356.75 l 8.97266,-8.92969 z m -85.45312,-3.08984 17.13281,-17.13281 h 24.13281 l 17.4375,17.43359 -17.4375,17.39062 H 164.125 L 146.99219,337.94531 147.25,337.6875 Z m 42.2539,20.05078 h 24.60547 v 24.60547 l -17.04687,17.08594 h -24.64844 v -24.64454 z m 2.32032,-2.35938 16.23046,-16.23046 h 23.01563 l -7.08203,7.03906 -9.19141,9.1914 z m 43.19921,-20.22656 v -22.96875 l 16.27344,-16.27344 V 318.625 l -8.92969,8.92969 z m 16.27344,-42.50781 -17.43359,17.39062 -17.4336,-17.39062 v -24.17188 l 17.17579,-17.13281 0.25781,0.30078 0.30078,-0.30078 17.13281,17.13281 z m -17.43359,-44.86719 -0.25781,0.30078 -17.17579,-17.17578 v -24.1289 l 17.4336,-17.4336 17.43359,17.4336 v 24.1289 l -17.13281,17.17578 z m 1.16015,-60.54297 v -23.01562 l 16.27344,16.27344 v 23.01562 z m 1.67579,-24.64453 h 22.97265 l 16.27344,16.27344 h -23.01563 z m 16.91796,18.58985 h 24.64844 l 17.04688,17.04687 v 24.64844 h -24.60547 l -17.08985,-17.04688 z m 50.71485,-39.5 h -22.80469 l 15.80469,-15.75782 0.34375,-0.34375 V 97.367188 H 269.46094 L 253.35937,113.46875 V 90.667969 L 235.53906,72.851562 253.35937,55.03125 V 32.273438 L 269.46094,48.375 h 27.95703 V 20.421875 L 281.26953,4.320312 h 22.80469 l 17.82031,-17.816406 17.82031,17.816406 h 22.80078 l -15.80078,15.757813 -0.30078,0.34375 V 48.375 h 27.91016 L 390.42969,32.273438 V 55.03125 L 408.25,72.851562 390.42969,90.667969 V 113.46875 L 374.32422,97.367188 h -27.95313 v 27.910152 l 16.14453,16.10157 h -22.80078 l -17.82031,17.8164 z m 19.44922,-157.06641 17.17968,-17.132812 h 24.13282 l 17.39062,17.390624 -17.39062,17.433594 h -24.13282 l -17.17968,-17.132812 0.30078,-0.300782 z m 173.26953,0.558594 -17.13281,17.132812 h -24.13282 l -17.43359,-17.433594 17.43359,-17.390624 h 24.13282 l 17.13281,17.132812 -0.25781,0.257812 z M 429.93359,4.320312 h 24.64844 l 17.04688,17.089844 V 46.058594 H 446.98047 L 429.93359,28.96875 Z m -0.6875,-2.316406 -16.27343,-16.273437 h 23.01562 l 16.23047,16.273437 z m 25.33594,-37.183594 h -24.64844 v -24.605468 l 17.04688,-17.085938 h 24.64844 v 24.644532 z m -2.36328,2.359376 -16.23047,16.230468 h -23.01562 l 16.27343,-16.230468 z m -24.60547,-1.671876 -16.27344,16.273438 v -23.015625 l 16.27344,-16.230469 z m 0,38.125 V 26.648438 L 411.33984,10.375 v -22.96875 z m 0,26.324219 V 54.085938 L 410.4375,71.21875 410.17969,70.917969 409.87891,71.21875 392.74609,54.085938 V 29.914062 l 17.4336,-17.390624 z m 69.17969,131.472659 -17.13281,17.13281 h -24.13282 l -17.43359,-17.43359 17.43359,-17.4336 h 24.13282 l 17.13281,17.13281 -0.25781,0.30079 z m -83.82031,0.85937 h 23.01562 l 16.23047,16.27344 h -22.97266 z m 14.64062,17.90235 v 23.01562 l -16.27344,-16.27344 v -23.01562 z m -16.27344,-21.85157 v -23.01562 l 16.27344,-16.27344 v 23.01563 z m 43.19922,-16.96093 H 429.93359 V 116.73047 L 446.98047,99.6875 h 24.64844 v 24.64453 z m -2.32031,2.3164 -16.23047,16.27344 h -23.01562 l 16.27343,-16.27344 z m -24.60547,-27.90625 -17.43359,17.42969 -17.4336,-17.42969 V 91.65625 l 17.13282,-17.175781 0.30078,0.300781 0.25781,-0.300781 17.17578,17.175781 z m -36.5,27.90625 16.27734,16.27344 h -23.01953 l -16.27343,-16.27344 z m -25.33594,-2.3164 -17.04687,-17.04688 V 99.6875 h 24.60547 l 17.09375,17.04297 v 24.64844 z m 41.61328,20.91015 -16.27734,16.27344 h -23.01562 l 16.27343,-16.27344 z m -14.64453,17.90235 16.27344,-16.27344 v 23.01562 l -16.27344,16.27344 z m 0,-38.125 v -23.01563 l 16.27344,16.27344 v 23.01562 z M 368.09766,2.003906 384.37109,-14.269531 h 23.01953 L 391.11328,2.003906 Z m 22.33203,2.316406 V 28.96875 L 373.33594,46.058594 H 348.73047 V 21.410156 L 365.77734,4.320312 Z M 409.01953,-12.59375 V 10.375 L 392.74609,26.648438 V 3.632812 Z m 0,-5.625 -16.27344,-16.273438 v -22.972656 l 16.27344,16.230469 z m -1.62891,1.628906 h -23.01953 l -16.27343,-16.230468 h 23.01562 z m -16.96093,-18.589844 h -24.65235 l -17.04687,-17.046874 v -24.644532 h 24.60547 l 17.09375,17.085938 z m -66.90625,196.007808 17.17968,-17.13281 h 24.13282 l 17.39062,17.4336 -17.39062,17.43359 h -24.13282 l -17.17968,-17.13281 0.30078,-0.30078 z m 42.2539,20.05079 h 24.65235 v 24.64843 l -17.09375,17.04688 h -24.60547 v -24.64844 z m 26.96875,25.59375 17.4336,-17.4336 17.43359,17.4336 v 0.83203 c -12.06641,5.79297 -23.83203,11.97265 -34.86719,18.48437 z m 37.1875,-0.94532 v -24.64843 h 24.64844 l 10.08984,10.08984 c -11.41796,4.63281 -22.96093,9.65234 -34.28125,15.01562 z m 27.91407,-24.64843 h 22.80078 l 17.82031,-17.77344 11.20312,11.16406 c -13.4414,4.54297 -27.92578,9.82422 -42.67968,15.75781 z m 42.29687,-196.56641 17.08984,-17.132812 h 24.13282 l 17.43359,17.390624 -17.43359,17.433594 h -24.13282 l -17.13281,-17.132812 0.29688,-0.300782 z m 44.52734,17.691406 16.27735,-16.273437 h 22.97265 L 567.64844,2.003906 Z m 22.33204,2.316406 V 28.96875 L 549.91016,46.058594 H 525.26172 V 21.410156 L 542.35547,4.320312 Z m 2.3164,-0.6875 16.23438,-16.226562 V 10.375 l -16.23438,16.273438 z m 14.60156,-20.222656 h -22.97265 l -16.27735,-16.230468 h 22.97657 z m -14.60156,-17.902344 v -22.972656 l 16.23438,16.230469 v 23.015625 z m -2.3164,-0.644531 h -24.64844 l -17.09375,-17.089843 v -24.644532 h 24.64844 l 17.09375,17.085938 z M 586.71094,70.917969 586.45312,71.21875 569.32031,54.085938 V 29.957031 l 17.4336,-17.433593 17.39453,17.390624 V 54.085938 L 587.01172,71.21875 Z M 587.91406,10.375 v -22.96875 l 16.23438,16.226562 v 23.015626 z m 40.88281,-43.195312 -16.27734,16.230468 h -22.97266 l 16.27344,-16.230468 z m -22.33203,-2.359376 v -24.605468 l 17.08985,-17.085938 h 24.64843 v 24.644532 l -17.08984,17.046874 z m -2.3164,0.6875 -16.23438,16.273438 v -23.015625 l 16.23438,-16.230469 z m -14.60157,20.222657 h 22.97266 l 16.27734,16.273437 h -22.97656 z m 16.91797,18.589843 h 24.64844 l 17.08984,17.089844 V 46.058594 H 623.55469 L 606.46484,28.96875 Z m -12.0664,-98.96875 9.75,9.746094 v 24.132813 l -17.4375,17.429687 -17.39063,-17.429687 v -24.132813 l 9.75,-9.746094 z m -78.81641,0 c -1.20312,0.933594 -2.36328,1.914063 -3.45703,2.960938 l -2.96484,-2.960938 z m -9.72656,0 4.63672,4.636719 c -5.88282,6.140625 -10.13672,13.867188 -12.02344,22.457031 -1.93359,-8.589843 -6.18359,-16.316406 -12.02344,-22.457031 l 4.63672,-4.636719 z m -18.1211,0 -2.96484,2.960938 c -1.09375,-1.046875 -2.25781,-2.027344 -3.45703,-2.960938 z m -10.41406,0 c 12.03516,8.140626 19.98828,21.851563 19.98828,37.398438 0,0.644531 0.51563,1.203125 1.16016,1.203125 0.64453,0 1.16016,-0.558594 1.16016,-1.203125 0,-15.546875 7.95312,-29.257812 19.95312,-37.398438 h 56.1875 l -8.76562,8.800782 v 22.757812 l -16.10547,-16.101562 h -27.95313 v 27.910156 l 16.10156,16.144531 h -22.75781 l -17.82031,17.773438 -17.82031,-17.816407 h -22.80078 l 16.10156,-16.101562 v -27.910156 h -27.91406 l -16.10157,16.101562 v -22.757812 l -8.80468,-8.800782 z m -59.48828,0 9.78125,9.746094 v 24.132813 l -17.43359,17.429687 -17.4336,-17.429687 v -24.132813 l 9.75,-9.746094 z m -78.8125,0 c -1.20703,0.933594 -2.375,1.914063 -3.46875,2.960938 l -2.96484,-2.960938 z m -9.74219,0 4.64063,4.636719 c -5.88281,6.140625 -10.09375,13.867188 -12.02344,22.457031 -1.89062,-8.589843 -6.14062,-16.316406 -12.02344,-22.457031 l 4.63672,-4.636719 z m -18.07812,0 -2.96094,2.960938 c -1.09766,-1.046875 -2.26562,-2.027344 -3.47266,-2.960938 z m -10.42188,0 c 12.00391,8.140626 19.95703,21.851563 19.95703,37.398438 0,0.644531 0.51563,1.203125 1.16016,1.203125 0.64453,0 1.16016,-0.558594 1.16016,-1.203125 0,-15.546875 7.95312,-29.257812 19.95312,-37.398438 h 56.1875 l -8.76562,8.800782 v 22.757812 l -16.10547,-16.101562 h -27.95313 v 27.910156 l 16.14453,16.101562 h -22.80078 l -17.82031,17.816407 -17.82031,-17.816407 h -22.80469 l 15.80469,-15.757812 0.34375,-0.34375 v -27.910156 h -27.95703 l -16.10157,16.101562 v -22.757812 l -8.76953,-8.800782 z m -59.48437,0 9.74609,9.746094 v 24.132813 l -17.43359,17.429687 -17.4336,-17.429687 v -24.132813 l 9.78125,-9.746094 z m -78.82031,0 c -1.19922,0.933594 -2.35938,1.914063 -3.45704,2.960938 l -2.96093,-2.960938 z m -9.76954,0 4.64063,4.636719 c -5.84375,6.140625 -10.09375,13.867188 -12.02344,22.457031 -1.89062,-8.589843 -6.14062,-16.316406 -12.02734,-22.457031 l 4.64062,-4.636719 z m -18.07812,0 -2.96094,2.960938 c -1.09765,-1.046875 -2.25781,-2.027344 -3.45703,-2.960938 z m -10.42187,0 c 11.99999,8.140626 19.95703,21.851563 19.95703,37.398438 0,0.644531 0.51562,1.203125 1.16015,1.203125 0.64063,0 1.15625,-0.558594 1.15625,-1.203125 0,-15.546875 7.95313,-29.257812 19.98828,-37.398438 h 56.19141 l -8.80469,8.800782 v 22.757812 L 197.75,-79.191406 h -27.91406 v 27.910156 l 16.10547,16.101562 h -22.80469 l -17.81641,17.816407 -17.82422,-17.816407 H 104.73828 L 120.84375,-51.28125 V -79.191406 H 92.929688 l -16.144532,16.101562 v -22.757812 l -8.769531,-8.800782 z m -59.48438,0 9.746094,9.746094 v 24.132813 L 57.03125,-43.339844 39.640625,-60.769531 v -24.132813 l 9.746094,-9.746094 z m -61.75,0 h 43.121094 l -8.769532,8.800782 v 22.757812 l -15.800781,-15.757812 -0.34375,-0.34375 H 2.96875 Z m 0,17.777344 h 17.261719 l 17.089843,17.085938 v 24.648437 H 12.671875 L 2.96875,-44.839844 Z m 0,35.304688 6.398438,6.429687 H 2.96875 Z m 0,8.746094 h 8.714844 l 0.644531,0.601562 16.789063,16.789062 L 11.683594,2.003906 H 2.96875 Z m 0,37.140624 H 9.367188 L 2.96875,10.75 Z m 0,9.707032 9.703125,-9.707032 H 37.320312 V 28.96875 L 20.230469,46.058594 H 2.96875 Z m 0,58.292968 C 3.613281,72.496094 4.25,72.707031 4.898438,72.851562 4.25,72.992188 3.613281,73.203125 2.96875,73.378906 Z m 0,3.558594 c 3.015625,-0.859375 6.128906,-1.488281 9.359375,-1.699218 0.988281,-0.08594 1.933594,-0.171876 2.921875,-0.171876 0.644531,0 1.160156,-0.515624 1.160156,-1.15625 0,-0.644531 -0.515625,-1.160156 -1.160156,-1.160156 -0.988281,0 -1.933594,-0.08594 -2.921875,-0.128906 C 9.097656,71.351562 5.984375,70.722656 2.96875,69.863281 V 48.375 H 21.175781 L 37.320312,32.273438 V 55.03125 L 55.140625,72.851562 37.320312,90.667969 V 113.46875 L 21.519531,97.710938 21.175781,97.367188 H 2.96875 Z m 0,23.808594 h 17.261719 l 17.089843,17.04297 v 24.64844 H 12.671875 l -0.34375,-0.30079 -9.359375,-9.36328 z m 0,35.29297 6.398438,6.39844 H 2.96875 Z m 0,8.71484 h 8.714844 l 17.433594,17.4336 -17.433594,17.43359 H 2.96875 Z m 0,37.1836 h 6.398438 l -6.398438,6.39843 z m 0,9.66015 9.359375,-9.35937 0.34375,-0.30078 h 24.648437 v 24.64843 L 20.230469,222.57422 H 2.96875 Z m 0,58.33985 c 0.644531,0.17578 1.28125,0.38671 1.929688,0.53125 C 4.25,249.55078 3.613281,249.76172 2.96875,249.9375 Z m 0,3.51562 c 3.015625,-0.85937 6.128906,-1.48828 9.359375,-1.69922 0.988281,-0.043 1.933594,-0.1289 2.921875,-0.1289 0.644531,0 1.160156,-0.51563 1.160156,-1.15625 0,-0.64454 -0.515625,-1.16016 -1.160156,-1.16016 -0.988281,0 -1.933594,-0.0859 -2.921875,-0.17188 -3.230469,-0.21093 -6.34375,-0.83984 -9.359375,-1.69921 v -21.48829 h 18.207031 l 16.144531,-16.10156 v 22.80078 l 17.820313,17.82032 -17.820313,17.8164 v 22.80078 L 21.175781,273.88281 H 2.96875 Z m 0,23.80469 h 17.261719 l 17.089843,17.08984 V 317.9375 H 12.671875 L 2.96875,308.23437 Z m 0,35.33984 6.398438,6.39844 H 2.96875 Z m 0,8.71485 h 8.714844 l 17.433594,17.43359 -16.789063,16.78906 -0.644531,0.60156 H 2.96875 Z m 0,37.18359 h 6.398438 l -6.398438,6.39844 z m 0,9.66016 9.359375,-9.35938 0.34375,-0.30078 h 24.648437 v 24.64844 L 20.230469,399.12891 H 2.96875 Z m 0,58.29687 c 0.644531,0.17578 1.28125,0.38672 1.929688,0.52734 v 0.043 C 4.25,426.10937 3.613281,426.32031 2.96875,426.49609 Z m 0,3.55859 c 3.015625,-0.85937 6.128906,-1.48828 9.359375,-1.69921 0.988281,-0.043 1.933594,-0.12891 2.921875,-0.12891 0.644531,0 1.160156,-0.55859 1.160156,-1.16016 v -0.043 c 0,-0.59765 -0.515625,-1.15625 -1.160156,-1.15625 -0.988281,0 -1.933594,-0.0859 -2.921875,-0.1289 -3.230469,-0.21094 -6.34375,-0.83985 -9.359375,-1.69922 v -21.48828 h 18.207031 l 16.144531,-16.10156 v 22.75781 l 17.820313,17.8164 v 0.043 l -17.820313,17.82032 v 22.75781 l -15.800781,-15.75781 -0.34375,-0.34375 H 2.96875 Z m 0,23.80469 h 17.261719 l 17.089843,17.08985 v 24.64843 H 12.671875 L 2.96875,484.78906 Z m 0,35.3086 6.398438,6.42968 H 2.96875 Z m 8.714844,8.74609 0.644531,0.60156 15.632813,15.62891 1.15625,1.16015 -17.261719,17.26172 H 2.96875 V 496.8125 Z m 29.761718,34.65234 14.425782,-14.42968 v 14.42968 z m 16.789063,-14.42968 14.425781,14.42968 H 58.234375 Z m 38.78125,9.19531 -12.03125,-12.02735 11.765625,-11.72265 5.67188,-5.66797 h 24.13281 l 1.87109,1.875 c -11.92969,4.44531 -24.33984,12.61328 -31.410155,27.54297 z M 143.6875,425.92187 v 0.043 l -12.02344,11.98047 c -6.14062,-5.83984 -13.87109,-10.08984 -22.46093,-11.98047 v -0.043 c 8.58984,-1.88671 16.32031,-6.13671 22.46093,-11.97656 z m -10.39453,-13.65234 c 5.88672,-6.14062 10.13672,-13.86719 12.02734,-22.45703 1.92969,8.58984 6.17969,16.31641 12.02344,22.45703 l -12.02344,12.02344 z m 12.02734,15.32813 11.46485,11.46484 v 1.23047 c -5.53516,6.03125 -9.60157,13.49219 -11.46485,21.78515 -1.89062,-8.58984 -6.14062,-16.3164 -12.02734,-22.45703 z m 13.60938,6.74218 h -2.14453 v 1.375 l -8.28907,-8.28906 -1.5039,-1.46094 v -0.043 l 12.02343,-11.97656 c 6.14063,5.83985 13.8711,10.08985 22.46094,11.97656 v 0.043 c -6.67578,1.46094 -12.76562,4.41016 -18.04297,8.375 z m 8.40234,0 c 7.03906,-4.57031 15.43359,-7.21484 24.44922,-7.21484 0.64453,0 1.16016,-0.55859 1.16016,-1.16016 v -0.043 c 0,-0.59765 -0.51563,-1.15625 -1.16016,-1.15625 -24.94922,0 -45.30469,-20.3125 -45.30469,-45.30078 0,-0.60156 -0.51562,-1.16015 -1.15625,-1.16015 -0.64453,0 -1.16015,0.55859 -1.16015,1.16015 0,24.98828 -20.3125,45.30078 -45.304691,45.30078 -0.644531,0 -1.160157,0.5586 -1.160157,1.15625 v 0.043 c 0,0.60157 0.515626,1.16016 1.160157,1.16016 24.992191,0 45.304691,20.30859 45.304691,45.30078 0,0.60156 0.51562,1.16016 1.16015,1.16016 0.64063,0 1.15625,-0.5586 1.15625,-1.16016 0,-10.89062 3.875,-20.84766 10.3086,-28.65625 v 49.60156 c -4.55079,0.0781 -14.84766,0.72266 -25.96485,4.44532 l -3.32422,-3.32032 H 104.73828 L 120.5,478.69531 l 0.34375,-0.34375 V 450.44141 H 92.929688 L 76.785156,466.54297 V 443.78516 L 58.964844,425.96484 v -0.043 l 17.820312,-17.8164 v -22.75781 l 15.800782,15.75781 0.34375,0.34375 H 120.84375 V 373.53906 L 104.73828,357.4375 h 22.75781 l 17.82422,-17.81641 17.81641,17.81641 h 22.80469 l -16.10547,16.10156 v 27.91016 H 197.75 l 16.10156,-16.10156 v 22.75781 l 17.23047,17.22656 c -0.15625,0.57031 -0.3125,1.15234 -0.45312,1.67578 l -7.32813,7.33203 z m 59.24219,0 2.98828,-2.97265 c -0.27344,1.21093 -0.48047,2.20703 -0.62891,2.97265 z m 26.78515,-62.77734 v -14.125 h 8.11719 c -3.01562,4.95703 -5.70312,9.66797 -8.11719,14.125 z m 9.57422,-16.48438 h -10.26172 l -16.23046,-16.23046 h 22.97265 l 8.48828,8.45312 c -1.73437,2.64453 -3.39453,5.23828 -4.96875,7.77734 z m 18.33594,-37.14062 15.80469,-15.75781 0.34375,-0.34375 v -27.95313 h -27.95703 l -16.10157,16.10156 v -22.75781 l -17.82031,-17.8164 17.82031,-17.82032 v -22.80078 l 16.10157,16.10156 h 27.95703 v -27.91015 l -16.14844,-16.10156 h 22.80469 l 17.82031,-17.81641 17.82031,17.81641 h 22.80078 l -15.80078,15.75781 -0.34375,0.34375 v 27.91015 h 27.95313 l 16.10547,-16.10156 v 18.38281 c -10.55078,6.33204 -20.40235,12.96485 -29.11719,19.86719 -0.23047,0.17969 -0.44141,0.36328 -0.66797,0.54297 -21.30469,-3.71094 -37.58984,-22.28516 -37.58984,-44.63281 0,-0.64453 -0.51563,-1.16016 -1.16016,-1.16016 -0.64453,0 -1.16016,0.51563 -1.16016,1.16016 0,24.99219 -20.3125,45.30078 -45.30468,45.30078 -0.64453,0 -1.16016,0.51562 -1.16016,1.16016 0,0.64062 0.51563,1.15625 1.16016,1.15625 21.04687,0 38.76172,14.44921 43.85156,33.9375 -11.39063,11.44921 -21.35547,22.67578 -30,33.43359 z m 39.79297,-35.23438 c -2.13281,-7.43359 -5.98047,-14.15625 -11.19141,-19.64062 l 12.02344,-12.02344 12.02344,12.02344 c -4.67188,4.91797 -8.21485,10.8125 -10.47656,17.33203 -0.78125,0.76953 -1.60938,1.54297 -2.37891,2.30859 z m 0.83203,-34.92578 -12.02344,-12.02343 c 5.88282,-6.1836 10.13282,-13.86719 12.02344,-22.5 1.92969,8.63281 6.14063,16.3164 12.02344,22.5 z m 13.65625,-10.39062 c 6.17969,5.88281 13.86719,10.08984 22.45703,12.02344 -8.58984,1.88671 -16.27734,6.13671 -22.45703,12.01953 l -12.02734,-12.01953 z m -15.28906,12.02344 -12.02344,12.01953 c -6.18359,-5.88282 -13.87109,-10.13282 -22.45703,-12.01953 8.58594,-1.9336 16.27344,-6.14063 22.45703,-12.02344 z m 33.88281,3.47265 c -9.62891,7.91797 -18.52344,15.82031 -26.71484,23.65235 5.27343,-11.09766 14.91406,-19.71094 26.71484,-23.65235 z m -32.37891,32.1211 c 0.11329,-0.10938 0.21875,-0.22266 0.32813,-0.33594 -0.0742,0.28515 -0.12109,0.5664 -0.19922,0.85156 -0.043,-0.17187 -0.0859,-0.34375 -0.12891,-0.51562 z M 552.92187,161.07422 c -11.28906,3.01172 -25.3125,7.1914 -40.80468,12.37109 l -12.01563,-12.01562 0.29688,-0.30078 -0.29688,-0.30079 17.13281,-17.13281 h 24.13282 l 16.07031,16.07031 c -1.51172,0.4336 -2.96484,0.89063 -4.51563,1.3086 z m 7.08204,-2.04688 -15.33204,-15.33203 h 22.97657 l 9.23047,9.19141 0.35546,0.35547 c -5.45703,2.07422 -11.19531,4 -17.23046,5.78515 z m 19.55468,-6.6914 -10.23828,-10.26953 v -23.01563 l 16.23438,16.27344 v 14.55859 c -1.95703,0.84375 -3.96875,1.65625 -5.9961,2.45313 z m 8.35547,-17.01172 16.23438,-16.27344 v 21.46484 c -5.1211,2.98829 -10.52735,5.75 -16.23438,8.3086 z M 624,126.83594 c -5.48438,4.48828 -11.33203,8.54687 -17.53516,12.30859 V 116.73047 L 623.55469,99.6875 h 24.64843 v 2.96875 C 640.60937,111.63672 632.74219,119.67969 624,126.83594 Z m 37.34375,-41.964846 c -6.14063,-5.882813 -13.87109,-10.089844 -22.45703,-12.019532 8.58594,-1.890624 16.3164,-6.140624 22.45703,-12.023437 L 671.76953,71.25 c -2.57031,3.730469 -5.10547,7.328125 -7.62109,10.820312 z m 24.49219,-2.863282 c -2.5,-3.453124 -5.02344,-7.019531 -7.58594,-10.734374 l 10.44922,-10.445313 c 6.14062,5.882813 13.87109,10.132813 22.45703,12.023437 -8.58594,1.929688 -16.31641,6.136719 -22.45703,12.019532 z m -8.94141,-12.683593 c -0.043,-0.0625 -0.082,-0.117188 -0.12109,-0.175781 L 675,66.554688 l -1.77344,2.59375 c -0.0391,0.05859 -0.0781,0.113281 -0.12109,0.175781 L 662.97656,59.195312 C 668.85937,53.011719 673.10937,45.328125 675,36.738281 c 1.93359,8.589844 6.18359,16.316407 12.02344,22.457031 z m -3.74219,3.738281 -0.10156,0.105469 c 0.0859,-0.125 0.17188,-0.25 0.25781,-0.375 l 0.0586,0.05859 z M 675,71.21875 674.64844,70.867188 c 0.11718,-0.175782 0.23437,-0.335938 0.35156,-0.507813 0.11719,0.171875 0.23437,0.332031 0.35156,0.507813 z m 1.67578,1.632812 0.0312,-0.03516 c 0.0469,0.07031 0.0937,0.140625 0.14453,0.207032 l -0.0898,-0.08984 c 0,-0.03906 -0.043,-0.03906 -0.0859,-0.08203 z m 12.96094,14.363282 c 8.1914,-8.144532 19.41797,-13.207032 31.82422,-13.207032 0.64453,0 1.16015,-0.515624 1.16015,-1.15625 0,-0.644531 -0.51562,-1.160156 -1.16015,-1.160156 -24.94922,0 -45.30078,-20.308594 -45.30078,-45.300781 0,-0.644531 -0.51563,-1.160156 -1.16016,-1.160156 -0.64453,0 -1.16016,0.515625 -1.16016,1.160156 0,24.992187 -20.30859,45.300781 -45.30078,45.300781 -0.64453,0 -1.16015,0.515625 -1.16015,1.160156 0,0.640626 0.51562,1.15625 1.16015,1.15625 12.44531,0 23.67188,5.0625 31.86328,13.203126 -3.28125,4.421874 -6.5625,8.636718 -9.8789,12.671874 V 97.367188 H 622.60937 L 606.46484,113.46875 V 90.667969 L 588.64453,72.851562 606.46484,55.03125 V 32.230469 L 622.60937,48.375 h 27.91407 V 20.421875 L 634.42187,4.320312 h 22.75782 L 675,-13.496094 692.82031,4.320312 h 22.80078 L 699.51953,20.421875 V 48.375 h 27.91406 L 743.53516,32.273438 V 55.03125 l 17.82031,17.820312 -17.82031,17.816407 V 113.46875 L 727.43359,97.367188 h -27.91406 v 2.429687 c -3.30078,-3.996094 -6.58594,-8.160156 -9.88281,-12.582031 z m 12.20312,15.390626 V 99.6875 h 24.64844 l 17.04688,17.04297 v 22.40234 c -15.88282,-9.70312 -29.03125,-21.62109 -41.69532,-36.52734 z M 745.85156,140.5 v -21.44922 l 16.27735,16.27344 v 13.54297 C 756.37109,146.28516 750.96094,143.5 745.85156,140.5 Z m 18.59375,9.40625 v -14.58203 l 16.27735,-16.27344 v 23.01563 l -10.29688,10.29296 c -2.02734,-0.80078 -4.03516,-1.61328 -5.98047,-2.45312 z m 17.90625,-6.21094 h 23.01953 l -15.34765,15.34375 c -6.08594,-1.79297 -11.82422,-3.71094 -17.2461,-5.76953 z m 10.23828,16.08594 16.04297,-16.08594 h 24.17578 l 17.13282,17.13281 -0.29688,0.30079 0.29688,0.30078 -12.02735,12.02734 c -15.50781,-5.1875 -29.53906,-9.37109 -40.83594,-12.38281 -1.55078,-0.41406 -2.98437,-0.86719 -4.48828,-1.29297 z M 1028.957,282.77344 c -0.7851,-0.78125 -1.5664,-1.53907 -2.3515,-2.3086 -2.2657,-6.54297 -5.836,-12.47656 -10.4805,-17.40234 l 12.0234,-11.98047 1.5039,1.46094 10.5196,10.51953 c -5.2266,5.46484 -9.086,12.24219 -11.2149,19.71094 z m 0.8243,-33.36328 12.0234,-12.02344 c 6.1406,5.88281 13.8711,10.08984 22.457,12.02344 -8.5859,1.88671 -16.3164,6.13671 -22.457,12.01953 z m -1.6329,-1.63282 -12.0234,-12.02343 c 5.8398,-6.1836 10.0938,-13.82422 12.0234,-22.45704 1.8907,8.58985 6.1407,16.27344 12.0235,22.45704 z m -1.6718,1.63282 -12.0274,12.01953 c -6.1367,-5.88282 -13.8672,-10.13282 -22.45701,-12.01953 8.63281,-1.9336 16.32031,-6.14063 22.45701,-12.02344 z m -3.7891,27.23046 c -9.2813,-8.8789 -18.332,-16.80468 -26.77344,-23.7539 11.83984,3.93359 21.50394,12.60156 26.77344,23.7539 z m 5.4609,8.87891 c -0.078,-0.28125 -0.125,-0.52734 -0.1992,-0.80469 0.1094,0.10938 0.211,0.21485 0.3203,0.32422 -0.039,0.16016 -0.078,0.32031 -0.1211,0.48047 z m 2.6133,-0.96484 c 5.0821,-19.53516 22.7617,-33.98828 43.8516,-33.98828 0.6445,0 1.1601,-0.51563 1.1601,-1.15625 0,-0.64454 -0.5156,-1.16016 -1.1601,-1.16016 -24.9922,0 -45.3047,-20.30859 -45.3047,-45.30078 0,-0.64453 -0.5156,-1.16016 -1.1602,-1.16016 -0.6445,0 -1.1562,0.51563 -1.1562,1.16016 0,22.38672 -16.3242,40.95703 -37.62501,44.63672 -0.22266,-0.17578 -0.45703,-0.3711 -0.67969,-0.54688 -8.70313,-6.89453 -18.53906,-13.51562 -29.07031,-19.83984 v -18.41016 l 16.10156,16.10156 h 27.91015 v -27.91015 l -16.10156,-16.10156 h 22.80076 l 17.8203,-17.77344 17.8204,17.77344 h 22.7617 l -16.1055,16.10156 v 27.91015 h 27.9141 l 16.1445,-16.10156 v 22.80078 l 17.8203,17.82032 -17.8203,17.8164 v 22.80078 l -16.1445,-16.14453 h -27.9141 v 27.95313 l 16.1055,16.10156 h -8.0196 c -9.789,-12.16016 -19.9296,-23.3125 -29.9492,-33.38281 z m 59.8672,54.29297 h 22.9727 l -16.2305,16.23046 h -10.2656 c -1.625,-2.63281 -3.3008,-5.19921 -4.9844,-7.76171 z m 30.4375,95.49218 c -0.1484,-0.77343 -0.3594,-1.78125 -0.6367,-3.00781 l 3.0078,3.00781 z m 69.9609,0 h -4.4179 c -5.2774,-3.96484 -11.3672,-6.91406 -18.043,-8.375 v -0.043 c 8.5899,-1.88671 16.3203,-6.13671 22.4609,-11.97656 l 12.0235,11.97656 v 0.043 l -9.8789,9.84375 v -1.46875 z m 2.1446,4.76563 11.5078,-11.50781 12.0273,12.02343 c -5.8398,6.14063 -10.0937,13.86719 -12.0273,22.45703 -1.8281,-8.32031 -5.9063,-15.79687 -11.5078,-21.83984 z m 14.6875,-11.67969 -1.5039,-1.46094 v -0.043 l 12.0234,-11.97656 c 6.1406,5.83985 13.8711,10.08985 22.4609,11.97656 v 0.043 c -8.5898,1.89063 -16.3203,6.14063 -22.4609,11.98047 z m -3.1797,-3.13281 -12.0234,-12.02344 c 5.8867,-6.14062 10.1367,-13.86719 12.0234,-22.45703 1.9336,8.58984 6.1875,16.31641 12.0273,22.45703 z m -11.5078,19.39062 c 6.4414,7.81641 10.3515,17.8125 10.3515,28.74219 0,0.60156 0.5157,1.16016 1.1563,1.16016 0.6445,0 1.1601,-0.5586 1.1601,-1.16016 0,-24.99219 20.3555,-45.30078 45.3047,-45.30078 0.6446,0 1.1602,-0.55859 1.1602,-1.16016 v -0.043 c 0,-0.59765 -0.5156,-1.15625 -1.1602,-1.15625 -24.9492,0 -45.3047,-20.3125 -45.3047,-45.30078 0,-0.60156 -0.5156,-1.16015 -1.1601,-1.16015 -0.6406,0 -1.1563,0.55859 -1.1563,1.16015 0,24.98828 -20.3125,45.30078 -45.3046,45.30078 -0.6446,0 -1.1602,0.5586 -1.1602,1.15625 v 0.043 c 0,0.60157 0.5156,1.16016 1.1602,1.16016 9.0156,0 17.4101,2.64453 24.4804,7.21484 h -56 l -7.3281,-7.33203 c -0.1406,-0.52344 -0.2969,-1.10547 -0.4531,-1.67578 l 17.2304,-17.22656 v -22.75781 l 16.1446,16.10156 h 27.914 v -27.91016 l -16.1054,-16.10156 h 22.7578 l 17.8203,-17.81641 17.8242,17.81641 h 22.8008 l -15.7617,15.75781 -0.3438,0.34375 v 27.91016 h 27.9141 l 16.1015,-16.10156 v 22.75781 l 17.8243,17.8164 v 0.043 l -17.8243,17.82032 v 22.75781 l -16.1015,-16.10156 h -27.9141 v 27.91015 l 15.8477,15.88672 0.2578,0.25781 h -22.8008 l -3.3359,3.33203 c -11.1328,-3.73046 -21.4414,-4.3789 -25.9961,-4.45703 z m 28.4219,55.02735 1.8984,-1.89844 h 24.1289 l 17.4375,17.39062 -12.0664,12.0625 c -7.0859,-14.92578 -19.4805,-23.10156 -31.3984,-27.55468 z m 55.789,32.7539 14.4258,-14.42968 v 14.42968 z m 16.7461,-14.42968 14.4649,14.42968 h -14.4649 z m 52.9024,14.42968 h -8.8868 l -17.2187,-17.26172 17.3906,-17.39062 h 8.7149 z m 0,-36.96875 h -6.3985 l 6.3985,-6.39843 z m 0,-9.66406 -9.6602,9.66406 h -24.6484 v -24.64843 l 17.0898,-17.08985 h 17.2188 z m 0,-58.36328 c -0.629,-0.16406 -1.2461,-0.36328 -1.8868,-0.50391 v -0.043 c 0.6407,-0.14062 1.2578,-0.33593 1.8868,-0.5 z m 0,-3.42969 c -3.8907,1.10938 -7.9961,1.72656 -12.2383,1.72656 -0.6446,0 -1.1602,0.5586 -1.1602,1.15625 v 0.043 c 0,0.60157 0.5156,1.16016 1.1602,1.16016 4.2422,0 8.3476,0.61328 12.2383,1.72656 v 21.58985 h -18.2071 l -16.1015,16.10156 v -22.75781 l -17.8204,-17.82032 v -0.043 l 17.8204,-17.8164 v -22.75781 l 16.1015,16.10156 h 18.2071 z m 0,-23.91015 h -17.2188 l -17.0898,-17.08594 V 357.4375 h 24.6484 l 9.6602,9.625 z m 0,-35.32422 -6.3985,-6.36719 h 6.3985 z m 0,-8.72657 h -8.7149 l -17.3906,-17.39062 17.3906,-17.43359 h 8.7149 z m 0,-37.14062 h -6.3985 l 6.3985,-6.36719 z m 0,-9.66406 -9.6602,9.66406 h -24.6484 v -24.64844 l 17.0898,-17.08984 h 17.2188 z m 0,-58.36328 c -0.629,-0.16407 -1.2461,-0.35938 -1.8868,-0.5 l 1.8868,-0.50391 z m 0,-3.41407 c -3.8907,1.13672 -7.9961,1.75391 -12.2383,1.75391 -0.6446,0 -1.1602,0.51562 -1.1602,1.16016 0,0.64062 0.5156,1.15625 1.1602,1.15625 4.2422,0 8.3476,0.61718 12.2383,1.7539 v 21.5625 h -18.2071 l -16.1015,16.10156 v -22.75781 l -17.8204,-17.8164 17.8204,-17.82032 v -22.80078 l 16.1015,16.10156 h 18.2071 z m 0,-23.92187 h -17.2188 l -17.0898,-17.04688 v -24.64843 h 24.6484 l 9.6602,9.6289 z m 0,-35.32813 -6.3985,-6.36718 h 6.3985 z m 0,-8.68359 h -8.7149 l -17.3906,-17.43359 17.3906,-17.4336 h 8.7149 z m 0,-37.18359 h -6.3985 l 6.3985,-6.36719 z m 0,-9.62891 -9.6602,9.62891 h -24.6484 v -24.64844 l 17.0898,-17.04297 h 17.2188 z m 0,-58.398438 c -0.629,-0.164062 -1.2461,-0.359374 -1.8868,-0.5 l 1.8868,-0.503906 z m 0,-3.414062 c -3.8907,1.136719 -7.9961,1.753906 -12.2383,1.753906 -0.6446,0 -1.1602,0.515625 -1.1602,1.160156 0,0.640626 0.5156,1.15625 1.1602,1.15625 4.2422,0 8.3476,0.617188 12.2383,1.753907 v 21.605469 h -18.2071 l -16.1015,16.101562 V 90.667969 L 1294.9023,72.851562 1312.7227,55.03125 V 32.273438 L 1328.8242,48.375 h 18.2071 z m 0,-23.878906 h -17.2188 L 1312.7227,28.96875 V 4.320312 h 24.6484 l 9.6602,9.664063 z m 0,-35.371094 -6.3985,-6.367188 h 6.3985 z m 0,-8.683594 h -8.7149 l -17.3906,-17.433594 17.3906,-17.390624 h 8.7149 z m 0,-37.183594 h -6.3985 l 6.3985,-6.367187 z m 0,-9.625 -9.6602,9.625 h -24.6484 v -24.605468 l 17.0898,-17.085938 h 17.2188 z m -18.2071,-34.386718 -16.1015,16.101562 v -22.757812 l -8.7696,-8.800782 h 43.0782 v 15.457032 z m 0,0"
         id="path3" />
    </g>
    <path
       style="fill:#f4cb1e;fill-opacity:1;fill-rule:nonzero;stroke:none"
       d="m 1203.5234,26.390625 c 0,24.992187 -20.3125,45.300781 -45.3046,45.300781 -0.6446,0 -1.1602,0.515625 -1.1602,1.160156 0,0.640626 0.5156,1.15625 1.1602,1.15625 24.9921,0 45.3046,20.3125 45.3046,45.300778 0,0.64454 0.5157,1.16016 1.1563,1.16016 0.6445,0 1.1601,-0.51562 1.1601,-1.16016 0,-24.988278 20.3555,-45.300778 45.3047,-45.300778 0.6446,0 1.1602,-0.515624 1.1602,-1.15625 0,-0.644531 -0.5156,-1.160156 -1.1602,-1.160156 -24.9492,0 -45.3047,-20.308594 -45.3047,-45.300781 0,-0.644531 -0.5156,-1.160156 -1.1601,-1.160156 -0.6406,0 -1.1563,0.515625 -1.1563,1.160156 z m -34.957,46.460937 c 8.5899,-1.890624 16.3203,-6.140624 22.4609,-12.023437 l 12.0235,12.023437 -12.0235,12.019532 c -6.1406,-5.882813 -13.871,-10.089844 -22.4609,-12.019532 z m 36.1133,36.152348 c -1.8867,-8.63282 -6.1367,-16.31641 -12.0234,-22.500004 l 12.0234,-12.023437 12.0273,12.023437 c -5.8398,6.183594 -10.0937,13.867184 -12.0273,22.500004 z m 36.1601,-36.152348 c -8.5898,1.929688 -16.3203,6.136719 -22.4609,12.019532 l -10.5195,-10.519532 -1.5039,-1.5 12.0234,-12.023437 c 6.1406,5.882813 13.8711,10.132813 22.4609,12.023437 z m -24.1328,-13.65625 -12.0273,12.023438 -12.0234,-12.023438 c 5.8867,-6.183593 10.1367,-13.867187 12.0234,-22.457031 1.9336,8.589844 6.1875,16.273438 12.0273,22.457031 z m 0,0"
       id="path4" />
    <path
       style="fill:#f4cb1e;fill-opacity:1;fill-rule:nonzero;stroke:none"
       d="m 1205.8398,295.86719 c 0,-24.99219 20.3555,-45.30078 45.3047,-45.30078 0.6446,0 1.1602,-0.51563 1.1602,-1.15625 0,-0.64454 -0.5156,-1.16016 -1.1602,-1.16016 -24.9492,0 -45.3047,-20.30859 -45.3047,-45.30078 0,-0.64453 -0.5156,-1.16016 -1.1601,-1.16016 -0.6406,0 -1.1563,0.51563 -1.1563,1.16016 0,24.99219 -20.3125,45.30078 -45.3046,45.30078 -0.6446,0 -1.1602,0.51562 -1.1602,1.16016 0,0.64062 0.5156,1.15625 1.1602,1.15625 24.9921,0 45.3046,20.30859 45.3046,45.30078 0,0.64453 0.5157,1.16015 1.1563,1.16015 0.6445,0 1.1601,-0.51562 1.1601,-1.16015 z m 35,-46.45703 c -8.5898,1.88671 -16.3203,6.13671 -22.4609,12.01953 l -10.5195,-10.51953 -1.5039,-1.5 12.0234,-12.02344 c 6.1406,5.88281 13.8711,10.08984 22.4609,12.02344 z m -36.1601,-36.15625 c 1.9336,8.63281 6.1875,16.3164 12.0273,22.5 l -12.0273,12.02343 -12.0234,-12.02343 c 5.8867,-6.1836 10.1367,-13.86719 12.0234,-22.5 z m -36.1133,36.15625 c 8.5899,-1.9336 16.3203,-6.14063 22.4609,-12.02344 l 12.0235,12.02344 -12.0235,12.01953 c -6.1406,-5.88282 -13.871,-10.13282 -22.4609,-12.01953 z m 24.0899,13.65234 12.0234,-12.02344 12.0273,12.02344 c -5.8398,6.18359 -10.0937,13.86719 -12.0273,22.45703 -1.8867,-8.58984 -6.1367,-16.27344 -12.0234,-22.45703 z m 0,0"
       id="path5" />
    <path
       style="fill:#f4cb1e;fill-opacity:1;fill-rule:nonzero;stroke:none"
       d="m 1029.3086,119.30859 c 0,-24.988278 20.3125,-45.300778 45.3047,-45.300778 0.6445,0 1.1601,-0.515624 1.1601,-1.15625 0,-0.644531 -0.5156,-1.160156 -1.1601,-1.160156 -24.9922,0 -45.3047,-20.308594 -45.3047,-45.300781 0,-0.644531 -0.5156,-1.160156 -1.1602,-1.160156 -0.6445,0 -1.1562,0.515625 -1.1562,1.160156 0,24.992187 -20.3555,45.300781 -45.3047,45.300781 -0.64453,0 -1.16016,0.515625 -1.16016,1.160156 0,0.640626 0.51563,1.15625 1.16016,1.15625 24.9492,0 45.3047,20.3125 45.3047,45.300778 0,0.64454 0.5117,1.16016 1.1562,1.16016 0.6446,0 1.1602,-0.51562 1.1602,-1.16016 z m 34.9531,-46.457028 c -8.5859,1.929688 -16.3164,6.136719 -22.457,12.019532 l -12.0234,-12.019532 12.0234,-12.023437 c 6.1406,5.882813 13.8711,10.132813 22.457,12.023437 z m -36.1133,-36.113281 c 1.8907,8.589844 6.1407,16.316407 12.0235,22.457031 L 1028.1484,71.21875 1016.125,59.195312 c 5.8398,-6.183593 10.0938,-13.867187 12.0234,-22.457031 z m -36.15621,36.113281 c 8.63281,-1.890624 16.32031,-6.140624 22.45701,-12.023437 l 12.0274,12.023437 -12.0274,12.019532 C 1008.3125,78.988281 1000.582,74.78125 991.99219,72.851562 Z m 24.13281,13.652344 12.0234,-11.980468 1.5039,1.460937 10.5196,10.519531 c -5.8828,6.183594 -10.1328,13.867184 -12.0235,22.457034 -1.9296,-8.63281 -6.1836,-16.27344 -12.0234,-22.457034 z m 0,0"
       id="path6" />
    <path
       style="fill:#f4cb1e;fill-opacity:1;fill-rule:nonzero;stroke:none"
       d="m 850.41406,119.30859 c 0,0.64454 0.51563,1.16016 1.16016,1.16016 0.64453,0 1.16015,-0.51562 1.16015,-1.16016 0,-24.988278 20.3125,-45.300778 45.30469,-45.300778 0.64063,0 1.15625,-0.515624 1.15625,-1.15625 0,-0.644531 -0.51562,-1.160156 -1.15625,-1.160156 -24.99219,0 -45.30469,-20.308594 -45.30469,-45.300781 0,-0.644531 -0.51562,-1.160156 -1.16015,-1.160156 -0.64453,0 -1.16016,0.515625 -1.16016,1.160156 0,24.992187 -20.30859,45.300781 -45.30078,45.300781 -0.64453,0 -1.16016,0.515625 -1.16016,1.160156 0,0.640626 0.51563,1.15625 1.16016,1.15625 24.99219,0 45.30078,20.3125 45.30078,45.300778 z m 1.16016,-10.30468 C 849.6875,100.37109 845.43359,92.6875 839.55078,86.503906 l 12.02344,-12.023437 12.02344,12.023437 C 857.71484,92.6875 853.50781,100.37109 851.57422,109.00391 Z M 887.6875,72.851562 c -8.58594,1.929688 -16.27344,6.136719 -22.45703,12.019532 L 853.20703,72.851562 865.23047,60.828125 c 6.18359,5.882813 13.87109,10.132813 22.45703,12.023437 z M 851.57422,36.738281 c 1.93359,8.589844 6.14062,16.273438 12.02344,22.457031 L 851.57422,71.21875 839.55078,59.195312 c 5.88281,-6.183593 10.13672,-13.867187 12.02344,-22.457031 z m -13.65625,24.089844 12.02344,12.023437 -12.02344,12.019532 c -6.1836,-5.882813 -13.86719,-10.089844 -22.45703,-12.019532 8.58984,-1.890624 16.27343,-6.140624 22.45703,-12.023437 z m 0,0"
       id="path7" />
    <path
       style="fill:#f4cb1e;fill-opacity:1;fill-rule:nonzero;stroke:none"
       d="m 544.92969,71.691406 c -24.99219,0 -45.30078,-20.308594 -45.30078,-45.300781 0,-0.644531 -0.51563,-1.160156 -1.16016,-1.160156 -0.64453,0 -1.16016,0.515625 -1.16016,1.160156 0,24.992187 -20.35547,45.300781 -45.30468,45.300781 -0.64063,0 -1.15625,0.515625 -1.15625,1.160156 0,0.640626 0.51562,1.15625 1.15625,1.15625 24.94921,0 45.30468,20.3125 45.30468,45.300778 0,0.64454 0.51563,1.16016 1.16016,1.16016 0.64453,0 1.16016,-0.51562 1.16016,-1.16016 0,-24.988278 20.30859,-45.300778 45.30078,-45.300778 0.64453,0 1.16015,-0.515624 1.16015,-1.15625 0,-0.644531 -0.51562,-1.160156 -1.16015,-1.160156 z M 498.46875,36.738281 c 1.88672,8.589844 6.14062,16.273438 12.02344,22.457031 L 498.46875,71.21875 486.44531,59.195312 c 5.83985,-6.140624 10.08985,-13.867187 12.02344,-22.457031 z M 462.3125,72.851562 c 8.62891,-1.890624 16.31641,-6.140624 22.45703,-12.023437 l 12.02344,12.023437 -12.02344,12.019532 C 478.62891,78.988281 470.89844,74.78125 462.3125,72.851562 Z m 36.15625,36.109378 c -1.93359,-8.58985 -6.18359,-16.27344 -12.02344,-22.457034 l 12.02344,-11.980468 1.50391,1.460937 10.51953,10.519531 C 504.60937,92.6875 500.35547,100.32813 498.46875,108.96094 Z M 512.125,84.871094 500.10156,72.851562 512.125,60.828125 c 6.14062,5.882813 13.86719,10.132813 22.45703,12.023437 -8.58984,1.929688 -16.31641,6.136719 -22.45703,12.019532 z m 0,0"
       id="path8" />
    <path
       style="fill:#f4cb1e;fill-opacity:1;fill-rule:nonzero;stroke:none"
       d="m 323.05469,119.30859 c 0,-24.988278 20.30859,-45.300778 45.30078,-45.300778 0.64453,0 1.16015,-0.515624 1.16015,-1.15625 0,-0.644531 -0.51562,-1.160156 -1.16015,-1.160156 -24.99219,0 -45.30078,-20.308594 -45.30078,-45.300781 0,-0.644531 -0.51563,-1.160156 -1.16016,-1.160156 -0.64453,0 -1.16016,0.515625 -1.16016,1.160156 0,24.992187 -20.3125,45.300781 -45.30468,45.300781 -0.64453,0 -1.16016,0.515625 -1.16016,1.160156 0,0.640626 0.51563,1.15625 1.16016,1.15625 24.99218,0 45.30468,20.3125 45.30468,45.300778 0,0.64454 0.51563,1.16016 1.16016,1.16016 0.64453,0 1.16016,-0.51562 1.16016,-1.16016 z m 34.95312,-46.457028 c -8.58984,1.929688 -16.27734,6.136719 -22.45703,12.019532 L 323.52344,72.851562 335.55078,60.828125 c 6.17969,5.882813 13.86719,10.132813 22.45703,12.023437 z M 321.89453,36.738281 c 1.92969,8.589844 6.14063,16.316407 12.02344,22.457031 L 321.89453,71.21875 309.87109,59.195312 c 5.88282,-6.183593 10.13282,-13.867187 12.02344,-22.457031 z m -36.11328,36.113281 c 8.58594,-1.890624 16.27344,-6.140624 22.45703,-12.023437 l 12.02344,12.023437 -12.02344,12.019532 C 302.05469,78.988281 294.36719,74.78125 285.78125,72.851562 Z m 24.08984,13.652344 12.02344,-12.023437 12.02344,12.023437 c -5.88281,6.183594 -10.09375,13.867184 -12.02344,22.500004 -1.89062,-8.63282 -6.14062,-16.31641 -12.02344,-22.500004 z m 0,0"
       id="path9" />
    <path
       style="fill:#f4cb1e;fill-opacity:1;fill-rule:nonzero;stroke:none"
       d="m 146.47656,295.86719 c 0,-24.99219 20.35547,-45.30078 45.30469,-45.30078 0.64453,0 1.16016,-0.51563 1.16016,-1.15625 0,-0.64454 -0.51563,-1.16016 -1.16016,-1.16016 -24.94922,0 -45.30469,-20.30859 -45.30469,-45.30078 0,-0.64453 -0.51562,-1.16016 -1.15625,-1.16016 -0.64453,0 -1.16015,0.51563 -1.16015,1.16016 0,24.99219 -20.3125,45.30078 -45.304691,45.30078 -0.644531,0 -1.160157,0.51562 -1.160157,1.16016 0,0.64062 0.515626,1.15625 1.160157,1.15625 24.992191,0 45.304691,20.30859 45.304691,45.30078 0,0.64453 0.51562,1.16015 1.16015,1.16015 0.64063,0 1.15625,-0.51562 1.15625,-1.16015 z m 35,-46.45703 c -8.58984,1.88671 -16.32031,6.13671 -22.46094,12.01953 l -12.02343,-12.01953 12.02343,-12.02344 c 6.14063,5.88281 13.8711,10.08984 22.46094,12.02344 z m -36.15625,-36.15625 c 1.92969,8.63281 6.17969,16.3164 12.02344,22.5 l -12.02344,12.02343 -12.02734,-12.02343 c 5.88672,-6.1836 10.13672,-13.86719 12.02734,-22.5 z m -36.11718,36.15625 c 8.58984,-1.9336 16.32031,-6.14063 22.46093,-12.02344 l 12.02344,12.02344 -12.02344,12.01953 c -6.14062,-5.88282 -13.87109,-10.13282 -22.46093,-12.01953 z m 24.08984,13.65234 12.02734,-12.02344 12.02344,12.02344 c -5.84375,6.18359 -10.09375,13.86719 -12.02344,22.45703 -1.89062,-8.58984 -6.14062,-16.27344 -12.02734,-22.45703 z m 0,0"
       id="path10" />
    <path
       style="fill:#f4cb1e;fill-opacity:1;fill-rule:nonzero;stroke:none"
       d="m 144.16016,26.390625 c 0,24.992187 -20.3125,45.300781 -45.304691,45.300781 -0.644531,0 -1.160157,0.515625 -1.160157,1.160156 0,0.640626 0.515626,1.15625 1.160157,1.15625 24.992191,0 45.304691,20.3125 45.304691,45.300778 0,0.64454 0.51562,1.16016 1.16015,1.16016 0.64063,0 1.15625,-0.51562 1.15625,-1.16016 0,-24.988278 20.35547,-45.300778 45.30469,-45.300778 0.64453,0 1.16016,-0.515624 1.16016,-1.15625 0,-0.644531 -0.51563,-1.160156 -1.16016,-1.160156 -24.94922,0 -45.30469,-20.308594 -45.30469,-45.300781 0,-0.644531 -0.51562,-1.160156 -1.15625,-1.160156 -0.64453,0 -1.16015,0.515625 -1.16015,1.160156 z m -34.95703,46.460937 c 8.58984,-1.890624 16.32031,-6.140624 22.46093,-12.023437 L 143.6875,72.851562 131.66406,84.871094 C 125.52344,78.988281 117.79297,74.78125 109.20313,72.851562 Z m 36.11718,36.152348 c -1.89062,-8.63282 -6.14062,-16.31641 -12.02734,-22.500004 l 12.02734,-12.023437 12.02344,12.023437 C 151.5,92.6875 147.25,100.37109 145.32031,109.00391 Z m 36.15625,-36.152348 c -8.58984,1.929688 -16.32031,6.136719 -22.46094,12.019532 L 146.99219,72.851562 159.01562,60.828125 c 6.14063,5.882813 13.82813,10.132813 22.46094,12.023437 z M 157.34375,59.195312 145.32031,71.21875 133.29297,59.195312 c 5.88672,-6.140624 10.13672,-13.867187 12.02734,-22.457031 1.92969,8.589844 6.17969,16.316407 12.02344,22.457031 z m 0,0"
       id="path11" />
    <g
       clip-rule="nonzero"
       clip-path="url(#202ad916a8)"
       id="g12">
      <path
         style="fill:#ff9a2c;fill-opacity:1;fill-rule:nonzero;stroke:none"
         d="m 1255.1211,516.78516 c -14.7617,-22.8711 -41.5391,-28.30469 -55.5,-29.52735 v -59.34765 h -73.4023 c -2.4258,-9.9375 -8.2774,-29.35547 -21.2266,-54.35938 C 1087.9102,340.58203 1054.5703,291 992.68359,242.00391 939.53906,199.91797 845.76562,167.42187 798.73828,154.85156 740.55469,139.30078 715.72656,114.73047 682.08203,65.53125 l -7.08984,-10.363281 -7.09375,10.363281 c -33.64063,49.19531 -58.46485,73.76953 -116.65235,89.32031 -47.02734,12.57031 -140.79297,45.06641 -193.94531,87.15235 C 295.41797,291 262.07031,340.58203 244.99609,373.55078 c -12.94922,25.00391 -18.80078,44.42188 -21.23047,54.35938 h -73.40234 v 59.34765 c -13.95703,1.22266 -40.73437,6.65625 -55.499999,29.52735 H 0.820312 v 17.17578 H 105.35547 c 11.81641,-30.85157 51.55859,-29.92969 53.26562,-29.85938 l 8.91797,0.34766 v -59.36328 h 63.1836 c 4.24609,0 7.85546,-3.10157 8.49218,-7.29688 0.14063,-0.91406 15.22657,-92.4414 128.7461,-182.32031 50.94922,-40.33984 141.96875,-71.79688 187.72265,-84.02344 58.79688,-15.71484 87.0586,-40.76953 119.3086,-86.046872 32.25,45.277342 60.51562,70.332032 119.30859,86.046872 45.75,12.22656 136.77344,43.6836 187.72266,84.02344 59.10936,46.80078 90.96876,93.88672 107.28126,125.14844 17.6719,33.85547 21.4336,56.96484 21.4648,57.17187 0.6407,4.19531 4.2461,7.29688 8.4922,7.29688 h 63.1836 v 59.36328 l 8.918,-0.34766 c 0.4414,0.008 41.3633,-1.16797 53.2656,29.85938 h 104.5508 v -17.17578 z m 0,0"
         id="path12" />
    </g>
  </g>
</svg>
