<svg width="30" height="30" viewBox="0 0 30 30" fill="none" xmlns="http://www.w3.org/2000/svg">
<path d="M15 28.3332C22.3638 28.3332 28.3333 22.3636 28.3333 14.9998C28.3333 7.63604 22.3638 1.6665 15 1.6665C7.63616 1.6665 1.66663 7.63604 1.66663 14.9998C1.66663 22.3636 7.63616 28.3332 15 28.3332Z" fill="#9747FF"/>
<path d="M9.66663 14.9998L15 20.3332L20.3333 14.9998" fill="#9747FF"/>
<path d="M9.66663 14.9998L15 20.3332M15 20.3332L20.3333 14.9998M15 20.3332L15 9.6665M28.3333 14.9998C28.3333 22.3636 22.3638 28.3332 15 28.3332C7.63616 28.3332 1.66663 22.3636 1.66663 14.9998C1.66663 7.63604 7.63616 1.6665 15 1.6665C22.3638 1.6665 28.3333 7.63604 28.3333 14.9998Z" stroke="white" stroke-width="3" stroke-linecap="round" stroke-linejoin="round"/>
</svg>
