<svg width="47" height="47" viewBox="0 0 47 47" fill="none" xmlns="http://www.w3.org/2000/svg">
<path d="M29.7797 0.806103C28.5312 0.47157 27.2754 1.06998 26.1372 2.08172C25.0007 3.09391 23.8778 4.58791 22.7649 6.47712C21.9473 7.86381 21.1494 9.52338 20.3725 11.2974C16.684 8.56954 13.3081 6.74611 10.7194 6.21304C9.2296 5.90664 7.84403 6.0171 6.93075 6.92853C6.01657 7.84329 5.90712 9.2306 6.21439 10.7207C6.52122 12.2124 7.2544 13.9307 8.33472 15.8384C9.13199 17.251 10.1793 18.7824 11.3384 20.3561C9.54774 21.1395 7.87459 21.9437 6.47873 22.7651C4.58885 23.8787 3.09593 25.0024 2.08358 26.1371C1.072 27.2755 0.473139 28.5317 0.807902 29.7793C1.03215 30.6137 1.65083 31.2612 2.43082 31.7129C3.03442 32.0637 3.78535 32.3042 4.60517 32.5007C4.66868 33.3906 5.00699 34.2388 5.57335 34.9281C6.13972 35.6175 6.90619 36.1139 7.76687 36.3488C10.0574 36.9626 12.4299 35.5929 13.0436 33.3023C13.0856 33.1458 13.0974 32.9884 13.1213 32.8325C13.6162 32.7902 14.122 32.7402 14.638 32.6857C14.4223 34.6227 14.2804 36.4705 14.2946 38.089C14.3137 40.2815 14.5392 42.1368 15.0173 43.5817C15.4972 45.027 16.2856 46.1731 17.5341 46.5076C18.7825 46.8422 20.0384 46.2438 21.1766 45.232C22.3131 44.2198 23.436 42.7258 24.5489 40.8366C25.3734 39.4375 26.1758 37.7613 26.9609 35.9698C27.8471 36.6184 28.7537 37.2386 29.6795 37.8294C29.3575 39.1776 30.1714 40.5679 31.5181 40.9288C31.9629 41.0444 32.4305 41.0393 32.8726 40.9141C33.3148 40.7889 33.7156 40.5481 34.0338 40.2165C35.2266 40.7253 36.3399 41.0985 37.3254 41.2092C38.5033 41.341 39.6207 41.1462 40.3835 40.3835C41.2977 39.4688 41.4067 38.0831 41.0994 36.5931C40.7926 35.1014 40.0594 33.383 38.9791 31.4753C38.1818 30.0627 37.1345 28.5314 35.9754 26.9576C37.7661 26.1742 39.4392 25.37 40.8351 24.5487C42.7249 23.435 44.2179 22.3114 45.2302 21.1767C46.2418 20.0382 46.8407 18.7821 46.5059 17.5344C46.2958 16.7538 45.7407 16.1287 45.0325 15.682C44.326 15.2358 43.4504 14.928 42.4211 14.7075C39.9731 14.1818 36.5889 14.1671 32.6708 14.607C32.8314 13.2054 32.9313 11.7976 32.97 10.3873C33.7066 10.1996 34.3802 9.81979 34.922 9.28669C35.4639 8.75358 35.8546 8.08626 36.0543 7.35282C36.6681 5.06225 35.2984 2.68983 33.0078 2.07607C32.479 1.93543 31.9281 1.89806 31.3852 1.966C30.9717 1.4181 30.4456 0.984521 29.7797 0.806103ZM29.3337 2.47076C29.3936 2.48682 29.461 2.58159 29.5274 2.66005C28.6467 3.23258 28.0073 4.10909 27.731 5.12261C27.5009 5.98157 27.5503 6.84941 27.8213 7.63571L27.8208 7.63738C28.0958 8.42718 28.5915 9.12159 29.2491 9.63831C29.6918 9.98354 30.2049 10.2459 30.7776 10.3994C30.9241 10.4386 31.0686 10.4452 31.2158 10.4686C31.185 11.8021 31.0581 13.281 30.8859 14.8228C29.257 15.0554 27.5397 15.3785 25.7763 15.7606C24.4865 14.5843 23.1551 13.4545 21.7845 12.3734C22.5903 10.4982 23.4204 8.76522 24.2518 7.35368C25.3082 5.56176 26.3635 4.18702 27.284 3.36851C28.2066 2.54879 28.8892 2.35167 29.3337 2.47076ZM32.5618 3.74073C33.9601 4.1154 34.7644 5.50847 34.3897 6.90678C34.1149 7.93221 33.2888 8.63149 32.3176 8.78697L32.0811 8.80389C31.7777 8.82429 31.4966 8.80785 31.2236 8.7347C30.6993 8.5942 30.2584 8.30837 29.932 7.93542C29.7152 7.687 29.5488 7.39882 29.4421 7.08692L29.443 7.08359C29.333 6.7654 29.2868 6.42867 29.307 6.09263L29.3079 6.0893C29.3334 5.69165 29.4509 5.30535 29.6513 4.96094L29.7025 4.87652C29.803 4.71188 29.9223 4.55943 30.0579 4.42223L30.0835 4.3934C30.3967 4.09016 30.7896 3.86894 31.2184 3.75366L31.472 3.68603L31.5316 3.66989C31.8647 3.62533 32.2122 3.64706 32.5618 3.74073ZM10.3699 7.90357C12.5391 8.35099 15.8908 10.1715 19.6476 12.9641C19.0269 14.5017 18.4377 16.1476 17.881 17.879C16.2187 18.4087 14.576 18.9981 12.9561 19.6459C11.7308 18.0063 10.6425 16.4211 9.83385 14.9912C8.81004 13.1789 8.15221 11.5789 7.90498 10.3708C7.65687 9.16598 7.8261 8.47446 8.15054 8.14925C8.47708 7.82282 9.16301 7.65334 10.3699 7.90357ZM42.0616 16.3954C42.9559 16.5868 43.6559 16.8511 44.1117 17.1409C44.5701 17.4279 44.7645 17.7012 44.8401 17.9784C44.958 18.4239 44.7604 19.1078 43.9411 20.0284C43.1229 20.951 41.752 22.0057 39.9608 23.0637C38.5455 23.8977 36.8084 24.7276 34.9253 25.5362C33.8474 24.1655 32.7206 22.834 31.547 21.5443C31.9154 19.8383 32.2212 18.1194 32.4639 16.3911C36.4616 15.9207 39.8465 15.9196 42.0616 16.3954ZM30.6628 16.6275C30.5074 17.7135 30.3115 18.8439 30.0877 19.9989C29.6333 19.5239 29.214 19.0512 28.7384 18.5758C28.266 18.1013 27.7943 17.6645 27.3195 17.2125C28.4291 16.9909 29.5438 16.7958 30.6628 16.6275ZM21.0635 14.0589C21.9299 14.7407 22.8063 15.4715 23.6946 16.2448C23.0646 16.3989 22.4372 16.543 21.7951 16.7153C21.1417 16.89 20.5342 17.0929 19.899 17.2796C20.2755 16.1672 20.6613 15.0805 21.0651 14.0594L21.0635 14.0589ZM25.2627 17.6373C26.0152 18.3314 26.7694 19.0456 27.5214 19.7948C28.2738 20.5495 28.9592 21.3005 29.6556 22.0509C29.432 23.0454 29.2095 24.0421 28.9339 25.0708C28.6587 26.0979 28.3489 27.0676 28.0478 28.0449C27.069 28.3482 26.0994 28.6576 25.0731 28.9321C24.0485 29.2071 23.0457 29.4469 22.0571 29.6673C21.2874 28.9665 20.5325 28.2496 19.7928 27.5173C19.0413 26.7664 18.3579 26.0141 17.6615 25.2637C17.8882 24.2646 18.1064 23.2705 18.3816 22.2434C18.6573 21.2146 18.9654 20.2445 19.269 19.2643C20.2457 18.9622 21.216 18.6566 22.2407 18.3816C23.2595 18.1086 24.2711 17.8623 25.2627 17.6373ZM24.772 19.4952C23.6684 19.2023 22.4937 19.3584 21.5048 19.9293C20.5159 20.5003 19.7934 21.4395 19.4953 22.5418C18.8815 24.8323 20.2512 27.2048 22.5418 27.8185C24.8324 28.4323 27.2048 27.0626 27.8185 24.772C28.4323 22.4814 27.0626 20.109 24.772 19.4952ZM24.326 21.1599C25.7243 21.5346 26.5286 22.9276 26.1539 24.3259C25.7792 25.7243 24.3861 26.5285 22.9878 26.1539C21.5895 25.7792 20.7852 24.3861 21.1599 22.9878C21.5346 21.5895 22.9276 20.7852 24.326 21.1599ZM17.2798 19.8963C17.0931 20.5332 16.8927 21.1414 16.7169 21.7973C16.5412 22.4532 16.4111 23.0785 16.2548 23.7217C15.4909 22.8581 14.7481 21.9761 14.0268 21.0765C15.1015 20.6569 16.1861 20.2634 17.2798 19.8963ZM31.059 23.592C31.8408 24.4831 32.5988 25.3695 33.2869 26.2372C32.2571 26.6446 31.1574 27.0333 30.0349 27.4141C30.2211 26.7789 30.4211 26.1723 30.5969 25.5164C30.7726 24.8606 30.9027 24.2353 31.059 23.592ZM12.3847 21.7784C13.4082 23.0857 14.5421 24.4207 15.7664 25.7711C15.3847 27.5351 15.0734 29.243 14.8419 30.8724C14.2259 30.941 13.6089 31.013 13.0199 31.0603C12.8538 30.4475 12.554 29.8789 12.1421 29.3956C11.7302 28.9123 11.2165 28.5262 10.6377 28.265C10.1842 28.0425 9.6896 27.9161 9.18497 27.8936C8.25149 27.8317 7.32326 28.0755 6.54074 28.5882C5.75823 29.101 5.16403 29.8546 4.84807 30.7352C4.25545 30.5764 3.64684 30.424 3.29706 30.2179C2.77544 29.914 2.55377 29.6226 2.47463 29.332C2.35582 28.8898 2.5538 28.2042 3.37318 27.2837C4.19134 26.361 5.56227 25.3064 7.3534 24.2484C8.7687 23.4144 10.5037 22.5857 12.3863 21.7788L12.3847 21.7784ZM34.3582 27.6661C35.5835 29.3058 36.6717 30.8909 37.4804 32.3209C38.5042 34.1332 39.162 35.7332 39.4093 36.9413C39.6574 38.1461 39.4881 38.8376 39.1637 39.1628C38.8958 39.4301 38.404 39.5944 37.5185 39.4963C36.8084 39.4167 35.8095 39.0562 34.7635 38.6118C34.8018 38.0144 34.633 37.422 34.2856 36.9344C33.9382 36.4468 33.4335 36.0938 32.8563 35.9348C32.0639 35.7225 31.2584 35.9188 30.6424 36.38C29.6311 35.7297 28.6422 35.0452 27.6774 34.3277C28.2926 32.7976 28.88 31.1583 29.4344 29.4352C31.0962 28.9053 32.7384 28.3158 34.3577 27.6678L34.3582 27.6661ZM17.2142 27.2992C17.671 27.7784 18.094 28.2575 18.5742 28.7358C19.047 29.2087 19.519 29.6313 19.9909 30.0807C18.8342 30.3024 17.7094 30.4917 16.6191 30.6456C16.7903 29.5254 16.9898 28.4099 17.2142 27.2992ZM27.4153 30.0325C27.04 31.1399 26.6544 32.2194 26.2536 33.2361C25.3591 32.5335 24.4825 31.8084 23.6247 31.0615C24.2543 30.9091 24.8771 30.769 25.5192 30.5967C26.1726 30.4221 26.78 30.2191 27.4153 30.0325ZM21.5389 31.5481C22.8994 32.7762 24.235 33.871 25.5493 34.8922C24.7382 36.7873 23.9003 38.5361 23.0624 39.9584C22.006 41.7503 20.9507 43.1251 20.0302 43.9436C19.1076 44.7633 18.4255 44.9587 17.981 44.8397C17.5365 44.7206 17.0435 44.2102 16.6543 43.039C16.2664 41.8699 16.0399 40.1517 16.0214 38.07C16.0056 36.4243 16.1575 34.4988 16.3997 32.4566C18.123 32.2168 19.8371 31.9143 21.5384 31.5498L21.5389 31.5481ZM9.55105 29.6902C9.81406 29.7607 10.0479 29.8733 10.263 30.0094L10.3499 30.0648C11.0123 30.5224 11.4199 31.265 11.4518 32.0782L11.4638 32.3598C11.4502 32.5238 11.4236 32.6898 11.379 32.8562C11.0043 34.2546 9.61123 35.0588 8.21292 34.6842C7.65035 34.5384 7.15426 34.2053 6.80644 33.7398C6.45861 33.2742 6.27983 32.704 6.29957 32.1232L6.32224 31.9188C6.33345 31.7839 6.35442 31.65 6.38499 31.5181C6.43138 31.345 6.49397 31.178 6.57098 31.0238L6.57187 31.0204C6.64676 30.8674 6.7403 30.7248 6.84159 30.5931L6.84292 30.5881C7.09844 30.2569 7.4317 29.9939 7.81319 29.8222C8.19467 29.6506 8.61259 29.5756 9.02994 29.6041C9.20367 29.6149 9.37626 29.6434 9.55105 29.6902ZM32.4102 37.5995C32.8863 37.727 33.1471 38.1787 33.0195 38.6548C33.0467 38.5533 33.0337 38.5819 32.9353 38.7893L32.8374 38.995C32.7334 39.1194 32.5956 39.211 32.4406 39.2588C32.2857 39.3066 32.1202 39.3084 31.9642 39.2641C31.8534 39.2374 31.7492 39.1884 31.6579 39.1201C31.5666 39.0519 31.4902 38.9658 31.4332 38.8671C31.3762 38.7684 31.3399 38.6591 31.3264 38.546C31.313 38.4328 31.3226 38.3181 31.3549 38.2088C31.3669 38.1638 31.3938 38.13 31.4121 38.0885L31.4825 37.9789C31.5761 37.8277 31.7126 37.7077 31.8745 37.6343C31.8889 37.6275 31.9056 37.6248 31.9207 37.6217C31.9827 37.598 32.0474 37.5823 32.1134 37.5752C32.213 37.5667 32.3133 37.5749 32.4102 37.5995Z" fill="white"/>
</svg>
