<svg width="61" height="66" viewBox="0 0 61 66" fill="none" xmlns="http://www.w3.org/2000/svg">
<path d="M20.9759 64.8916C21.9918 64.9706 23.0103 65.012 24.0292 65.0157C25.4083 65.0036 26.7859 64.9226 28.1569 64.7729C29.5278 64.6229 30.8905 64.4044 32.2396 64.1183C33.5881 63.8319 34.9215 63.4781 36.2347 63.0585C37.5479 62.6398 38.8393 62.1558 40.1042 61.6082C41.37 61.0595 42.6075 60.4479 43.8121 59.7756C45.0157 59.103 46.185 58.3707 47.3154 57.5813C48.4477 56.7928 49.5399 55.948 50.5878 55.0503C51.6345 54.1526 52.6356 53.2032 53.5874 52.2055C54.5384 51.2074 55.4388 50.1625 56.2854 49.0746C57.1332 47.9865 57.926 46.8568 58.6608 45.6895C59.3951 44.5226 60.0705 43.3197 60.6846 42.0854C60.6993 42.053 60.7139 42.0207 60.7284 41.9883L46.2862 16.976L46.2371 16.8861C46.2176 16.8524 46.185 16.8276 46.1634 16.795C46.0521 16.6174 45.9232 16.4514 45.7788 16.2994C45.555 16.0644 45.3039 15.8569 45.0309 15.6815C44.326 15.2358 43.4487 14.9275 42.4228 14.7079C42.1999 14.6607 41.9294 14.6382 41.6918 14.5995L35.6303 4.10797L35.6181 4.08686C35.1992 3.35634 34.5742 2.76553 33.8213 2.3883C33.0685 2.01108 32.2211 1.86419 31.3852 1.966C31.0894 1.55582 30.7024 1.22 30.2546 0.985072C30.1026 0.909761 29.9436 0.849809 29.7797 0.806106C28.5313 0.471573 27.2754 1.06998 26.1372 2.08172C25.0007 3.09391 23.8778 4.58791 22.7649 6.47713C21.9473 7.86381 21.1494 9.52338 20.3725 11.2974C16.684 8.56954 13.3081 6.74611 10.7194 6.21304C9.2296 5.90664 7.84403 6.0171 6.93075 6.92853C6.01657 7.84329 5.90712 9.2306 6.21439 10.7207C6.52122 12.2124 7.2544 13.9307 8.33472 15.8384L8.44793 16.0418L8.48173 16.0955L11.0229 20.5018C9.35668 21.24 7.79016 21.9924 6.47873 22.7651C4.58885 23.8787 3.09593 25.0024 2.08358 26.1371C1.072 27.2755 0.473138 28.5317 0.807902 29.7793C0.867367 29.9968 0.955489 30.2007 1.06305 30.3918L1.07423 30.4234L20.9742 64.8911L20.9759 64.8916Z" fill="#154082"/>
</svg>
