<svg width="84" height="84" viewBox="0 0 84 84" fill="none" xmlns="http://www.w3.org/2000/svg">
<path d="M30.9518 81.6088C53.0166 87.521 75.6964 74.4268 81.6087 52.362C87.5209 30.2972 74.4267 7.61729 52.362 1.70505C30.2972 -4.20718 7.61731 8.88714 1.70507 30.9519C-4.20716 53.0167 8.88705 75.6965 30.9518 81.6088Z" fill="#1D67B1"/>
<path d="M38.9759 82.8916C39.9918 82.9706 41.0103 83.012 42.0292 83.0157C43.4083 83.0036 44.7859 82.9226 46.1569 82.7729C47.5278 82.6229 48.8905 82.4044 50.2396 82.1183C51.5881 81.8319 52.9215 81.4781 54.2347 81.0585C55.5479 80.6398 56.8393 80.1558 58.1042 79.6082C59.37 79.0595 60.6075 78.4479 61.8121 77.7756C63.0157 77.103 64.185 76.3707 65.3154 75.5813C66.4477 74.7928 67.5399 73.948 68.5878 73.0503C69.6345 72.1526 70.6356 71.2032 71.5874 70.2055C72.5384 69.2074 73.4388 68.1625 74.2854 67.0746C75.1332 65.9865 75.926 64.8568 76.6608 63.6895C77.3951 62.5226 78.0705 61.3197 78.6846 60.0854C78.6993 60.053 78.7139 60.0207 78.7284 59.9883L64.2862 34.976L64.2371 34.8861C64.2176 34.8524 64.185 34.8276 64.1634 34.795C64.0521 34.6174 63.9232 34.4514 63.7788 34.2994C63.555 34.0644 63.3039 33.8569 63.0309 33.6815C62.326 33.2358 61.4487 32.9275 60.4228 32.7079C60.1999 32.6607 59.9294 32.6382 59.6918 32.5995L53.6303 22.108L53.6181 22.0869C53.1992 21.3563 52.5742 20.7655 51.8213 20.3883C51.0685 20.0111 50.2211 19.8642 49.3852 19.966C49.0894 19.5558 48.7024 19.22 48.2546 18.9851C48.1026 18.9098 47.9436 18.8498 47.7797 18.8061C46.5313 18.4716 45.2754 19.07 44.1372 20.0817C43.0007 21.0939 41.8778 22.5879 40.7649 24.4771C39.9473 25.8638 39.1494 27.5234 38.3725 29.2974C34.684 26.5695 31.3081 24.7461 28.7194 24.213C27.2296 23.9066 25.844 24.0171 24.9307 24.9285C24.0166 25.8433 23.9071 27.2306 24.2144 28.7207C24.5212 30.2124 25.2544 31.9307 26.3347 33.8384L26.4479 34.0418L26.4817 34.0955L29.0229 38.5018C27.3567 39.24 25.7902 39.9924 24.4787 40.7651C22.5888 41.8787 21.0959 43.0024 20.0836 44.1371C19.072 45.2755 18.4731 46.5317 18.8079 47.7793C18.8674 47.9968 18.9555 48.2007 19.0631 48.3918L19.0742 48.4234L38.9742 82.8911L38.9759 82.8916Z" fill="#154082"/>
</svg>
