<svg width="119" height="119" viewBox="0 0 119 119" fill="none" xmlns="http://www.w3.org/2000/svg">
<path d="M44.625 109.083C41.65 109.083 39.6666 107.1 39.6666 104.125V89.2501H19.8333C14.3791 89.2501 9.91663 84.7876 9.91663 79.3334V19.8334C9.91663 14.3792 14.3791 9.91675 19.8333 9.91675H99.1666C104.621 9.91675 109.083 14.3792 109.083 19.8334V79.3334C109.083 84.7876 104.621 89.2501 99.1666 89.2501H68.9208L50.575 107.596C49.5833 108.588 48.5916 109.083 47.1041 109.083H44.625ZM49.5833 79.3334V94.7042L64.9541 79.3334H99.1666V19.8334H19.8333V79.3334H49.5833ZM80.8208 29.7501L73.8791 44.6251H84.2916V64.4584H64.4583V43.6334L70.9041 29.7501H80.8208ZM51.0708 29.7501L44.1291 44.6251H54.5416V64.4584H34.7083V43.6334L41.1541 29.7501H51.0708Z" fill="white"/>
</svg>
