<svg width="176" height="115" viewBox="0 0 176 115" fill="none" xmlns="http://www.w3.org/2000/svg">
<path d="M88 10C81.9663 10 76.1798 12.5022 71.9133 16.9562C67.6469 21.4102 65.25 27.4511 65.25 33.75C65.25 40.0489 67.6469 46.0898 71.9133 50.5438C76.1798 54.9978 81.9663 57.5 88 57.5C94.0337 57.5 99.8202 54.9978 104.087 50.5438C108.353 46.0898 110.75 40.0489 110.75 33.75C110.75 27.4511 108.353 21.4102 104.087 16.9562C99.8202 12.5022 94.0337 10 88 10ZM88 23.5714C90.5859 23.5714 93.0658 24.6438 94.8943 26.5527C96.7228 28.4615 97.75 31.0505 97.75 33.75C97.75 36.4495 96.7228 39.0385 94.8943 40.9473C93.0658 42.8562 90.5859 43.9286 88 43.9286C85.4141 43.9286 82.9342 42.8562 81.1057 40.9473C79.2772 39.0385 78.25 36.4495 78.25 33.75C78.25 31.0505 79.2772 28.4615 81.1057 26.5527C82.9342 24.6438 85.4141 23.5714 88 23.5714ZM45.75 30.3571C41.4402 30.3571 37.307 32.1444 34.2595 35.3259C31.212 38.5073 29.5 42.8222 29.5 47.3214C29.5 53.7 32.945 59.1964 37.885 62.1143C40.225 63.4714 42.89 64.2857 45.75 64.2857C48.61 64.2857 51.275 63.4714 53.615 62.1143C56.02 60.6893 58.035 58.6536 59.53 56.2107C54.7946 49.7682 52.2349 41.8706 52.25 33.75V31.85C50.3 30.9 48.09 30.3571 45.75 30.3571ZM130.25 30.3571C127.91 30.3571 125.7 30.9 123.75 31.85V33.75C123.75 41.8929 121.215 49.7643 116.47 56.2107C117.25 57.5 118.095 58.5179 119.07 59.5357C122.067 62.5708 126.075 64.2737 130.25 64.2857C133.11 64.2857 135.775 63.4714 138.115 62.1143C143.055 59.1964 146.5 53.7 146.5 47.3214C146.5 42.8222 144.788 38.5073 141.74 35.3259C138.693 32.1444 134.56 30.3571 130.25 30.3571ZM88 71.0714C72.79 71.0714 42.5 79.0107 42.5 94.8214V105H133.5V94.8214C133.5 79.0107 103.21 71.0714 88 71.0714ZM40.615 74.8036C28.07 76.3643 10 83.0143 10 94.8214V105H29.5V91.9036C29.5 85.05 33.985 79.35 40.615 74.8036ZM135.385 74.8036C142.015 79.35 146.5 85.05 146.5 91.9036V105H166V94.8214C166 83.0143 147.93 76.3643 135.385 74.8036ZM88 84.6429C97.945 84.6429 109.06 88.0357 115.495 91.4286H60.505C66.94 88.0357 78.055 84.6429 88 84.6429Z" fill="white"/>
</svg>
