<svg width="59" height="53" viewBox="0 0 59 53" fill="none" xmlns="http://www.w3.org/2000/svg">
<path fill-rule="evenodd" clip-rule="evenodd" d="M17.8023 27.8731C17.4308 28.6447 17.1072 29.297 16.7998 29.9575C15.2612 33.2656 13.9867 36.6655 13.3289 40.2673C12.9629 42.2705 12.7629 44.2885 13.286 46.2996C13.7355 48.0276 14.6707 48.9149 16.2706 48.9882C16.9708 49.0209 17.7032 48.8725 18.3849 48.6803C20.19 48.1691 21.7604 47.1818 23.2792 46.1124C23.6479 45.8525 24.025 45.6902 24.485 45.8612C25.2999 46.1645 25.5949 47.2449 24.9077 47.758C22.4274 49.6059 19.8023 51.1993 16.5882 51.298C13.9558 51.3791 12.0503 49.9672 11.2104 47.4579C10.5836 45.5856 10.5467 43.6598 10.7767 41.7275C11.4598 35.976 13.6797 30.7503 16.3453 25.6846C16.5744 25.2495 16.5882 24.9038 16.426 24.4387C15.7604 22.5272 15.1413 20.5991 14.5333 18.6682C14.4181 18.3022 14.3001 18.1981 13.9028 18.2852C11.2911 18.8595 8.71815 19.5606 6.40148 20.9328C5.5068 21.4629 4.64854 22.1211 3.93316 22.8724C2.74348 24.1216 2.7209 25.5039 3.69301 26.9301C4.54114 28.175 5.73635 29.0264 6.99747 29.7957C7.39204 30.0372 7.80826 30.2428 8.20559 30.4797C8.78314 30.825 8.98089 31.4943 8.6845 32.0511C8.3872 32.6083 7.72022 32.8291 7.11455 32.5175C5.34271 31.6067 3.69025 30.5258 2.36505 29.0093C1.55288 28.0801 0.957809 27.0356 0.760989 25.7975C0.51577 24.2534 0.95827 22.8927 1.88568 21.6703C2.84212 20.4106 4.09818 19.5117 5.46947 18.765C7.90137 17.4407 10.5218 16.6498 13.2137 16.0667C13.3981 16.0266 13.5806 15.9768 13.8304 15.9146C13.7037 15.1964 13.5677 14.4995 13.4589 13.7975C13.0178 10.9424 12.8145 8.08509 13.5156 5.23926C13.7931 4.11365 14.2287 3.0498 14.9864 2.15328C16.5333 0.324742 18.5228 -0.0822657 20.7537 0.462562C22.9588 1.0014 24.8104 2.22242 26.5371 3.64349C27.0257 4.04543 27.039 4.77141 26.6403 5.23926C26.2333 5.71633 25.6005 5.77855 25.0464 5.40105C24.1762 4.80874 23.3299 4.17587 22.4255 3.64073C21.3893 3.02814 20.2766 2.59348 19.0367 2.58748C18.0125 2.58241 17.2165 2.9991 16.6329 3.82879C15.8936 4.88111 15.6295 6.09522 15.4898 7.34021C15.1943 9.97355 15.5451 12.5622 16.0581 15.1384C16.113 15.4121 16.2181 15.5089 16.5062 15.4799C18.585 15.2725 20.6643 15.0655 22.7463 14.8917C23.199 14.8544 23.4944 14.6908 23.7751 14.3359C26.4808 10.918 29.447 7.75321 32.9363 5.1125C34.88 3.64165 36.934 2.35932 39.2972 1.65916C40.7777 1.2208 42.2762 1.05855 43.7674 1.58264C45.6296 2.23717 46.6704 3.65225 47.2069 5.47848C47.7757 7.41719 47.6867 9.39369 47.4558 11.3697C47.3963 11.8758 47.3078 12.3796 47.2124 12.8802C47.0829 13.5615 46.5777 13.9224 45.8974 13.8431C45.2788 13.7712 44.875 13.2739 44.94 12.5834C45.0299 11.6311 45.247 10.6839 45.2567 9.7334C45.2682 8.60871 45.2442 7.45498 45.0101 6.36256C44.5219 4.09106 42.9506 3.20007 40.6261 3.71263C38.8824 4.09659 37.3359 4.91706 35.8637 5.88734C32.8395 7.88043 30.2578 10.3727 27.8609 13.0674C27.4152 13.5684 26.9865 14.0851 26.5532 14.5967C26.5269 14.6272 26.5288 14.6816 26.4956 14.8111H27.1229C33.2953 14.8733 39.3769 15.6071 45.3203 17.3177C48.1504 18.1326 50.8824 19.1946 53.3964 20.7586C54.734 21.5906 55.9619 22.5535 56.9331 23.81C58.9138 26.3728 58.7474 29.25 56.469 31.545C54.9304 33.0951 53.0354 34.0741 51.017 34.8347C50.4459 35.049 49.8172 34.7342 49.5987 34.1871C49.3585 33.586 49.619 32.9642 50.2302 32.6678C51.1622 32.2161 52.1315 31.8247 53.0129 31.2882C53.7402 30.8448 54.4335 30.2954 55.0166 29.6754C56.2505 28.3622 56.2961 26.9268 55.2498 25.4574C54.4662 24.3566 53.4134 23.5518 52.2814 22.8485C49.4881 21.1126 46.4228 20.0372 43.2668 19.1978C39.9766 18.3225 36.6339 17.7118 33.2391 17.4702C30.5339 17.278 27.8189 17.2227 25.1086 17.0941C24.7173 17.0752 24.4499 17.1909 24.2324 17.5265C22.6435 19.9768 21.0367 22.4156 19.4562 24.8715C19.3409 25.0504 19.2921 25.3721 19.3709 25.5615C22.0466 31.9289 25.4354 37.8722 29.9263 43.1486C31.8171 45.3689 33.8734 47.4224 36.3703 48.9762C37.542 49.705 38.7648 50.3129 40.1831 50.4074C41.4682 50.4941 42.4058 49.9562 43.0437 48.8656C43.6448 47.8382 43.8858 46.7015 43.9937 45.5335C44.3422 41.7644 43.5968 38.129 42.6086 34.5309C41.5964 30.8453 40.1638 27.3154 38.5224 23.8667C38.3901 23.5892 38.2818 23.2596 38.2961 22.9609C38.3223 22.4175 38.751 22.0308 39.2871 21.9469C39.7581 21.8731 40.2541 22.1322 40.4897 22.6373C41.0769 23.8948 41.6729 25.1499 42.2108 26.429C43.8711 30.3797 45.2078 34.4332 45.914 38.6729C46.4067 41.6321 46.6422 44.6019 45.9582 47.5662C45.8047 48.2291 45.5784 48.8877 45.2949 49.5068C44.1301 52.053 41.7683 53.2035 39.0317 52.6052C36.8068 52.118 34.9289 50.9555 33.1769 49.5667C29.9545 47.0126 27.34 43.8985 24.9754 40.5623C22.2799 36.7618 20.0033 32.7204 18.0959 28.47C18.0245 28.3119 17.9424 28.1584 17.8023 27.8731ZM16.6371 17.7556L18.1102 22.4405C19.2741 20.6641 20.3591 19.0084 21.5262 17.2259L16.6371 17.7556ZM29.7157 29.8496C27.8641 29.8473 26.3573 28.3465 26.361 26.5083C26.3642 24.6406 27.8692 23.1522 29.7517 23.1527C31.6019 23.1536 33.1054 24.653 33.1068 26.4968C33.1077 28.3622 31.6009 29.8519 29.7157 29.8496Z" fill="#FDF0F4"/>
</svg>
