<svg width="72" height="70" viewBox="0 0 72 70" fill="none" xmlns="http://www.w3.org/2000/svg">
<g filter="url(#filter0_d_231_145)">
<rect width="59" height="59" rx="29.5" fill="url(#paint0_linear_231_145)"/>
<path fill-rule="evenodd" clip-rule="evenodd" d="M17.8023 30.8731C17.4308 31.6447 17.1072 32.297 16.7998 32.9575C15.2612 36.2656 13.9867 39.6655 13.3289 43.2673C12.9629 45.2705 12.7629 47.2885 13.286 49.2996C13.7355 51.0276 14.6707 51.9149 16.2706 51.9882C16.9708 52.0209 17.7032 51.8725 18.3849 51.6803C20.19 51.1691 21.7604 50.1818 23.2792 49.1124C23.6479 48.8525 24.025 48.6902 24.485 48.8612C25.2999 49.1645 25.5949 50.2449 24.9077 50.758C22.4274 52.6059 19.8023 54.1993 16.5882 54.298C13.9558 54.3791 12.0503 52.9672 11.2104 50.4579C10.5836 48.5856 10.5467 46.6598 10.7767 44.7275C11.4598 38.976 13.6797 33.7503 16.3453 28.6846C16.5744 28.2495 16.5882 27.9038 16.426 27.4387C15.7604 25.5272 15.1413 23.5991 14.5333 21.6682C14.4181 21.3022 14.3001 21.1981 13.9028 21.2852C11.2911 21.8595 8.71815 22.5606 6.40148 23.9328C5.5068 24.4629 4.64854 25.1211 3.93316 25.8724C2.74348 27.1216 2.7209 28.5039 3.69301 29.9301C4.54114 31.175 5.73635 32.0264 6.99747 32.7957C7.39204 33.0372 7.80826 33.2428 8.20559 33.4797C8.78314 33.825 8.98089 34.4943 8.6845 35.0511C8.3872 35.6083 7.72022 35.8291 7.11455 35.5175C5.34271 34.6067 3.69025 33.5258 2.36505 32.0093C1.55288 31.0801 0.957809 30.0356 0.760989 28.7975C0.51577 27.2534 0.95827 25.8927 1.88568 24.6703C2.84212 23.4106 4.09818 22.5117 5.46947 21.765C7.90137 20.4407 10.5218 19.6498 13.2137 19.0667C13.3981 19.0266 13.5806 18.9768 13.8304 18.9146C13.7037 18.1964 13.5677 17.4995 13.4589 16.7975C13.0178 13.9424 12.8145 11.0851 13.5156 8.23926C13.7931 7.11365 14.2287 6.0498 14.9864 5.15328C16.5333 3.32474 18.5228 2.91773 20.7537 3.46256C22.9588 4.0014 24.8104 5.22242 26.5371 6.64349C27.0257 7.04543 27.039 7.77141 26.6403 8.23926C26.2333 8.71633 25.6005 8.77855 25.0464 8.40105C24.1762 7.80874 23.3299 7.17587 22.4255 6.64073C21.3893 6.02814 20.2766 5.59348 19.0367 5.58748C18.0125 5.58241 17.2165 5.9991 16.6329 6.82879C15.8936 7.88111 15.6295 9.09522 15.4898 10.3402C15.1943 12.9735 15.5451 15.5622 16.0581 18.1384C16.113 18.4121 16.2181 18.5089 16.5062 18.4799C18.585 18.2725 20.6643 18.0655 22.7463 17.8917C23.199 17.8544 23.4944 17.6908 23.7751 17.3359C26.4808 13.918 29.447 10.7532 32.9363 8.1125C34.88 6.64165 36.934 5.35932 39.2972 4.65916C40.7777 4.2208 42.2762 4.05855 43.7674 4.58264C45.6296 5.23717 46.6704 6.65225 47.2069 8.47848C47.7757 10.4172 47.6867 12.3937 47.4558 14.3697C47.3963 14.8758 47.3078 15.3796 47.2124 15.8802C47.0829 16.5615 46.5777 16.9224 45.8974 16.8431C45.2788 16.7712 44.875 16.2739 44.94 15.5834C45.0299 14.6311 45.247 13.6839 45.2567 12.7334C45.2682 11.6087 45.2442 10.455 45.0101 9.36256C44.5219 7.09106 42.9506 6.20007 40.6261 6.71263C38.8824 7.09659 37.3359 7.91706 35.8637 8.88734C32.8395 10.8804 30.2578 13.3727 27.8609 16.0674C27.4152 16.5684 26.9865 17.0851 26.5532 17.5967C26.5269 17.6272 26.5288 17.6816 26.4956 17.8111H27.1229C33.2953 17.8733 39.3769 18.6071 45.3203 20.3177C48.1504 21.1326 50.8824 22.1946 53.3964 23.7586C54.734 24.5906 55.9619 25.5535 56.9331 26.81C58.9138 29.3728 58.7474 32.25 56.469 34.545C54.9304 36.0951 53.0354 37.0741 51.017 37.8347C50.4459 38.049 49.8172 37.7342 49.5987 37.1871C49.3585 36.586 49.619 35.9642 50.2302 35.6678C51.1622 35.2161 52.1315 34.8247 53.0129 34.2882C53.7402 33.8448 54.4335 33.2954 55.0166 32.6754C56.2505 31.3622 56.2961 29.9268 55.2498 28.4574C54.4662 27.3566 53.4134 26.5518 52.2814 25.8485C49.4881 24.1126 46.4228 23.0372 43.2668 22.1978C39.9766 21.3225 36.6339 20.7118 33.2391 20.4702C30.5339 20.278 27.8189 20.2227 25.1086 20.0941C24.7173 20.0752 24.4499 20.1909 24.2324 20.5265C22.6435 22.9768 21.0367 25.4156 19.4562 27.8715C19.3409 28.0504 19.2921 28.3721 19.3709 28.5615C22.0466 34.9289 25.4354 40.8722 29.9263 46.1486C31.8171 48.3689 33.8734 50.4224 36.3703 51.9762C37.542 52.705 38.7648 53.3129 40.1831 53.4074C41.4682 53.4941 42.4058 52.9562 43.0437 51.8656C43.6448 50.8382 43.8858 49.7015 43.9937 48.5335C44.3422 44.7644 43.5968 41.129 42.6086 37.5309C41.5964 33.8453 40.1638 30.3154 38.5224 26.8667C38.3901 26.5892 38.2818 26.2596 38.2961 25.9609C38.3223 25.4175 38.751 25.0308 39.2871 24.9469C39.7581 24.8731 40.2541 25.1322 40.4897 25.6373C41.0769 26.8948 41.6729 28.1499 42.2108 29.429C43.8711 33.3797 45.2078 37.4332 45.914 41.6729C46.4067 44.6321 46.6422 47.6019 45.9582 50.5662C45.8047 51.2291 45.5784 51.8877 45.2949 52.5068C44.1301 55.053 41.7683 56.2035 39.0317 55.6052C36.8068 55.118 34.9289 53.9555 33.1769 52.5667C29.9545 50.0126 27.34 46.8985 24.9754 43.5623C22.2799 39.7618 20.0033 35.7204 18.0959 31.47C18.0245 31.3119 17.9424 31.1584 17.8023 30.8731ZM16.6371 20.7556L18.1102 25.4405C19.2741 23.6641 20.3591 22.0084 21.5262 20.2259L16.6371 20.7556ZM29.7157 32.8496C27.8641 32.8473 26.3573 31.3465 26.361 29.5083C26.3642 27.6406 27.8692 26.1522 29.7517 26.1527C31.6019 26.1536 33.1054 27.653 33.1068 29.4968C33.1077 31.3622 31.6009 32.8519 29.7157 32.8496Z" fill="#FDF0F4"/>
</g>
<defs>
<filter id="filter0_d_231_145" x="0" y="0" width="72" height="70" filterUnits="userSpaceOnUse" color-interpolation-filters="sRGB">
<feFlood flood-opacity="0" result="BackgroundImageFix"/>
<feColorMatrix in="SourceAlpha" type="matrix" values="0 0 0 0 0 0 0 0 0 0 0 0 0 0 0 0 0 0 127 0" result="hardAlpha"/>
<feOffset dx="9" dy="7"/>
<feGaussianBlur stdDeviation="2"/>
<feComposite in2="hardAlpha" operator="out"/>
<feColorMatrix type="matrix" values="0 0 0 0 0 0 0 0 0 0 0 0 0 0 0 0 0 0 0.25 0"/>
<feBlend mode="normal" in2="BackgroundImageFix" result="effect1_dropShadow_231_145"/>
<feBlend mode="normal" in="SourceGraphic" in2="effect1_dropShadow_231_145" result="shape"/>
</filter>
<linearGradient id="paint0_linear_231_145" x1="29.5" y1="0" x2="29.5" y2="59" gradientUnits="userSpaceOnUse">
<stop stop-color="#402DAE"/>
<stop offset="1" stop-color="#BD63D1"/>
</linearGradient>
</defs>
</svg>
